<svg width="24" height="24" viewBox="0 0 24 24" fill="none" xmlns="http://www.w3.org/2000/svg">
<path d="M12 2C6.486 2 2 6.486 2 12C2 17.003 5.697 21.1475 10.5 21.875V14.5H8.5C8.224 14.5 8 14.2765 8 14V12.5C8 12.2235 8.224 12 8.5 12H10.5V10.184C10.5 7.8085 11.7135 6.5 13.917 6.5C14.81 6.5 15.5145 6.562 15.544 6.5645C15.802 6.5875 16 6.8035 16 7.0625V8.75C16 9.0265 15.776 9.25 15.5 9.25H14.5C13.9485 9.25 13.5 9.6985 13.5 10.25V12H15.5C15.6435 12 15.78 12.0615 15.875 12.169C15.97 12.277 16.014 12.42 15.9965 12.562L15.809 14.062C15.7775 14.312 15.5645 14.5 15.3125 14.5H13.5V21.875C18.303 21.1475 22 17.003 22 12C22 6.486 17.514 2 12 2Z" fill="#7A7C7E"/>
</svg>
