<svg width="24" height="24" viewBox="0 0 24 24" fill="none" xmlns="http://www.w3.org/2000/svg">
<path fill-rule="evenodd" clip-rule="evenodd" d="M16.0067 17.4209C14.6411 18.4845 12.924 19.118 11.059 19.118C6.60814 19.118 3 15.5099 3 11.059C3 6.60814 6.60814 3 11.059 3C15.5099 3 19.118 6.60814 19.118 11.059C19.118 12.924 18.4845 14.6411 17.4209 16.0067L21.4142 20L20 21.4142L16.0067 17.4209ZM5 11.059C5 7.71271 7.71271 5 11.059 5C14.4053 5 17.118 7.71271 17.118 11.059C17.118 12.6997 16.4659 14.188 15.4068 15.279L15.279 15.4068C14.188 16.4659 12.6997 17.118 11.059 17.118C7.71271 17.118 5 14.4053 5 11.059Z" fill="white"/>
</svg>
