<svg width="24" height="24" viewBox="0 0 24 24" fill="none" xmlns="http://www.w3.org/2000/svg">
<path d="M10.75 2C9.784 2 9 2.784 9 3.75C9 4.403 9.36258 4.96563 9.89258 5.26562L9.96484 5.30078L13.3262 6.94531L14 5.60547L12 4.62695V4.25C12 3.281 14 3 14 3V2H10.75ZM8.82617 6.00586C8.40833 5.96438 8.0005 6.14378 7.75 6.51953C6.75 7.61953 6.3 8.40039 5.5 9.40039C4.6 10.5004 5.00039 12.1996 6.40039 12.5996L10.0234 13.9062L10.2832 14.0273L11.582 17.9004L13.4785 17.2656L12.1445 13.2891L12.1328 13.2598C11.9733 12.87 11.6967 12.5436 11.3438 12.3223L11.291 12.291L8.50781 10.9902L10 8.92969L11.3926 9.73242V9.73047C11.6985 9.9076 12.0423 10 12.3926 10H16V8H12.3945H12.3926L11.5703 7.52539C11.0936 7.23555 9.33537 6.16505 9.24219 6.12109C9.10619 6.05709 8.96545 6.01969 8.82617 6.00586ZM18 11C15.8027 11 14 12.8027 14 15C14 17.1973 15.8027 19 18 19C20.1973 19 22 17.1973 22 15C22 12.8027 20.1973 11 18 11ZM18 13C19.1164 13 20 13.8836 20 15C20 16.1164 19.1164 17 18 17C16.8836 17 16 16.1164 16 15C16 13.8836 16.8836 13 18 13ZM6 14C3.80271 14 2 15.8027 2 18C2 20.1973 3.80271 22 6 22C8.19729 22 10 20.1973 10 18C10 15.8027 8.19729 14 6 14ZM6 16C7.11641 16 8 16.8836 8 18C8 19.1164 7.11641 20 6 20C4.88359 20 4 19.1164 4 18C4 16.8836 4.88359 16 6 16Z" fill="white"/>
</svg>
