<svg width="24" height="24" viewBox="0 0 24 24" fill="none" xmlns="http://www.w3.org/2000/svg">
<path d="M11.9287 4.25C8.75236 4.25 5.80117 4.47631 4.11719 4.82812C4.1136 4.82907 4.11002 4.83005 4.10645 4.83105C2.83774 5.11535 1.64309 6.02412 1.3916 7.44727C1.39127 7.44922 1.39094 7.45117 1.39062 7.45312C1.19742 8.60013 1 10.0953 1 12.25C1 14.4006 1.1981 15.8562 1.44238 17.0635C1.70004 18.4446 2.86711 19.3809 4.15527 19.6689C4.16144 19.6707 4.16762 19.6723 4.17383 19.6738C5.93135 20.0201 8.79923 20.25 11.9756 20.25C15.1519 20.25 18.0213 20.0201 19.7793 19.6738C19.7855 19.6723 19.7917 19.6707 19.7979 19.6689C21.0666 19.3847 22.2612 18.4759 22.5127 17.0527C22.5134 17.0492 22.514 17.0456 22.5146 17.042C22.7049 15.8716 22.9514 14.3778 23 12.2197C23.0001 12.2142 23.0001 12.2087 23 12.2031C23 10.0438 22.7529 8.53934 22.5117 7.34766C22.2561 5.96354 21.0877 5.02474 19.7979 4.73633C19.7781 4.73195 19.7583 4.72836 19.7383 4.72559C18.0232 4.48448 15.1056 4.25 11.9287 4.25ZM10.0781 8.50098C10.2633 8.49715 10.4548 8.54095 10.6348 8.64258L14.9365 11.0732C15.662 11.4832 15.662 12.5177 14.9365 12.9277L10.6348 15.3584C9.91527 15.7644 9.01855 15.2502 9.01855 14.4307V9.56934C9.01855 8.95471 9.52252 8.51246 10.0781 8.50098Z" fill="#7A7C7E"/>
</svg>
