<svg width="152" height="42" viewBox="0 0 152 42" fill="none" xmlns="http://www.w3.org/2000/svg">
<path d="M65.7302 28.6953V31.3696H60.9612V27.9286C60.9612 27.8053 60.8608 27.7049 60.7376 27.7049H58.8208C58.6976 27.7049 58.5972 27.8053 58.5972 27.9286V37.736C58.5972 37.8911 58.7706 37.9824 58.8984 37.8911L60.8197 36.5449C60.9064 36.4855 60.9566 36.3897 60.9566 36.2847V33.2818H65.7257V37.0514C65.7257 37.1746 65.8261 37.275 65.9493 37.275H67.8661C67.9893 37.275 68.0897 37.1746 68.0897 37.0514V27.244C68.0897 27.0888 67.9163 26.9976 67.7885 27.0888L65.8672 28.4351C65.785 28.4945 65.7302 28.5903 65.7302 28.6953Z" fill="white"/>
<path d="M31.5209 37.2798H33.5518C33.6841 37.2798 33.7754 37.152 33.7343 37.0287L30.6675 27.947C30.6219 27.8192 30.5032 27.7279 30.3663 27.7279H26.656C26.5237 27.7279 26.4004 27.8146 26.3548 27.9378L23.1282 37.0242C23.0826 37.1474 23.1784 37.2798 23.3062 37.2798H25.3051C25.4421 37.2798 25.5607 37.1976 25.6063 37.0698L26.2635 35.2215H30.5945L31.2197 37.0653C31.2653 37.193 31.384 37.2798 31.5209 37.2798ZM26.8796 33.4964L28.2031 29.7633C28.2305 29.6857 28.3035 29.6355 28.3811 29.6355H28.5728C28.6549 29.6355 28.7279 29.6903 28.7553 29.7679L30.0149 33.4964H26.8796Z" fill="white"/>
<path d="M55.2616 37.2798H57.2925C57.4248 37.2798 57.5161 37.152 57.475 37.0287L54.4082 27.947C54.3626 27.8192 54.2439 27.7279 54.107 27.7279H50.3967C50.2644 27.7279 50.1411 27.8146 50.0955 27.9378L46.8689 37.0242C46.8233 37.1474 46.9192 37.2798 47.0515 37.2798H49.0504C49.1873 37.2798 49.306 37.1976 49.3516 37.0698L50.0088 35.2215H54.3397L54.9604 37.0653C55.006 37.193 55.1247 37.2798 55.2616 37.2798ZM50.6158 33.4964L51.9392 29.7633C51.9666 29.6857 52.0396 29.6355 52.1172 29.6355H52.3089C52.391 29.6355 52.4641 29.6903 52.4914 29.7679L53.751 33.4964H50.6158Z" fill="white"/>
<path d="M77.6147 37.2798H79.6455C79.7779 37.2798 79.8691 37.152 79.8281 37.0287L76.7612 27.947C76.7156 27.8192 76.597 27.7279 76.46 27.7279H72.7497C72.6174 27.7279 72.4942 27.8146 72.4485 27.9378L69.222 37.0242C69.1764 37.1474 69.2722 37.2798 69.4 37.2798H71.3989C71.5358 37.2798 71.6545 37.1976 71.7001 37.0698L72.3573 35.2215H76.6882L77.3135 37.0653C77.3591 37.193 77.4778 37.2798 77.6147 37.2798ZM72.9734 33.4964L74.2968 29.7633C74.3242 29.6857 74.3972 29.6355 74.4794 29.6355H74.6711C74.7532 29.6355 74.8262 29.6903 74.8536 29.7679L76.1132 33.4964H72.9734Z" fill="white"/>
<path d="M24.0185 27.7279H21.7458C21.6408 27.7279 21.5404 27.7781 21.4811 27.8648L19.0395 31.4199L16.5979 27.8648C16.5386 27.7781 16.4382 27.7279 16.3332 27.7279H14.0605C13.9053 27.7279 13.814 27.9013 13.9007 28.0291L17.8849 33.8342V37.7681C17.8849 37.9232 18.0583 38.0145 18.1861 37.9232L20.0481 36.6226C20.1348 36.5632 20.185 36.4674 20.185 36.3624V33.8342L24.1691 28.0291C24.2649 27.9013 24.1737 27.7279 24.0185 27.7279Z" fill="white"/>
<path d="M42.5243 27.9196L40.3018 32.9716L38.0792 27.9196C38.029 27.8055 37.9149 27.7279 37.7872 27.7279H35.0854C34.9622 27.7279 34.8618 27.8283 34.8618 27.9515V37.047C34.8618 37.1702 34.9622 37.2706 35.0854 37.2706H36.8105C36.9337 37.2706 37.0341 37.1702 37.0341 37.047V30.4296L39.0559 35.0253C39.1061 35.1394 39.2202 35.217 39.3479 35.217H41.251C41.3788 35.217 41.4929 35.1439 41.5431 35.0253L43.5648 30.4296V37.0561C43.5648 37.1794 43.6652 37.2798 43.7884 37.2798H45.5135C45.6367 37.2798 45.7371 37.1794 45.7371 37.0561V27.9515C45.7371 27.8283 45.6367 27.7279 45.5135 27.7279H42.8164C42.6886 27.7279 42.5745 27.8009 42.5243 27.9196Z" fill="white"/>
<path d="M107.123 30.1511C107.023 28.8824 105.836 27.6457 104.554 27.4951C104.554 27.4951 104.554 27.4951 104.554 27.4905C103.545 27.3992 100.917 27.381 99.7302 27.4905C99.7302 27.4905 99.7302 27.4905 99.7302 27.4951C98.4523 27.6457 97.2658 28.8824 97.1608 30.1511C97.0056 32.0725 97.0056 32.9396 97.1608 34.8609C97.2612 36.1296 98.4478 37.3664 99.7302 37.517V37.5215C100.739 37.6128 103.545 37.6128 104.554 37.5215C104.554 37.5215 104.554 37.5215 104.554 37.517C105.832 37.3664 107.018 36.1296 107.123 34.8609C107.274 32.9396 107.274 32.0725 107.123 30.1511ZM104.787 34.8289C104.759 35.1986 104.449 35.5181 104.098 35.5363C103.199 35.5774 101.095 35.5774 100.196 35.5363C99.8443 35.5226 99.5294 35.2032 99.5066 34.8289C99.3742 32.9441 99.3742 32.0725 99.5066 30.1876C99.5339 29.818 99.8443 29.4985 100.196 29.4803C101.095 29.4392 103.194 29.4392 104.098 29.4803C104.449 29.494 104.764 29.8134 104.791 30.1876C104.919 32.0725 104.919 32.9441 104.787 34.8289Z" fill="white"/>
<path d="M127.674 30.1511C127.573 28.8824 126.382 27.6457 125.104 27.4951C125.104 27.4951 125.104 27.4951 125.104 27.4905C124.096 27.3992 121.467 27.381 120.28 27.4905C120.28 27.4905 120.28 27.4905 120.28 27.4951C119.003 27.6457 117.816 28.8824 117.711 30.1511C117.556 32.0725 117.556 32.9396 117.711 34.8609C117.812 36.1296 119.003 37.3664 120.28 37.517V37.5215C121.289 37.6128 124.096 37.6128 125.104 37.5215C125.104 37.5215 125.104 37.5215 125.104 37.517C126.382 37.3664 127.569 36.1296 127.674 34.8609C127.824 32.9396 127.824 32.0725 127.674 30.1511ZM125.337 34.8289C125.31 35.1986 124.999 35.5181 124.648 35.5363C123.749 35.5774 121.645 35.5774 120.746 35.5363C120.395 35.5226 120.08 35.2032 120.052 34.8289C119.92 32.9441 119.92 32.0725 120.052 30.1876C120.08 29.818 120.39 29.4985 120.741 29.4803C121.64 29.4392 123.74 29.4392 124.643 29.4803C124.995 29.494 125.31 29.8134 125.332 30.1876C125.465 32.0725 125.465 32.9441 125.337 34.8289Z" fill="white"/>
<path d="M107.183 28.029L108.219 29.5077C108.278 29.5944 108.374 29.6446 108.479 29.6446H111.24V37.7634C111.24 37.9186 111.413 38.0099 111.541 37.9186L113.462 36.5723C113.549 36.513 113.599 36.4171 113.599 36.3122V29.64H116.36C116.465 29.64 116.561 29.5898 116.62 29.5031L117.656 28.0245C117.748 27.8967 117.656 27.7233 117.501 27.7233H107.342C107.183 27.7278 107.096 27.9013 107.183 28.029Z" fill="white"/>
<path d="M92.3368 27.9196L90.1143 32.9716L87.8917 27.9196C87.8415 27.8055 87.7274 27.7279 87.5997 27.7279H84.8979C84.7747 27.7279 84.6743 27.8283 84.6743 27.9515V37.047C84.6743 37.1702 84.7747 37.2706 84.8979 37.2706H86.623C86.7462 37.2706 86.8466 37.1702 86.8466 37.047V30.4296L88.8684 35.0253C88.9186 35.1394 89.0327 35.217 89.1604 35.217H91.0635C91.1913 35.217 91.3054 35.1439 91.3556 35.0253L93.3773 30.4296V37.0561C93.3773 37.1794 93.4777 37.2798 93.6009 37.2798H95.326C95.4492 37.2798 95.5496 37.1794 95.5496 37.0561V27.9515C95.5496 27.8283 95.4492 27.7279 95.326 27.7279H92.6243C92.5011 27.7279 92.387 27.8009 92.3368 27.9196Z" fill="white"/>
<path d="M135.09 33.1268H136.966C138.02 33.1268 138.919 32.141 138.919 30.4524C138.919 28.6772 138.02 27.7279 136.966 27.7279H129.395C129.271 27.7279 129.171 27.8283 129.171 27.9515V37.7407C129.171 37.8959 129.344 37.9871 129.472 37.8959L131.33 36.5952C131.416 36.5359 131.466 36.44 131.466 36.3351V29.8592C131.466 29.7359 131.567 29.6355 131.69 29.6355H136.144C136.409 29.6355 136.665 30.0326 136.665 30.6076C136.665 31.1963 136.404 31.5934 136.144 31.5934H133.689C133.602 31.5934 133.516 31.6299 133.456 31.6938L132.251 32.9899C132.183 33.0629 132.183 33.177 132.251 33.25L135.957 37.1748C136.016 37.2387 136.103 37.2752 136.19 37.2752H138.577C138.746 37.2752 138.832 37.0744 138.718 36.9512L135.09 33.1268Z" fill="white"/>
<path d="M13.0928 12.4301H16.9537C19.126 12.4301 20.9743 10.4038 20.9743 6.93085C20.9743 3.27988 19.1215 1.33118 16.9537 1.33118H1.37776C1.12675 1.33118 0.921387 1.53654 0.921387 1.78755V21.9226C0.921387 22.2421 1.28192 22.4292 1.54205 22.2467L5.35731 19.5723C5.53074 19.4491 5.6357 19.2483 5.6357 19.0384V5.72147C5.6357 5.47046 5.84107 5.2651 6.09207 5.2651H15.2514C15.7945 5.2651 16.3239 6.07744 16.3239 7.264C16.3239 8.46882 15.79 9.29485 15.2514 9.29485H10.204C10.0214 9.29485 9.84801 9.37244 9.72479 9.50478L7.24213 12.1746C7.10065 12.3252 7.10065 12.5625 7.24669 12.7131L14.8681 20.7817C14.9913 20.9141 15.1647 20.9871 15.3427 20.9871H20.2533C20.6001 20.9871 20.7781 20.5718 20.5408 20.3253L13.0928 12.4301Z" fill="#FF0000"/>
<path d="M39.1742 17.0486H28.4905C28.2395 17.0486 28.0341 16.8433 28.0341 16.5923V13.0873C28.0341 12.8363 28.2395 12.631 28.4905 12.631H38.3481C38.5991 12.631 38.8045 12.4256 38.8045 12.1746V9.55501C38.8045 9.30401 38.5991 9.09864 38.3481 9.09864H28.4905C28.2395 9.09864 28.0341 8.89327 28.0341 8.64227V5.72606C28.0341 5.47505 28.2395 5.26969 28.4905 5.26969H39.1742C39.3887 5.26969 39.5895 5.16472 39.7081 4.9913L41.8302 1.961C42.0128 1.70087 41.8257 1.34033 41.5062 1.34033H23.7762C23.5252 1.34033 23.3198 1.5457 23.3198 1.7967V20.5262C23.3198 20.7772 23.5252 20.9825 23.7762 20.9825H41.5108C41.8302 20.9825 42.0173 20.622 41.8348 20.3619L39.7127 17.3316C39.5895 17.1536 39.3887 17.0486 39.1742 17.0486Z" fill="#FF0000"/>
<path d="M149.151 17.0486H138.189C137.938 17.0486 137.732 16.8433 137.732 16.5923V13.0873C137.732 12.8363 137.938 12.631 138.189 12.631H148.329C148.58 12.631 148.786 12.4256 148.786 12.1746V9.55501C148.786 9.30401 148.58 9.09864 148.329 9.09864H138.189C137.938 9.09864 137.732 8.89327 137.732 8.64227V5.72606C137.732 5.47505 137.938 5.26969 138.189 5.26969H149.151C149.365 5.26969 149.566 5.16472 149.689 4.9913L151.811 1.961C151.994 1.70087 151.807 1.34033 151.487 1.34033H133.474C133.223 1.34033 133.018 1.5457 133.018 1.7967V20.5262C133.018 20.7772 133.223 20.9825 133.474 20.9825H151.487C151.807 20.9825 151.994 20.622 151.811 20.3619L149.689 17.3316C149.566 17.1536 149.365 17.0486 149.151 17.0486Z" fill="#FF0000"/>
<path d="M86.3629 20.3894L84.6652 17.3819C84.5511 17.1766 84.3321 17.0488 84.0947 17.0488H71.8914L84.9482 5.40677C85.0896 5.28355 85.1672 5.10556 85.1672 4.91845V1.79231C85.1672 1.5413 84.9619 1.33594 84.7108 1.33594H66.456C66.1548 1.33594 65.9631 1.65996 66.1137 1.92466L67.8114 4.93214C67.9255 5.13751 68.1446 5.26529 68.3819 5.26529H78.6639L66.1365 16.451C65.9996 16.5742 65.9175 16.7522 65.9175 16.9393V20.3301C65.9175 20.6906 66.2096 20.9827 66.5701 20.9827H86.0161C86.3218 20.9782 86.5135 20.6541 86.3629 20.3894Z" fill="#FF0000"/>
<path d="M107.89 6.31486C107.68 3.69986 105.238 1.15787 102.61 0.847538C102.61 0.842974 102.61 0.842974 102.61 0.83841C100.538 0.651298 95.1298 0.614788 92.6883 0.83841C92.6883 0.842974 92.6883 0.842974 92.6883 0.847538C90.0596 1.15787 87.6134 3.69986 87.408 6.31486C87.0932 10.267 87.0932 12.0514 87.408 16.0036C87.618 18.6186 90.0596 21.1606 92.6883 21.4709C92.6883 21.4755 92.6883 21.4755 92.6883 21.4801C94.7602 21.6672 100.538 21.6672 102.61 21.4801C102.61 21.4755 102.61 21.4755 102.61 21.4709C105.238 21.1606 107.68 18.6186 107.89 16.0036C108.205 12.0514 108.205 10.2716 107.89 6.31486ZM103.08 15.9352C103.025 16.7019 102.382 17.3545 101.661 17.391C99.8077 17.4731 95.4858 17.4731 93.6329 17.391C92.9073 17.359 92.2638 16.7019 92.2136 15.9352C91.9444 12.0606 91.9444 10.267 92.2136 6.38788C92.2684 5.62574 92.9119 4.96857 93.6329 4.93662C95.4813 4.85448 99.7985 4.85448 101.661 4.93662C102.386 4.96857 103.03 5.62574 103.08 6.38788C103.349 10.267 103.349 12.0606 103.08 15.9352Z" fill="#FF0000"/>
<path d="M125.287 3.15676V14.6208L116.068 1.61423C115.945 1.4408 115.749 1.3404 115.534 1.3404H111.317C111.066 1.3404 110.861 1.54577 110.861 1.79677V21.909C110.861 22.2285 111.221 22.4156 111.482 22.2331L115.119 19.6865C115.292 19.5633 115.397 19.3625 115.397 19.148V7.68853L124.616 20.6905C124.739 20.864 124.94 20.9689 125.15 20.9689H129.367C129.618 20.9689 129.823 20.7636 129.823 20.5126V0.395714C129.823 0.0762543 129.463 -0.110858 129.202 0.0716906L125.565 2.61824C125.392 2.74603 125.287 2.94227 125.287 3.15676Z" fill="#FF0000"/>
<path d="M59.4054 1.79215L54.6956 16.7748C54.6454 16.9391 54.4903 17.0486 54.3214 17.0486H53.5045C53.3311 17.0486 53.1805 16.9391 53.1303 16.7748L48.4205 1.79215C48.3338 1.51832 48.0828 1.33578 47.7953 1.33578H43.3959C43.1312 1.33578 42.9395 1.59591 43.0217 1.84691L48.8906 20.5216C48.9773 20.7954 49.2283 20.9826 49.5158 20.9826H58.3101C58.5976 20.9826 58.8486 20.7954 58.9353 20.5216L64.8043 1.84691C64.8818 1.59134 64.6947 1.33578 64.43 1.33578H60.0306C59.7477 1.33121 59.4921 1.51832 59.4054 1.79215Z" fill="#FF0000"/>
</svg>
