<svg width="34" height="16" viewBox="0 0 34 16" fill="none" xmlns="http://www.w3.org/2000/svg">
<rect width="34" height="16" fill="#FF0000"/>
<path d="M8.76562 6.63778H9.82386C9.7919 5.47301 8.76207 4.62784 7.2848 4.62784C5.82528 4.62784 4.70668 5.46236 4.70668 6.71591C4.70668 7.72798 5.43111 8.32102 6.59943 8.63707L7.45881 8.87145C8.23651 9.07741 8.83665 9.3331 8.83665 9.9794C8.83665 10.6896 8.15838 11.1584 7.22443 11.1584C6.37926 11.1584 5.67614 10.782 5.61222 9.99006H4.51136C4.58239 11.3075 5.60156 12.1207 7.23153 12.1207C8.93963 12.1207 9.9233 11.2223 9.9233 9.99006C9.9233 8.67969 8.75497 8.17188 7.83168 7.9446L7.12145 7.75994C6.55327 7.61435 5.79688 7.34801 5.80043 6.65199C5.80043 6.03409 6.36506 5.57599 7.25994 5.57599C8.09446 5.57599 8.6875 5.96662 8.76562 6.63778ZM11.7903 12L12.4579 10.0753H15.2988L15.9629 12H17.1277L14.5105 4.72727H13.2427L10.6255 12H11.7903ZM12.7775 9.15199L13.85 6.0483H13.9068L14.9792 9.15199H12.7775ZM18.1779 12H22.5707V11.0554H19.2752V4.72727H18.1779V12ZM23.8224 12H28.4247V11.0554H24.9197V8.82884H28.1442V7.88778H24.9197V5.67188H28.3821V4.72727H23.8224V12Z" fill="white"/>
</svg>
