<svg width="14" height="17" viewBox="0 0 14 17" fill="none" xmlns="http://www.w3.org/2000/svg">
<path d="M5.24023 0.50147C4.69684 0.533082 4.18607 0.967759 4.21045 1.62354C4.2367 2.32854 3.59159 2.86992 2.90234 2.72217C1.87484 2.50167 1.16831 3.7271 1.87256 4.50635C2.34581 5.0291 2.19991 5.85653 1.57666 6.18653C0.64816 6.67778 0.893832 8.07134 1.93408 8.21534C2.63308 8.31209 3.05359 9.04158 2.78809 9.69483C2.65036 10.0338 2.69909 10.3609 2.84961 10.625L0.892578 14H3.51758V14.0015L4.63525 16.4522L6.98779 12.5308L9.34033 16.4522L10.458 14H13.083L11.1392 10.6484C11.3004 10.3807 11.3544 10.0438 11.2124 9.69483C10.9469 9.04158 11.3674 8.31209 12.0664 8.21534C13.1059 8.07134 13.3509 6.67778 12.4224 6.18653C11.7991 5.85653 11.6532 5.0291 12.1265 4.50635C12.8307 3.7271 12.1234 2.50167 11.0967 2.72217C10.4067 2.87067 9.76232 2.32854 9.78857 1.62354C9.82757 0.574291 8.49852 0.0916657 7.85352 0.920416C7.42002 1.47692 6.57826 1.47692 6.14551 0.920416C5.90363 0.609634 5.56627 0.482504 5.24023 0.50147ZM8.9375 4.03321L9.99805 5.09229L6.62451 8.46583L4.34521 6.18653L5.4043 5.12598L6.62451 6.3462L8.9375 4.03321ZM4.8374 10.8565C5.26506 10.8161 5.68853 11.04 5.89502 11.438L4.79346 13.2749C4.52833 12.814 4.05717 12.5 3.51758 12.5H3.49707L4.354 11.0234C4.35795 11.021 4.36178 11.0201 4.36572 11.0176C4.51516 10.9238 4.67585 10.8717 4.8374 10.8565ZM9.16309 10.8565C9.317 10.871 9.46937 10.9217 9.61279 11.0073L10.4785 12.5H10.458C9.91901 12.5 9.44737 12.813 9.18213 13.2749L8.09375 11.4614C8.29542 11.0487 8.72718 10.8153 9.16309 10.8565Z" fill="#FF0000"/>
</svg>
