<svg width="18" height="18" viewBox="0 0 18 18" fill="none" xmlns="http://www.w3.org/2000/svg">
<path d="M11.7984 0C11.6538 0 11.5307 0.102722 11.5043 0.244922L11.3719 0.950391C11.3377 1.13339 11.1928 1.27001 11.0098 1.30781C10.8394 1.34321 10.6714 1.38743 10.5082 1.44023C10.3312 1.49783 10.1384 1.45233 10.0172 1.31133L9.55195 0.767578C9.45775 0.657778 9.29884 0.631697 9.17344 0.704297L8.82656 0.904688C8.70176 0.976688 8.64497 1.12825 8.69297 1.26445L8.93086 1.94063C8.99266 2.11583 8.93587 2.30627 8.79727 2.43047C8.66827 2.54627 8.54627 2.66827 8.43047 2.79727C8.30627 2.93587 8.11583 2.99383 7.94063 2.93203L7.26328 2.69297C7.12708 2.64497 6.97669 2.70116 6.90469 2.82656L6.70313 3.17461C6.63113 3.29941 6.65838 3.45893 6.76758 3.55313L6.82617 3.60352C7.53597 3.61552 8.14321 4.12324 8.27461 4.82344L8.31094 5.01445L8.43633 4.8668C8.71173 4.5464 9.0973 4.37217 9.4957 4.35117C10.0333 3.53817 10.953 3 12 3C13.6566 3 15 4.3434 15 6C15 7.047 14.4618 7.96673 13.6488 8.50313C13.6278 8.90153 13.4536 9.2877 13.1332 9.5625L12.9855 9.68789L13.1766 9.72422C13.8768 9.85562 14.3845 10.4629 14.3965 11.1727L14.4469 11.2313C14.5411 11.3411 14.7 11.3683 14.8254 11.2957L15.1734 11.0941C15.2982 11.0221 15.355 10.8717 15.307 10.7355L15.068 10.0582C15.0062 9.883 15.0641 9.69256 15.2027 9.56836C15.3317 9.45256 15.4537 9.33056 15.5695 9.20156C15.6937 9.06296 15.8842 9.00617 16.0594 9.06797L16.7355 9.30586C16.8717 9.35386 17.0233 9.29767 17.0953 9.17227L17.2957 8.82422C17.3677 8.69942 17.3416 8.54108 17.2324 8.44688L16.6887 7.98047C16.5477 7.85927 16.5022 7.66645 16.5598 7.48945C16.6126 7.32625 16.6568 7.15946 16.6922 6.98906C16.73 6.80666 16.8666 6.66175 17.0496 6.62695L17.7551 6.49336C17.8973 6.46876 18 6.34616 18 6.20156V5.79844C18 5.65384 17.8973 5.5307 17.7551 5.5043L17.0496 5.37188C16.8666 5.33768 16.73 5.19277 16.6922 5.00977C16.6568 4.83937 16.6126 4.6714 16.5598 4.5082C16.5022 4.3312 16.5477 4.13839 16.6887 4.01719L17.2324 3.55195C17.3422 3.45775 17.3683 3.29884 17.2957 3.17344L17.0953 2.82656C17.0233 2.70176 16.8717 2.64497 16.7355 2.69297L16.0594 2.93086C15.8842 2.99266 15.6937 2.93587 15.5695 2.79727C15.4537 2.66827 15.3317 2.54627 15.2027 2.43047C15.0641 2.30627 15.0062 2.11583 15.068 1.94063L15.307 1.26328C15.355 1.12708 15.2988 0.976688 15.1734 0.904688L14.8254 0.703125C14.7006 0.631125 14.5411 0.658378 14.4469 0.767578L13.9816 1.31133C13.8604 1.45233 13.6676 1.49783 13.4906 1.44023C13.3274 1.38743 13.1595 1.34321 12.9891 1.30781C12.8067 1.27001 12.6618 1.13222 12.627 0.949219L12.4945 0.24375C12.4693 0.10215 12.3462 0 12.2016 0H11.7984ZM6.39844 4.8C6.25384 4.8 6.1307 4.90215 6.1043 5.04375L5.99297 5.63672C5.94677 5.88332 5.7503 6.06504 5.5043 6.11484C5.2997 6.15624 5.09873 6.20885 4.90313 6.27305C4.66552 6.35105 4.40479 6.29273 4.24219 6.10313L3.85195 5.64727C3.75775 5.53807 3.59824 5.51198 3.47344 5.58398L3.12656 5.78438C3.00116 5.85638 2.94497 6.00794 2.99297 6.14414L3.19453 6.71484C3.27733 6.95124 3.19832 7.20547 3.01172 7.37227C2.85752 7.51027 2.71084 7.65635 2.57344 7.81055C2.40664 7.99715 2.15242 8.07616 1.91602 7.99336L1.34414 7.79297C1.20794 7.74497 1.05755 7.80176 0.985547 7.92656L0.783984 8.27344C0.711384 8.39884 0.738638 8.55775 0.848438 8.65195L1.3043 9.04219C1.4939 9.20479 1.55222 9.46553 1.47422 9.70312C1.41002 9.89873 1.35742 10.0997 1.31602 10.3043C1.26622 10.5503 1.08449 10.7468 0.837891 10.793L0.244922 10.9043C0.102722 10.9307 0 11.0538 0 11.1984V11.6016C0 11.7462 0.10215 11.8693 0.24375 11.8957L0.836719 12.007C1.08332 12.0532 1.26504 12.2497 1.31484 12.4957C1.35624 12.7009 1.40885 12.9013 1.47305 13.0969C1.55105 13.3345 1.49273 13.5952 1.30313 13.7578L0.847266 14.148C0.738066 14.2422 0.711984 14.4018 0.783984 14.5266L0.984375 14.8734C1.05638 14.9988 1.20794 15.055 1.34414 15.007L1.91484 14.8055C2.15124 14.7227 2.40547 14.8017 2.57227 14.9883C2.71027 15.1425 2.85635 15.2892 3.01055 15.4266C3.19715 15.5934 3.27616 15.8476 3.19336 16.084L2.99297 16.6559C2.94497 16.7921 3.00176 16.9425 3.12656 17.0145L3.47344 17.216C3.59884 17.2886 3.75775 17.2614 3.85195 17.1516L4.24219 16.6957C4.40479 16.5061 4.66552 16.4478 4.90313 16.5258C5.09873 16.59 5.2997 16.6426 5.5043 16.684C5.7503 16.7338 5.94677 16.9155 5.99297 17.1621L6.1043 17.7551C6.1307 17.8973 6.25384 18 6.39844 18H6.80156C6.94616 18 7.06933 17.8973 7.09453 17.7563L7.20586 17.1633C7.25206 16.9167 7.44853 16.735 7.69453 16.6852C7.89973 16.6438 8.1001 16.5912 8.2957 16.527C8.5333 16.449 8.79404 16.5073 8.95664 16.6969L9.34688 17.1527C9.44108 17.2619 9.59942 17.2892 9.72422 17.2172L10.0723 17.0156C10.1977 16.9436 10.2539 16.7932 10.2059 16.657L10.0055 16.0852C9.92267 15.8488 10.0017 15.5945 10.1883 15.4277C10.3425 15.2897 10.4892 15.1437 10.6266 14.9895C10.7934 14.8029 11.0482 14.7238 11.284 14.8066L11.8559 15.007C11.9921 15.055 12.1425 14.9982 12.2145 14.8734L12.416 14.5266C12.4886 14.4012 12.4614 14.2422 12.3516 14.148L11.8957 13.7578C11.7061 13.5952 11.6478 13.3345 11.7258 13.0969C11.79 12.9013 11.8426 12.7003 11.884 12.4957C11.9338 12.2497 12.1155 12.0532 12.3621 12.007L12.9551 11.8957C13.0973 11.8693 13.2 11.7462 13.2 11.6016V11.1984C13.2 11.0538 13.0973 10.9313 12.9563 10.9055L12.3633 10.7941C12.1167 10.7479 11.935 10.5503 11.8852 10.3043C11.8438 10.0997 11.7912 9.89873 11.727 9.70312C11.649 9.46553 11.7073 9.20596 11.8969 9.04336L12.3527 8.65313C12.4619 8.55893 12.4892 8.39941 12.4172 8.27461L12.2156 7.92656C12.1436 7.80116 11.9932 7.74497 11.857 7.79297L11.2852 7.99453C11.0488 8.07733 10.7945 7.99832 10.6277 7.81172C10.4897 7.65752 10.3437 7.51084 10.1895 7.37344C10.0029 7.20664 9.92384 6.95242 10.0066 6.71602L10.207 6.14414C10.255 6.00794 10.1982 5.85755 10.0734 5.78555L9.72656 5.58398C9.60116 5.51138 9.44225 5.53864 9.34805 5.64844L8.95781 6.1043C8.79521 6.2939 8.53448 6.35222 8.29688 6.27422C8.10128 6.21002 7.9003 6.15742 7.6957 6.11602C7.4497 6.06622 7.25323 5.88449 7.20703 5.63789L7.0957 5.04492C7.0693 4.90272 6.94616 4.8 6.80156 4.8H6.39844ZM12 5.4C11.8409 5.4 11.6883 5.46321 11.5757 5.57574C11.4632 5.68826 11.4 5.84087 11.4 6C11.4 6.15913 11.4632 6.31174 11.5757 6.42426C11.6883 6.53679 11.8409 6.6 12 6.6C12.1591 6.6 12.3117 6.53679 12.4243 6.42426C12.5368 6.31174 12.6 6.15913 12.6 6C12.6 5.84087 12.5368 5.68826 12.4243 5.57574C12.3117 5.46321 12.1591 5.4 12 5.4ZM6.6 7.8C8.5884 7.8 10.2 9.4116 10.2 11.4C10.2 13.3884 8.5884 15 6.6 15C4.6116 15 3 13.3884 3 11.4C3 9.4116 4.6116 7.8 6.6 7.8ZM6.6 10.2C5.937 10.2 5.4 10.737 5.4 11.4C5.4 12.063 5.937 12.6 6.6 12.6C7.263 12.6 7.8 12.063 7.8 11.4C7.8 10.737 7.263 10.2 6.6 10.2Z" fill="#FF0000"/>
</svg>
