<svg width="18" height="15" viewBox="0 0 18 15" fill="none" xmlns="http://www.w3.org/2000/svg">
<path d="M13.5483 0C13.4516 0 13.3706 0.072457 13.3594 0.168457L13.2715 0.927246C12.9085 1.05325 12.5801 1.24521 12.2959 1.49121L11.5928 1.18652C11.5043 1.14827 11.402 1.18384 11.354 1.26709L10.6509 2.48291C10.6029 2.56616 10.6249 2.67272 10.7021 2.73047L11.3071 3.18018C11.2711 3.36543 11.25 3.555 11.25 3.75C11.25 3.945 11.2711 4.13457 11.3071 4.31982L10.7021 4.76953C10.6249 4.82728 10.6021 4.93384 10.6509 5.01709L11.354 6.23291C11.402 6.31691 11.5043 6.35026 11.5928 6.31201L12.2959 6.00879C12.5801 6.25554 12.9085 6.44675 13.2715 6.57275L13.3594 7.33154C13.3706 7.42754 13.4516 7.5 13.5483 7.5H14.9517C15.0484 7.5 15.1294 7.42754 15.1406 7.33154L15.2285 6.57275C15.5915 6.44675 15.9199 6.25479 16.2041 6.00879L16.9072 6.31348C16.9957 6.35173 17.098 6.31616 17.146 6.23291L17.8491 5.01709C17.8971 4.93309 17.8751 4.82653 17.7979 4.76953L17.1929 4.31982C17.2289 4.13457 17.25 3.945 17.25 3.75C17.25 3.555 17.2289 3.36543 17.1929 3.18018L17.7979 2.73047C17.8751 2.67272 17.8979 2.56616 17.8491 2.48291L17.146 1.26709C17.098 1.18384 16.9957 1.14827 16.9072 1.18652L16.2041 1.49121C15.9199 1.24521 15.5915 1.05325 15.2285 0.927246L15.1406 0.168457C15.1294 0.072457 15.0484 0 14.9517 0H13.5483ZM14.25 2.25C15.078 2.25 15.75 2.92125 15.75 3.75C15.75 4.578 15.078 5.25 14.25 5.25C13.422 5.25 12.75 4.578 12.75 3.75C12.75 2.92125 13.422 2.25 14.25 2.25ZM3 3C2.17275 3 1.5 3.67275 1.5 4.5V12C1.5 12.8273 2.17275 13.5 3 13.5H0V15H18V13.5H15C15.8273 13.5 16.5 12.8273 16.5 12V8.4873C16.0335 8.7093 15.531 8.86419 15.0015 8.93994V12H3V4.5H9.06006C9.02481 4.25475 9 4.005 9 3.75C9 3.495 9.02481 3.24525 9.06006 3H3Z" fill="#FF0000"/>
</svg>
