<svg width="14" height="14" viewBox="0 0 14 14" fill="none" xmlns="http://www.w3.org/2000/svg">
<path d="M13.0173 9.616C12.5448 9.60475 11.95 9.577 11.5743 9.511C11.1678 9.439 10.6787 9.2995 10.3345 9.19225C10.0645 9.10825 9.7705 9.1825 9.57025 9.382L7.9075 11.035C6.7585 10.4297 5.83825 9.72475 5.059 8.941C4.27525 8.16175 3.57025 7.2415 2.965 6.0925L4.618 4.429C4.8175 4.22875 4.89175 3.93475 4.80775 3.66475C4.70125 3.32125 4.561 2.83225 4.48975 2.42575C4.423 2.05 4.396 1.45525 4.384 0.98275C4.37425 0.574 4.04125 0.25 3.6325 0.25H1C0.6715 0.25 0.25 0.496 0.25 1C0.25 4.40425 1.63 7.6555 3.9745 10.0255C6.3445 12.37 9.59575 13.75 13 13.75C13.504 13.75 13.75 13.3285 13.75 13V10.3675C13.75 9.95875 13.426 9.62575 13.0173 9.616Z" fill="#7A7C7E"/>
</svg>
