<svg width="15" height="15" viewBox="0 0 15 15" fill="none" xmlns="http://www.w3.org/2000/svg">
<path d="M10.25 0.25C7.76825 0.25 5.75 2.26825 5.75 4.75C5.75 5.1385 5.8032 5.52691 5.9082 5.91016L2.47607 9.34229C1.34709 9.63537 0.5 10.6592 0.5 11.875C0.5 13.3159 1.68414 14.5 3.125 14.5C4.34077 14.5 5.36463 13.6529 5.65771 12.5239L9.08984 9.0918C9.47309 9.1968 9.8615 9.25 10.25 9.25C12.7318 9.25 14.75 7.23175 14.75 4.75C14.75 4.1995 14.6429 3.64855 14.4321 3.1123L14.3135 2.80762L12.8105 4.31055C12.518 4.6038 12.134 4.75 11.75 4.75C11.366 4.75 10.982 4.6038 10.6895 4.31055C10.1037 3.7248 10.1037 2.7752 10.6895 2.18945L12.1924 0.686523L11.8877 0.567871C11.3514 0.357121 10.8005 0.25 10.25 0.25ZM3.125 10.75C3.7552 10.75 4.25 11.2448 4.25 11.875C4.25 12.5052 3.7552 13 3.125 13C2.4948 13 2 12.5052 2 11.875C2 11.2448 2.4948 10.75 3.125 10.75Z" fill="#FF0000"/>
</svg>
