<svg width="45" height="36" viewBox="0 0 45 36" fill="none" xmlns="http://www.w3.org/2000/svg">
<path d="M45 12.148C45 13.4787 44.9878 14.7972 45 16.128C45 16.5186 44.9145 16.7017 44.475 16.7262C42.2409 16.8727 40.3852 18.7405 40.1411 20.9747C39.8359 23.8192 41.9845 26.1266 44.4384 26.2975C44.8657 26.3219 45 26.5051 45 26.9324C44.9878 29.2519 45 31.5715 44.9878 33.8911C44.9878 34.8556 44.6215 35.2218 43.6693 35.2218C41.5939 35.2218 39.5307 35.234 37.4552 35.2096C34.3299 35.173 31.229 34.8922 28.128 34.5137C25.2835 34.1597 22.4878 33.5371 19.6555 33.1586C17.7876 32.9022 15.9075 32.6947 14.0274 32.5604C9.80331 32.243 5.56701 32.304 1.34292 32.304C0.378459 32.304 0.0122054 31.95 0.0122054 30.9855C-2.98074e-06 28.6537 0.0122084 26.3219 0 23.9779C0 23.5628 0.1465 23.4163 0.537167 23.3797C3.0643 23.0745 4.87113 21.17 4.89555 18.6673C4.91996 15.9937 2.94221 14.0281 0.586 13.8206C0.13429 13.784 0 13.6375 0 13.1857C0.0122084 10.5487 0.0122054 7.91173 0.0122054 5.26252C0.0122054 4.26143 0.402876 3.88297 1.40396 3.88297C3.88226 3.88297 6.37276 3.85856 8.85106 3.89518C12.9164 3.96843 16.9574 4.28585 20.974 4.93289C23.9162 5.40902 26.8462 5.99502 29.8128 6.30023C31.3877 6.45894 32.9626 6.59323 34.5374 6.69089C37.5163 6.87402 40.5073 6.78856 43.4862 6.80077C44.6338 6.80077 44.9878 7.15481 44.9878 8.31461C45 9.58428 45 10.8662 45 12.148ZM15.761 27.2986C16.0784 27.323 16.3104 27.0788 16.5545 26.8347C20.9617 22.4275 25.369 18.008 29.764 13.6008C29.8616 13.5032 29.9593 13.4055 30.0448 13.2956C30.4354 12.7829 30.2523 12.0992 29.6541 11.8672C29.1291 11.6597 28.7873 11.9527 28.4577 12.2823C24.0627 16.6895 19.6677 21.0845 15.2849 25.4918C15.1506 25.6261 15.0041 25.7726 14.9064 25.9435C14.5401 26.5783 14.9919 27.3108 15.761 27.2986ZM27.3833 28.2997C29.5076 28.2997 31.2534 26.5539 31.2534 24.4296C31.2534 22.3664 29.4588 20.5718 27.3955 20.5718C25.2713 20.5718 23.5377 22.3176 23.5499 24.4541C23.5499 26.5783 25.2713 28.2997 27.3833 28.2997ZM17.6533 18.5086C19.7897 18.4964 21.4867 16.8116 21.4745 14.6752C21.4745 12.5387 19.7775 10.8417 17.6411 10.8417C15.4924 10.8417 13.7832 12.5509 13.771 14.6996C13.771 16.7994 15.529 18.5208 17.6533 18.5086Z" fill="#FF0000"/>
<path d="M6.06677 1.96555C6.75044 1.77021 7.39748 1.73359 8.04452 1.66034C10.5106 1.35513 12.9767 1.15979 15.455 1.04992C16.8956 0.976669 18.3484 0.952251 19.789 0.940043C24.0985 0.927835 28.4081 0.940044 32.7176 0.927836C35.6354 0.915627 38.5166 0.573793 41.3855 0.0610418C41.5809 0.0244167 41.7762 0 41.9715 0C42.5575 0 42.997 0.390668 43.0093 0.988878C43.0337 2.22192 43.0093 3.45496 43.0215 4.70022C43.0215 4.99322 42.8994 5.10309 42.6064 5.10309C39.945 5.10309 37.2835 5.12751 34.6221 4.95659C32.4857 4.81009 30.3492 4.65138 28.2127 4.37059C26.3571 4.12642 24.5136 3.83342 22.6579 3.60146C20.7168 3.3573 18.7635 3.11313 16.8101 2.9178C14.5516 2.68584 12.293 2.4905 10.0467 2.29517C8.92352 2.1975 7.80036 2.16088 6.67719 2.08763C6.49406 2.06321 6.31094 2.11205 6.06677 1.96555Z" fill="#FF0000"/>
<path d="M27.3841 26.4316C26.2732 26.4316 25.4064 25.577 25.4064 24.4783C25.3942 23.3551 26.2732 22.4517 27.3719 22.4395C28.4707 22.4395 29.3863 23.3429 29.3985 24.4294C29.3985 25.5404 28.5073 26.4316 27.3841 26.4316Z" fill="#FF0000"/>
<path d="M19.6187 14.662C19.6309 15.7851 18.7397 16.7008 17.6532 16.7008C16.5666 16.7008 15.6388 15.7729 15.6388 14.6864C15.6388 13.5998 16.5666 12.672 17.6532 12.672C18.7275 12.6598 19.6187 13.5632 19.6187 14.662Z" fill="#FF0000"/>
</svg>
