<svg width="70" height="55" viewBox="0 0 70 55" fill="none" xmlns="http://www.w3.org/2000/svg">
<path d="M70 18.896C70 20.966 69.981 23.017 70 25.087C70 25.6947 69.8671 25.9796 69.1834 26.0176C65.7081 26.2454 62.8215 29.151 62.4417 32.6263C61.9669 37.0512 65.3093 40.6405 69.1264 40.9063C69.7911 40.9443 70 41.2292 70 41.8938C69.981 45.5021 70 49.1103 69.981 52.7186C69.981 54.2189 69.4113 54.7886 67.93 54.7886C64.7016 54.7886 61.4921 54.8076 58.2637 54.7696C53.4021 54.7126 48.5784 54.2758 43.7547 53.6871C39.3299 53.1364 34.981 52.1679 30.5752 51.5791C27.6696 51.1803 24.745 50.8575 21.8204 50.6486C15.2496 50.1548 8.65979 50.2498 2.08899 50.2498C0.588714 50.2498 0.0189861 49.6991 0.0189861 48.1988C-4.6367e-06 44.5715 0.0189908 40.9443 0 37.2981C0 36.6524 0.227888 36.4245 0.835593 36.3675C4.76668 35.8928 7.57732 32.9302 7.6153 29.0371C7.65328 24.8781 4.57678 21.8206 0.911555 21.4978C0.208896 21.4408 0 21.2129 0 20.5102C0.0189908 16.4082 0.0189861 12.3062 0.0189861 8.18522C0.0189861 6.62797 0.626696 6.03926 2.18394 6.03926C6.03907 6.03926 9.91319 6.00128 13.7683 6.05825C20.0922 6.17219 26.3782 6.66595 32.6262 7.67246C37.2029 8.41311 41.7607 9.32466 46.3755 9.79943C48.8253 10.0463 51.2751 10.2552 53.7249 10.4071C58.3587 10.692 63.0114 10.5591 67.6451 10.5781C69.4303 10.5781 69.981 11.1288 69.981 12.9329C70 14.908 70 16.902 70 18.896ZM24.5171 42.4636C25.0108 42.5016 25.3717 42.1217 25.7515 41.7419C32.6072 34.8862 39.4628 28.0116 46.2995 21.1559C46.4514 21.004 46.6034 20.8521 46.7363 20.6811C47.344 19.8835 47.0591 18.8201 46.1286 18.4592C45.312 18.1364 44.7802 18.5922 44.2675 19.1049C37.4308 25.9606 30.5941 32.7973 23.7765 39.6529C23.5676 39.8618 23.3397 40.0897 23.1877 40.3556C22.618 41.3431 23.3207 42.4826 24.5171 42.4636ZM42.5963 44.0208C45.9007 44.0208 48.6164 41.3051 48.6164 38.0007C48.6164 34.7913 45.8247 31.9997 42.6153 31.9997C39.3109 31.9997 36.6142 34.7153 36.6332 38.0387C36.6332 41.3431 39.3109 44.0208 42.5963 44.0208ZM27.4607 28.7902C30.784 28.7712 33.4238 26.1505 33.4048 22.8271C33.4048 19.5037 30.7651 16.864 27.4417 16.864C24.0993 16.864 21.4406 19.5227 21.4216 22.8651C21.4216 26.1315 24.1563 28.8092 27.4607 28.7902Z" fill="#FF0000"/>
<path d="M9.4375 3.05752C10.501 2.75366 11.5075 2.69669 12.514 2.58275C16.3501 2.10798 20.1863 1.80412 24.0414 1.63321C26.2823 1.51926 28.5422 1.48128 30.7831 1.46229C37.4869 1.4433 44.1906 1.46229 50.8944 1.4433C55.4332 1.42431 59.915 0.892567 64.3778 0.0949539C64.6817 0.0379816 64.9855 0 65.2894 0C66.2009 0 66.8846 0.607706 66.9036 1.53825C66.9416 3.45632 66.9036 5.37439 66.9226 7.31145C66.9226 7.76723 66.7327 7.93814 66.2769 7.93814C62.1369 7.93814 57.9969 7.97613 53.8569 7.71026C50.5335 7.48237 47.2101 7.23548 43.8868 6.7987C41.0002 6.41888 38.1326 5.9631 35.246 5.60228C32.2264 5.22246 29.1879 4.84265 26.1494 4.53879C22.6361 4.17797 19.1228 3.87412 15.6285 3.57026C13.8813 3.41834 12.1342 3.36137 10.387 3.24742C10.1022 3.20944 9.81732 3.28541 9.4375 3.05752Z" fill="#FF0000"/>
<path d="M42.5982 41.1153C40.87 41.1153 39.5217 39.7859 39.5217 38.0767C39.5027 36.3296 40.87 34.9243 42.5792 34.9053C44.2884 34.9053 45.7127 36.3106 45.7317 38.0008C45.7317 39.7289 44.3453 41.1153 42.5982 41.1153Z" fill="#FF0000"/>
<path d="M30.5172 22.8081C30.5362 24.5552 29.1498 25.9795 27.4597 25.9795C25.7695 25.9795 24.3262 24.5362 24.3262 22.8461C24.3262 21.1559 25.7695 19.7126 27.4597 19.7126C29.1308 19.6936 30.5172 21.0989 30.5172 22.8081Z" fill="#FF0000"/>
</svg>
