<svg width="14" height="16" viewBox="0 0 14 16" fill="none" xmlns="http://www.w3.org/2000/svg">
<path d="M12.25 2.25H9.112C8.80225 1.37775 7.978 0.75 7 0.75C6.022 0.75 5.19775 1.37775 4.888 2.25H1.75C0.92125 2.25 0.25 2.92125 0.25 3.75V14.25C0.25 15.0787 0.92125 15.75 1.75 15.75H12.25C13.0787 15.75 13.75 15.0787 13.75 14.25V3.75C13.75 2.92125 13.0787 2.25 12.25 2.25ZM4.53025 7.71975L6.25 9.4395L9.46975 6.21975L10.5303 7.28025L6.25 11.5605L3.46975 8.78025L4.53025 7.71975ZM7 2.25C7.414 2.25 7.75 2.586 7.75 3C7.75 3.414 7.414 3.75 7 3.75C6.586 3.75 6.25 3.414 6.25 3C6.25 2.586 6.586 2.25 7 2.25Z" fill="#FF0000"/>
</svg>
