<svg width="18" height="18" viewBox="0 0 18 18" fill="none" xmlns="http://www.w3.org/2000/svg">
<path d="M15.0173 11.616C14.5448 11.6047 13.95 11.577 13.5743 11.511C13.1678 11.439 12.6787 11.2995 12.3345 11.1923C12.0645 11.1083 11.7705 11.1825 11.5702 11.382L9.9075 13.035C8.7585 12.4297 7.83825 11.7248 7.059 10.941C6.27525 10.1618 5.57025 9.2415 4.965 8.0925L6.618 6.429C6.8175 6.22875 6.89175 5.93475 6.80775 5.66475C6.70125 5.32125 6.561 4.83225 6.48975 4.42575C6.423 4.05 6.396 3.45525 6.384 2.98275C6.37425 2.574 6.04125 2.25 5.6325 2.25H3C2.6715 2.25 2.25 2.496 2.25 3C2.25 6.40425 3.63 9.6555 5.9745 12.0255C8.3445 14.37 11.5957 15.75 15 15.75C15.504 15.75 15.75 15.3285 15.75 15V12.3675C15.75 11.9587 15.426 11.6257 15.0173 11.616Z" fill="#FF0000"/>
</svg>
