<svg width="18" height="24" viewBox="0 0 18 24" fill="none" xmlns="http://www.w3.org/2000/svg">
<path d="M15.0173 14.616C14.5448 14.6047 13.95 14.577 13.5743 14.511C13.1678 14.439 12.6787 14.2995 12.3345 14.1923C12.0645 14.1083 11.7705 14.1825 11.5702 14.382L9.9075 16.035C8.7585 15.4297 7.83825 14.7248 7.059 13.941C6.27525 13.1618 5.57025 12.2415 4.965 11.0925L6.618 9.429C6.8175 9.22875 6.89175 8.93475 6.80775 8.66475C6.70125 8.32125 6.561 7.83225 6.48975 7.42575C6.423 7.05 6.396 6.45525 6.384 5.98275C6.37425 5.574 6.04125 5.25 5.6325 5.25H3C2.6715 5.25 2.25 5.496 2.25 6C2.25 9.40425 3.63 12.6555 5.9745 15.0255C8.3445 17.37 11.5957 18.75 15 18.75C15.504 18.75 15.75 18.3285 15.75 18V15.3675C15.75 14.9587 15.426 14.6257 15.0173 14.616Z" fill="#7A7C7E"/>
</svg>
