<svg width="18" height="18" viewBox="0 0 18 18" fill="none" xmlns="http://www.w3.org/2000/svg">
<path d="M3 2.25L1.5 3.75L2.55469 5.33203C2.83294 5.74978 3.30173 6 3.80273 6H4.18945L6.21973 8.03027L7.28027 6.96973L5.25 4.93945V4.55273C5.25 4.05173 4.99978 3.58294 4.58203 3.30469L3 2.25ZM12.75 2.25C11.0933 2.25 9.75 3.59325 9.75 5.25C9.75 5.68969 9.84956 6.10419 10.0195 6.48047L2.46973 14.0303C2.17648 14.3235 2.17648 14.7983 2.46973 15.0908L2.90918 15.5303C3.20168 15.8235 3.67648 15.8235 3.96973 15.5303L8.34668 11.1533L12.6416 15.4482C13.0436 15.8502 13.6942 15.851 14.0962 15.4482L14.6982 14.8462C15.1002 14.4449 15.1002 13.7936 14.6982 13.3916L10.4033 9.09668L11.5195 7.98047C11.8958 8.15044 12.3103 8.25 12.75 8.25C14.4067 8.25 15.75 6.90675 15.75 5.25C15.75 4.8105 15.6507 4.39528 15.4805 4.01953L13.5 6L12 4.5L13.9805 2.51953C13.6047 2.34928 13.1895 2.25 12.75 2.25Z" fill="#7A7C7E"/>
</svg>
