<svg width="18" height="24" viewBox="0 0 18 24" fill="none" xmlns="http://www.w3.org/2000/svg">
<path d="M9 5.25C8.20435 5.25 7.44129 5.56607 6.87868 6.12868C6.31607 6.69129 6 7.45435 6 8.25C6 9.04565 6.31607 9.80871 6.87868 10.3713C7.44129 10.9339 8.20435 11.25 9 11.25C9.79565 11.25 10.5587 10.9339 11.1213 10.3713C11.6839 9.80871 12 9.04565 12 8.25C12 7.45435 11.6839 6.69129 11.1213 6.12868C10.5587 5.56607 9.79565 5.25 9 5.25ZM9 13.5C6.747 13.5 2.25 14.631 2.25 16.875V18.75H15.75V16.875C15.75 14.631 11.253 13.5 9 13.5Z" fill="#7A7C7E"/>
</svg>
