<!--Scalable Vector Graphic-->
<svg width="17" height="21" viewBox="0 0 17 21" fill="none" xmlns="http://www.w3.org/2000/svg">
<path d="M8.60563 0.555542C9.18414 0.720831 9.68 0.803476 10.1759 1.13405C11.3329 1.87786 11.9114 2.95224 11.9941 4.27455C11.9941 4.60513 11.9941 4.93571 11.9941 5.26629C11.9941 5.43157 12.0767 5.51422 12.242 5.51422C12.9858 5.51422 13.7296 5.51422 14.3907 5.51422C14.9693 5.51422 15.2172 5.76215 15.2172 6.34067C15.2998 7.24976 15.3825 8.24149 15.4651 9.15058C15.5478 9.97703 15.6304 10.7208 15.7131 11.5473C15.7957 12.4564 15.8784 13.4481 15.961 14.3572C16.0436 15.1836 16.1263 15.9274 16.2089 16.7539C16.2916 17.663 16.3742 18.6547 16.4569 19.5638C16.4569 19.8944 16.4569 20.225 16.2089 20.3903C16.0436 20.4729 15.8783 20.5555 15.7131 20.5555C13.5643 20.5555 11.4155 20.5555 9.26678 20.5555C6.45686 20.5555 3.64695 20.5555 0.837029 20.5555C0.341162 20.5555 -0.0720615 20.225 0.0105831 19.6464C0.0932277 18.5721 0.175872 17.4977 0.341161 16.4233C0.423806 15.5142 0.506451 14.5225 0.589095 13.6134C0.506451 12.6217 0.589096 11.6299 0.67174 10.7208C0.754385 9.81174 0.837029 8.82 0.919674 7.91091C1.00232 7.3324 1.00232 6.75389 1.08496 6.17538C1.08496 5.76215 1.41554 5.51422 1.82876 5.51422C2.57257 5.51422 3.31637 5.51422 4.06017 5.51422C4.22546 5.51422 4.3081 5.43157 4.3081 5.26629C4.3081 4.77042 4.3081 4.35719 4.3081 3.86133C4.55604 2.20843 5.79571 0.88612 7.4486 0.555542H7.53124C7.94447 0.555542 8.27505 0.555542 8.60563 0.555542ZM8.10976 19.0679C10.1759 19.0679 12.3246 19.0679 14.3907 19.0679C14.804 19.0679 14.804 19.0679 14.804 18.6547C14.7213 17.8283 14.6387 17.0845 14.6387 16.258C14.556 15.4316 14.4734 14.6051 14.3907 13.7787C14.3081 13.0349 14.2255 12.2084 14.2255 11.4646C14.1428 10.4729 14.0602 9.56381 13.9775 8.57207C13.8949 8.0762 13.8949 7.66298 13.8949 7.16711C13.8949 7.00182 13.8122 6.91918 13.6469 6.91918C13.2337 6.91918 12.7379 6.91918 12.3246 6.91918C12.1593 6.91918 12.0767 7.00182 12.0767 7.16711C12.0767 7.49769 12.0767 7.82827 12.0767 8.15885C12.0767 8.65471 11.7461 8.98529 11.3329 8.98529C10.9197 8.98529 10.5891 8.65471 10.5891 8.15885C10.5891 7.82827 10.5891 7.49769 10.5891 7.16711C10.5891 7.00182 10.5891 7.00182 10.4238 7.00182C8.9362 7.00182 7.53124 7.00182 6.04364 7.00182C5.87835 7.00182 5.87835 7.08447 5.87835 7.16711C5.87835 7.49769 5.87835 7.82827 5.87835 8.15885C5.87835 8.65471 5.54777 8.90265 5.13455 8.90265C4.72133 8.90265 4.39075 8.57207 4.39075 8.15885C4.39075 7.82827 4.39075 7.49769 4.39075 7.16711C4.39075 7.00182 4.3081 7.00182 4.22546 7.00182C3.81224 7.00182 3.31637 7.00182 2.90314 7.00182C2.57257 7.00182 2.57257 7.00182 2.57257 7.3324C2.57257 7.66298 2.48992 8.0762 2.48992 8.40678C2.40728 9.31587 2.32463 10.3076 2.24199 11.2167C2.15934 12.0431 2.0767 12.7869 1.99405 13.6134C1.91141 14.5225 1.82876 15.5142 1.74612 16.4233C1.66348 17.2498 1.58083 17.9936 1.49819 18.82C1.49819 19.0679 1.49819 19.0679 1.74612 19.0679C3.81224 19.0679 5.961 19.0679 8.10976 19.0679ZM8.10976 5.51422C8.85356 5.51422 9.51472 5.51422 10.2585 5.51422C10.3412 5.51422 10.5064 5.51422 10.4238 5.34893C10.4238 4.93571 10.4238 4.43984 10.4238 4.02662C10.2585 2.95224 9.34943 2.04315 8.1924 2.04315C7.03538 1.9605 6.04364 2.7043 5.79571 3.86133C5.71306 4.35719 5.71306 4.85306 5.71306 5.34893C5.71306 5.51422 5.79571 5.59686 5.961 5.59686C6.7048 5.51422 7.4486 5.51422 8.10976 5.51422Z" fill="white"/>
</svg>