<svg width="93" height="48" viewBox="0 0 93 48" fill="none" xmlns="http://www.w3.org/2000/svg">
<mask id="path-1-inside-1_4450_23399" fill="white">
<path fill-rule="evenodd" clip-rule="evenodd" d="M93 0H0V48H88.5916L93 40V0Z"/>
</mask>
<path d="M0 0V-2H-2V0H0ZM93 0H95V-2H93V0ZM0 48H-2V50H0V48ZM88.5916 48V50H89.773L90.3432 48.9653L88.5916 48ZM93 40L94.7516 40.9653L95 40.5146V40H93ZM0 2H93V-2H0V2ZM2 48V0H-2V48H2ZM88.5916 46H0V50H88.5916V46ZM91.2484 39.0347L86.8399 47.0347L90.3432 48.9653L94.7516 40.9653L91.2484 39.0347ZM91 0V40H95V0H91Z" fill="#7A7C7E" mask="url(#path-1-inside-1_4450_23399)"/>
<path d="M42.2541 19.8182H40.1412L43.318 24.9091L40.1014 30H42.2293L44.4963 26.2962H44.5759L46.8429 30H48.9807L45.7939 24.9091L48.931 19.8182H46.828L44.5759 23.5469H44.4963L42.2541 19.8182ZM59.0378 24.9091C59.0378 21.6179 57.0293 19.679 54.3596 19.679C51.6848 19.679 49.6813 21.6179 49.6813 24.9091C49.6813 28.1953 51.6848 30.1392 54.3596 30.1392C57.0293 30.1392 59.0378 28.2003 59.0378 24.9091ZM57.1834 24.9091C57.1834 27.2259 56.0201 28.4837 54.3596 28.4837C52.704 28.4837 51.5357 27.2259 51.5357 24.9091C51.5357 22.5923 52.704 21.3345 54.3596 21.3345C56.0201 21.3345 57.1834 22.5923 57.1834 24.9091ZM61.4723 30L62.3125 27.4893H66.1406L66.9858 30H68.9545L65.365 19.8182H63.088L59.5035 30H61.4723ZM62.8096 26.0078L64.1867 21.9062H64.2663L65.6434 26.0078H62.8096ZM63.5355 18.8139H64.8828L66.409 16.5419H64.6491L63.5355 18.8139Z" fill="#7A7C7E"/>
<path d="M28.8066 31.9939C25.9161 31.9939 23.0256 31.9939 20.1351 31.9939C20.0853 31.9939 20.0853 31.9939 20.0355 31.9441C19.3876 31.7447 18.9889 31.2962 18.8892 30.5985C18.8394 30.1001 18.7896 29.5519 18.7397 29.0536C18.6401 28.0569 18.5902 27.0601 18.4905 26.0634C18.4407 25.2162 18.341 24.3192 18.2912 23.4719C18.1915 22.3756 18.0919 21.2293 17.9922 20.1329C17.9922 19.9834 18.042 19.9336 18.1417 19.9336C18.1915 19.9336 18.2414 19.9336 18.2912 19.9336C22.3778 19.9336 26.4643 19.9336 30.5509 19.9336C30.6007 19.9336 30.6505 19.9336 30.7004 19.9336C30.8 19.9336 30.8499 19.9834 30.8499 20.0831C30.8 20.3821 30.8 20.6313 30.8 20.9303C30.7502 21.6779 30.6505 22.3756 30.6007 23.1231C30.5509 23.8706 30.501 24.5683 30.4013 25.3159C30.3515 26.1631 30.2518 27.0601 30.202 27.9074C30.1522 28.7546 30.0525 29.6018 30.0027 30.4988C30.0027 30.748 29.903 30.9972 29.8033 31.1965C29.604 31.6451 29.2551 31.8942 28.8066 31.9939ZM24.9692 25.5152C24.9692 24.2195 24.9692 22.9238 24.9692 21.6779C24.9692 21.5782 24.9692 21.4785 24.9194 21.3788C24.8696 21.1297 24.6204 20.9801 24.3712 21.03C24.122 21.0798 23.9725 21.2792 23.9725 21.628C23.9725 24.2195 23.9725 26.811 23.9725 29.4024C23.9725 29.5021 23.9725 29.6018 24.0223 29.7014C24.0722 29.9008 24.2715 30.0503 24.4709 30.0503C24.6702 30.0503 24.8696 29.9008 24.9194 29.7014C24.9692 29.6018 24.9692 29.5021 24.9692 29.4024C24.9692 28.0569 24.9692 26.811 24.9692 25.5152ZM22.4774 29.5021C22.4276 29.0536 22.4276 28.6051 22.3778 28.1565C22.3279 27.3592 22.2781 26.5618 22.2282 25.7644C22.1286 24.5185 22.0787 23.2726 21.9791 22.0765C21.9791 21.8772 21.9791 21.6779 21.9292 21.4287C21.8794 21.1297 21.6801 20.9801 21.4309 21.03C21.1817 21.0798 20.9823 21.2792 20.9823 21.5782C20.9823 21.8274 21.0322 22.0267 21.0322 22.2759C21.1319 23.5218 21.1817 24.7677 21.2814 26.0136C21.3312 27.0103 21.381 28.007 21.4807 29.0037C21.4807 29.2031 21.4807 29.4024 21.5305 29.6516C21.5804 29.9008 21.7797 30.0503 22.0289 30.0503C22.2781 29.9506 22.4774 29.7513 22.4774 29.5021ZM27.9594 21.4785C27.9594 21.2792 27.76 21.03 27.5109 21.03C27.2617 21.03 27.0125 21.2293 27.0125 21.5283C26.9627 22.0765 26.9627 22.6746 26.9128 23.2228C26.863 23.8208 26.863 24.4687 26.8132 25.0667C26.7633 25.9139 26.7135 26.7113 26.6637 27.5585C26.6138 28.1565 26.6138 28.8044 26.564 29.4024C26.564 29.7014 26.7135 29.9506 27.0125 30.0005C27.3115 30.0503 27.5109 29.851 27.5607 29.5021C27.6105 28.8044 27.6604 28.0569 27.7102 27.3592C27.76 26.5618 27.8099 25.7146 27.8597 24.9172C27.8099 23.771 27.8597 22.6746 27.9594 21.4785Z" fill="#7A7C7E"/>
<path d="M24.47 18.9869C22.3271 18.9869 20.1841 18.9869 18.0412 18.9869C17.5428 18.9869 17.1441 18.6879 17.0445 18.2393C16.8451 17.6413 17.3435 16.9934 17.9914 16.9934C18.9382 16.9934 19.8353 16.9934 20.7822 16.9934C21.0313 16.9934 21.0313 16.9934 21.0313 16.7443C21.0313 16.3954 21.0313 16.0466 21.2307 15.7475C21.4799 15.299 21.8786 15 22.4268 15C23.7723 15 25.1677 15 26.5133 15C27.2608 15 27.9087 15.6479 27.9585 16.4452C27.9585 16.5449 27.9585 16.6446 27.9585 16.7941C27.9585 16.9934 27.9585 16.9934 28.2077 16.9934C29.1048 16.9934 29.952 16.9934 30.849 16.9934C30.9487 16.9934 31.0484 16.9934 31.1979 16.9934C31.6962 17.1429 32.0451 17.5915 31.9953 18.0898C31.9454 18.5882 31.4969 18.9869 30.9985 18.9869C28.8058 18.9869 26.613 18.9869 24.47 18.9869ZM24.47 16.9934C25.1677 16.9934 25.8654 16.9934 26.5631 16.9934C27.0117 16.9934 26.9618 17.0433 26.9618 16.5948C26.9618 16.2459 26.7625 16.0466 26.4136 16.0466C25.1179 16.0466 23.872 16.0466 22.5763 16.0466C22.2274 16.0466 22.0281 16.2459 22.0281 16.5948C22.0281 16.6446 22.0281 16.6944 22.0281 16.7443C22.0281 16.9934 22.0281 16.9934 22.2772 16.9934C22.9749 16.9934 23.7225 16.9934 24.47 16.9934Z" fill="#7A7C7E"/>
</svg>
