<svg width="264" height="48" viewBox="0 0 264 48" fill="none" xmlns="http://www.w3.org/2000/svg">
<path fill-rule="evenodd" clip-rule="evenodd" d="M264 0H0V48H256L264 40V0Z" fill="#0A2D82"/>
<path d="M68.7989 29C71.9012 29 73.7406 27.081 73.7406 23.8991C73.7406 20.7273 71.9012 18.8182 68.8685 18.8182H65.3486V23.0987H63.882V24.2372H65.3486V29H68.7989ZM67.1931 27.4041V24.2372H68.6448V23.0987H67.1931V20.4141H68.7641C70.8323 20.4141 71.9111 21.5675 71.9111 23.8991C71.9111 26.2408 70.8323 27.4041 68.7094 27.4041H67.1931ZM76.7307 29L77.5709 26.4893H81.399L82.2442 29H84.2129L80.6234 18.8182H78.3464L74.7619 29H76.7307ZM78.068 25.0078L79.4451 20.9062H79.5247L80.9018 25.0078H78.068ZM80.4693 16.1932C80.4643 16.6804 80.1859 17.1129 79.4849 17.1129C78.774 17.1129 78.5055 16.6705 78.5055 16.1932H77.1682C77.1632 17.3565 78.063 18.142 79.4849 18.142C80.9167 18.142 81.8166 17.3565 81.8166 16.1932H80.4693ZM79.4899 31.7443C80.0616 31.7443 80.529 31.3068 80.529 30.7699C80.529 30.228 80.0616 29.7905 79.4899 29.7905C78.9132 29.7905 78.4459 30.228 78.4459 30.7699C78.4459 31.3068 78.9132 31.7443 79.4899 31.7443ZM83.8061 20.3643H86.9531V29H88.7826V20.3643H91.9297V18.8182H83.8061V20.3643ZM96.8284 29H103.157V27.4538H98.6728V18.8182H96.8284V29ZM106.378 29L107.219 26.4893H111.047L111.892 29H113.861L110.271 18.8182H107.994L104.41 29H106.378ZM107.716 25.0078L109.093 20.9062H109.172L110.55 25.0078H107.716ZM108.476 17.8139H109.824L108.715 15.5419H106.95L108.476 17.8139ZM115.132 18.8182V29H116.902V21.9901H116.996L119.81 28.9702H121.132L123.946 22.005H124.041V29H125.811V18.8182H123.554L120.531 26.196H120.412L117.389 18.8182H115.132ZM131.152 18.8182V29H132.922V21.9901H133.016L135.83 28.9702H137.153L139.967 22.005H140.061V29H141.831V18.8182H139.574L136.551 26.196H136.432L133.409 18.8182H131.152ZM145.077 29L145.917 26.4893H149.745L150.59 29H152.559L148.97 18.8182H146.693L143.108 29H145.077ZM146.414 25.0078L147.791 20.9062H147.871L149.248 25.0078H146.414ZM148.816 16.1932C148.811 16.6804 148.532 17.1129 147.831 17.1129C147.12 17.1129 146.852 16.6705 146.852 16.1932H145.514C145.509 17.3565 146.409 18.142 147.831 18.142C149.263 18.142 150.163 17.3565 150.163 16.1932H148.816ZM147.836 31.7443C148.408 31.7443 148.875 31.3068 148.875 30.7699C148.875 30.228 148.408 29.7905 147.836 29.7905C147.259 29.7905 146.792 30.228 146.792 30.7699C146.792 31.3068 147.259 31.7443 147.836 31.7443ZM162.067 22.2536C161.754 19.9915 160.014 18.679 157.757 18.679C155.097 18.679 153.093 20.6179 153.093 23.9091C153.093 27.1953 155.072 29.1392 157.757 29.1392C160.178 29.1392 161.784 27.5732 162.067 25.6293L160.208 25.6193C159.974 26.8125 158.999 27.4837 157.781 27.4837C156.131 27.4837 154.948 26.2457 154.948 23.9091C154.948 21.6122 156.121 20.3345 157.786 20.3345C159.024 20.3345 159.994 21.0355 160.208 22.2536H162.067ZM170.539 29C173.641 29 175.481 27.081 175.481 23.8991C175.481 20.7273 173.641 18.8182 170.609 18.8182H167.089V23.0987H165.622V24.2372H167.089V29H170.539ZM168.933 27.4041V24.2372H170.385V23.0987H168.933V20.4141H170.504C172.572 20.4141 173.651 21.5675 173.651 23.8991C173.651 26.2408 172.572 27.4041 170.449 27.4041H168.933ZM179.008 18.8182H177.163V29H179.008V18.8182ZM178.083 31.7443C178.655 31.7443 179.122 31.3068 179.122 30.7699C179.122 30.228 178.655 29.7905 178.083 29.7905C177.506 29.7905 177.039 30.228 177.039 30.7699C177.039 31.3068 177.506 31.7443 178.083 31.7443ZM189.302 18.8182H187.468V25.7585H187.378L182.586 18.8182H180.935V29H182.779V22.0646H182.864L187.662 29H189.302V18.8182ZM191.242 29H193.086V24.6747H197.804V29H199.654V18.8182H197.804V23.1286H193.086V18.8182H191.242V29Z" fill="white"/>
</svg>
