<svg width="93" height="48" viewBox="0 0 93 48" fill="none" xmlns="http://www.w3.org/2000/svg">
<mask id="path-1-inside-1_4450_23354" fill="white">
<path fill-rule="evenodd" clip-rule="evenodd" d="M93 0H0V48H88.5916L93 40V0Z"/>
</mask>
<path d="M0 0V-2H-2V0H0ZM93 0H95V-2H93V0ZM0 48H-2V50H0V48ZM88.5916 48V50H89.773L90.3432 48.9653L88.5916 48ZM93 40L94.7516 40.9653L95 40.5146V40H93ZM0 2H93V-2H0V2ZM2 48V0H-2V48H2ZM88.5916 46H0V50H88.5916V46ZM91.2484 39.0347L86.8399 47.0347L90.3432 48.9653L94.7516 40.9653L91.2484 39.0347ZM91 0V40H95V0H91Z" fill="#0A2D82" mask="url(#path-1-inside-1_4450_23354)"/>
<path d="M46.5344 22.6172H48.3093C48.2745 20.897 46.8078 19.679 44.6402 19.679C42.5024 19.679 40.8966 20.8821 40.9016 22.6818C40.9016 24.1435 41.9406 24.9837 43.6161 25.4162L44.7745 25.7145C45.8732 25.9929 46.599 26.3359 46.604 27.1264C46.599 27.9964 45.7737 28.5781 44.5706 28.5781C43.4172 28.5781 42.5223 28.0611 42.4478 26.9922H40.6331C40.7077 29.0156 42.2141 30.1541 44.5855 30.1541C47.0266 30.1541 48.4435 28.9361 48.4485 27.1413C48.4435 25.3764 46.9868 24.571 45.4556 24.2081L44.501 23.9695C43.6658 23.7706 42.761 23.4176 42.7709 22.5675C42.7759 21.8018 43.462 21.2401 44.6154 21.2401C45.7141 21.2401 46.4399 21.7521 46.5344 22.6172ZM59.3247 19.3707C59.3247 20.4545 59.1755 21.1605 58.2856 21.3743V19.8182H56.4411V26.3161C56.4411 27.5938 55.5512 28.5085 54.1542 28.5085C52.7522 28.5085 51.8673 27.5938 51.8673 26.3161V19.8182H50.0228V26.4702C50.0228 28.6577 51.6634 30.1541 54.1542 30.1541C56.635 30.1541 58.2856 28.6577 58.2856 26.4702V22.478C60.0306 22.2642 60.6222 21.1655 60.6222 19.3707H59.3247ZM54.8453 18.7443V18.2869C55.3772 18.2074 55.8992 17.924 55.8943 17.2926C55.8992 16.4673 55.0342 15.9602 53.3936 15.9602L53.3488 16.8501C53.9255 16.8501 54.368 16.9695 54.363 17.3274C54.368 17.6058 54.1045 17.7599 53.4035 17.7898L53.4731 18.7443H54.8453ZM62.1842 30L63.0244 27.4893H66.8525L67.6977 30H69.6664L66.0769 19.8182H63.7999L60.2154 30H62.1842ZM63.5215 26.0078L64.8987 21.9062H64.9782L66.3553 26.0078H63.5215Z" fill="#0A2D82"/>
<g clip-path="url(#clip0_4450_23354)">
<path d="M18.5 27.3501L17 32.0001L21.65 30.5001L18.5 27.3501Z" fill="#0A2D82"/>
<path d="M26.8731 18.954L19.5547 26.2725L22.7366 29.4544L30.0551 22.136L26.8731 18.954Z" fill="#0A2D82"/>
<path d="M31.7762 19.325L29.6762 17.225C29.3762 16.925 28.9262 16.925 28.6262 17.225L27.9512 17.9L31.1012 21.05L31.7762 20.375C32.0762 20.075 32.0762 19.625 31.7762 19.325Z" fill="#0A2D82"/>
</g>
<defs>
<clipPath id="clip0_4450_23354">
<rect width="15" height="15" fill="white" transform="translate(17 17)"/>
</clipPath>
</defs>
</svg>
