<svg width="180" height="48" viewBox="0 0 180 48" fill="none" xmlns="http://www.w3.org/2000/svg">
<path fill-rule="evenodd" clip-rule="evenodd" d="M180 0H0V48H171.468L180 40V0Z" fill="#41B67E"/>
<path d="M37.666 19.1665V24.1665H32.666V25.8332H37.666V30.8332H39.3327V25.8332H44.3327V24.1665H39.3327V19.1665H37.666Z" fill="white"/>
<path d="M53.2696 21.3643H56.4166V30H58.2462V21.3643H61.3932V19.8182H53.2696V21.3643ZM62.8892 30H64.7337V25.6747H69.4517V30H71.3012V19.8182H69.4517V24.1286H64.7337V19.8182H62.8892V30ZM73.2372 30H79.8991V28.4538H75.0817V25.6747H79.5163V24.1286H75.0817V21.3643H79.8593V19.8182H73.2372V30ZM75.544 18.9034L76.5532 17.6307L77.5625 18.9034H79.1385V18.8338L77.2592 16.6861H75.8522L73.968 18.8338V18.9034H75.544ZM81.6711 19.8182V30H83.441V22.9901H83.5354L86.3494 29.9702H87.6718L90.4857 23.005H90.5802V30H92.3501V19.8182H90.093L87.0702 27.196H86.9509L83.9282 19.8182H81.6711ZM97.6913 19.8182V30H99.4611V22.9901H99.5556L102.37 29.9702H103.692L106.506 23.005H106.6V30H108.37V19.8182H106.113L103.09 27.196H102.971L99.9484 19.8182H97.6913ZM119.024 19.2415C119.024 20.2557 118.775 20.9219 118.114 21.1058C117.274 20.1811 116.086 19.679 114.728 19.679C112.054 19.679 110.05 21.6179 110.05 24.9091C110.05 28.1953 112.054 30.1392 114.728 30.1392C117.398 30.1392 119.407 28.2003 119.407 24.9091C119.407 23.7905 119.178 22.831 118.765 22.0504C119.824 21.6776 120.327 20.6982 120.327 19.2415H119.024ZM117.552 24.9091C117.552 27.2259 116.389 28.4837 114.728 28.4837C113.073 28.4837 111.905 27.2259 111.905 24.9091C111.905 22.5923 113.073 21.3345 114.728 21.3345C116.389 21.3345 117.552 22.5923 117.552 24.9091ZM114.037 18.8139H115.385L116.911 16.5419H115.151L114.037 18.8139ZM123.294 19.8182H121.45V30H123.294V19.8182Z" fill="white"/>
</svg>
