<svg width="107" height="85" viewBox="0 0 107 85" fill="none" xmlns="http://www.w3.org/2000/svg">
<path d="M32.6 85C29.8 84.5 27.4 83.4 25.5 81.3C23.4 79 22.3 76.4 22.3 73.3C22.3 65.1 22.3 56.9 22.3 48.6C22.3 42.1 27.6 36.9 34.1 36.8C35.1 36.8 36 36.8 37 36.8C37.6 36.8 37.8 36.6 37.8 36C37.8 32.7 37.7 29.4 37.8 26.1C37.9 19.6 40.9 14.7 46.4 11.3C54 6.69996 63.5 8.29996 69.3 15C72 18.1 73.4001 21.7 73.5001 25.9C73.5001 29.2 73.5001 32.5 73.5001 35.9C73.5001 36.6 73.7 36.8 74.4 36.8C76.4 36.8 78.3 36.7 80.3 37.2C85.2001 38.6 88.9001 43.3 89.0001 48.4C89.0001 52.1 89.0001 55.9 89.0001 59.6C89.0001 61.4 87.7001 62.8 86.0001 62.7C84.2001 62.7 83.0001 61.4 83.0001 59.5C83.0001 56.1 83.0001 52.6 83.0001 49.2C83.0001 47.2 82.4001 45.4 80.7001 44.1C79.4001 43.1 77.9 42.8 76.3 42.8C62.9 42.8 49.5 42.8 36.1 42.8C35.2001 42.8 34.4 42.8 33.5 42.9C31 43.2 28.8 45.4 28.5 47.9C28.4 48.8 28.4 49.6 28.4 50.5C28.4 57.8 28.4 65 28.4 72.3C28.4 73.4 28.5 74.5 29 75.6C30.2 78.1 32.3 79 34.9 79C45.9 79 56.8 79 67.8 79C70.7001 79 73.6001 79 76.5001 79C78.5001 79 80.3001 78.3999 81.6001 76.7C82.5001 75.6 82.8 74.3 82.9 72.9C83.1 71.1 84.4001 70 86.2001 70.1C87.8 70.2 89.0001 71.5 89.0001 73.2C89.0001 78.8999 84.8 83.9 79.2001 84.9C79 84.9 78.9001 85 78.7001 85C63.3 85 47.9001 85 32.6 85ZM55.5 36.8C59.2 36.8 62.9001 36.8 66.6001 36.8C67.2001 36.8 67.5001 36.6 67.5001 36C67.5001 33 67.5001 29.9 67.5001 26.9C67.5001 26.1 67.4 25.3 67.3 24.5C66.3 18.7 60.9 14.6 54.9 15C49.6 15.3 43.8 19.6 43.9 26.9C43.9 29.9 43.9 32.9 43.9 35.9C43.9 36.6 44.1 36.8 44.8 36.8C48.3 36.8 51.9 36.8 55.5 36.8Z" fill="#0A2D82"/>
<path d="M42 60.3C42 62 40.7 63.3 39 63.3C37.3 63.3 36 62 36 60.2C36 58.5 37.4 57.2 39.1 57.2C40.7 57.3 42 58.6 42 60.3Z" fill="#0A2D82"/>
<path d="M50.2 57.2999C51.9 57.2999 53.2 58.6999 53.2 60.3999C53.2 62.0999 51.8 63.3999 50.1 63.3999C48.4 63.3999 47.1 61.9999 47.2 60.2999C47.1 58.5999 48.5 57.2999 50.2 57.2999Z" fill="#0A2D82"/>
<path d="M61.2 63.2999C59.5 63.2999 58.2 61.9999 58.2 60.2999C58.2 58.5999 59.5999 57.2999 61.2999 57.2999C62.9999 57.2999 64.3 58.6999 64.2 60.3999C64.3 62.0999 62.9 63.2999 61.2 63.2999Z" fill="#0A2D82"/>
<path d="M72.6001 57.2999C74.3001 57.2999 75.6001 58.6999 75.6001 60.3999C75.6001 62.0999 74.2001 63.3999 72.5001 63.3999C70.8001 63.3999 69.5001 61.9999 69.6001 60.2999C69.5001 58.5999 70.9001 57.2999 72.6001 57.2999Z" fill="#0A2D82"/>
<path d="M28.6 14.4L22.7 13.2L18.3 17.4L17.6 11.4L12.2 8.5L17.7 6L18.8 0L22.9 4.5L28.9 3.6L25.9 8.9L28.6 14.4Z" fill="#41B67E"/>
<path d="M103.4 29.6L96.3001 26.4001L89.6001 30.4001L90.5001 22.6L84.6001 17.5L92.3001 16L95.3001 8.80005L99.2001 15.6L107 16.3L101.7 22L103.4 29.6Z" fill="#41B67E"/>
<path d="M12 58.2182H7.77778L5.33333 62L4 57.7455L0 56.3273L3.33333 53.7273V49L6.88889 51.8364L10.8889 50.1818L9.55556 54.6727L12 58.2182Z" fill="#41B67E"/>
</svg>
