<svg width="150" height="82" viewBox="0 0 150 82" fill="none" xmlns="http://www.w3.org/2000/svg">
<path d="M142.338 45.0358C110.937 45.0358 72.0242 45.0358 40.1727 45.0358C38.5201 45.0358 33.2616 45.0358 31.6089 45.0358C24.9982 45.0358 15.2325 43.378 15.3827 52.722C15.533 59.8053 15.3827 67.0393 15.3827 74.1227C15.2325 79.8496 20.1905 81.9595 25.1485 81.5074H136.929C141.887 81.5074 148.197 82.2609 150 76.2326V50.3106C148.498 46.5429 146.244 45.0358 142.338 45.0358ZM145.342 73.2184C145.342 75.9312 144.591 76.6847 142.037 76.6847C102.523 76.6847 63.0096 76.6847 23.4958 76.6847C20.7915 76.6847 20.1905 75.9312 20.1905 73.3691C20.1905 66.5872 20.1905 59.956 20.1905 53.1741C20.1905 50.6121 20.9417 50.0092 23.3456 50.0092C43.1776 50.0092 63.1598 50.0092 82.9919 50.0092C102.674 50.0092 122.355 50.0092 142.037 50.0092C144.892 50.0092 145.493 50.6121 145.493 53.4755C145.342 60.1067 145.342 66.5872 145.342 73.2184Z" fill="#7A7C7E"/>
<path d="M91.7062 58.9011C91.7062 59.8053 91.2554 60.4082 90.5042 61.011C89.753 61.6138 88.8516 62.2167 87.9501 62.6688C87.1989 63.1209 87.1989 63.5731 87.9501 64.0252C88.8516 64.628 89.6028 65.0801 90.5042 65.683C91.7062 66.5872 92.1569 67.9436 91.4057 69.1493C90.6545 70.355 89.3023 70.5057 87.9501 69.7521C87.9501 69.7521 87.9501 69.7521 87.7999 69.7521C87.0486 69.3 86.2974 68.3957 85.5462 68.3957C84.4945 68.5465 85.2457 69.9028 84.9452 70.6564C84.4945 71.862 83.5931 72.6156 82.3911 72.4649C81.1892 72.3142 80.438 71.5606 80.2877 70.2043C79.9872 68.0943 79.9872 68.0943 78.1843 69.3C76.2312 70.5057 74.879 70.5057 73.9775 69.3C73.0761 67.9436 73.5268 66.5872 75.48 65.3816C78.3346 63.5731 78.3346 63.5731 75.48 61.6138C75.0292 61.3124 74.5785 61.011 74.278 60.7096C73.3766 59.956 73.3766 58.5997 73.9775 57.6954C74.5785 56.7911 75.7805 56.339 76.8321 56.7912C77.4331 57.0926 78.0341 57.5447 78.7853 57.9968C79.236 58.1475 79.5365 58.7504 79.9872 58.5997C80.438 58.449 80.1375 57.8461 80.1375 57.394C80.1375 57.0926 80.1375 56.7912 80.1375 56.6404C80.438 55.2841 81.3394 54.5305 82.5414 54.5305C83.7433 54.5305 84.4945 55.4348 84.9452 56.6404C85.0955 57.394 84.4945 58.449 85.396 58.5997C85.8467 58.7504 86.5979 57.8461 87.1989 57.5447C87.4994 57.2433 87.9501 57.0926 88.4008 56.9419C90.2037 56.0376 91.7062 57.0926 91.7062 58.9011Z" fill="#7A7C7E"/>
<path d="M114.092 70.2042C112.89 70.0535 112.139 69.3 111.237 68.8479C110.787 68.5464 110.486 68.0943 110.036 68.245C109.585 68.5464 109.885 68.9986 109.885 69.4507C109.885 70.5057 109.585 71.4099 108.683 72.0127C107.031 73.0677 105.228 71.862 105.078 69.7521C104.927 67.7929 104.927 67.7929 103.275 68.8479C102.824 69.1493 102.373 69.4507 101.772 69.7521C100.57 70.3549 99.3683 70.0535 98.6171 68.9986C98.0162 67.9436 98.1664 66.5872 99.2181 65.8337C100.12 65.0801 101.021 64.4773 102.073 63.8745C102.824 63.4223 102.824 62.9702 102.073 62.5181C101.171 61.9152 100.27 61.3124 99.5186 60.7096C98.3166 59.8053 98.0162 58.2982 98.7674 57.2433C99.5186 56.1883 100.871 55.8869 102.073 56.6404C102.223 56.6404 102.223 56.7911 102.223 56.7911C102.974 57.2433 103.876 58.1475 104.477 58.1475C105.528 57.9968 104.777 56.6404 104.927 55.8869C105.228 54.8319 106.129 53.9277 107.331 54.0784C108.533 54.0784 109.435 54.9826 109.735 56.339C109.885 56.9419 109.435 57.9968 110.036 58.2982C110.637 58.4489 111.238 57.6954 111.838 57.2433C112.139 57.0926 112.439 56.7911 112.74 56.6404C113.942 56.0376 115.144 56.1883 115.895 57.2433C116.646 58.2982 116.496 59.6546 115.444 60.5589C114.543 61.3124 113.641 61.9152 112.74 62.3674C111.838 62.9702 111.688 63.2716 112.74 63.8745C113.641 64.4773 114.693 65.0801 115.595 65.8337C116.496 66.5872 116.646 67.4915 116.195 68.5464C115.895 69.6014 114.994 70.0535 114.092 70.2042Z" fill="#7A7C7E"/>
<path d="M67.0664 67.7929C67.0664 69.6014 65.2635 70.6564 63.6108 69.9028C62.8596 69.4507 62.1084 68.9986 61.3572 68.5464C60.7562 68.0943 60.3055 68.0943 60.3055 68.9986C60.3055 69.3 60.3055 69.7521 60.3055 70.0535C60.1552 71.4099 59.2538 72.3142 58.0518 72.4649C56.6997 72.4649 55.7982 71.7113 55.4977 70.3549C55.3475 69.7521 55.9485 68.6971 55.047 68.3957C54.5963 68.245 53.8451 68.9986 53.2441 69.4507C53.0938 69.6014 52.7934 69.7521 52.6431 69.9028C51.2909 70.6564 50.089 70.3549 49.3378 69.3C48.5866 68.245 48.8871 66.7379 50.089 65.8337C50.9904 65.2308 51.7417 64.628 52.6431 64.0252C53.3943 63.573 53.3943 63.1209 52.6431 62.6688C51.7417 62.0659 50.8402 61.4631 50.089 60.8603C48.8871 59.956 48.5866 58.5996 49.3378 57.394C50.089 56.339 51.4412 56.0376 52.6431 56.7911C53.3943 57.2433 53.9953 57.6954 54.7465 58.1475C55.1972 58.4489 55.4977 58.2982 55.4977 57.6954C55.4977 57.2433 55.4977 56.6404 55.648 56.1883C55.9485 54.8319 56.8499 54.0784 58.0518 54.0784C59.2538 54.0784 60.1552 54.9826 60.3055 56.339C60.606 58.4489 60.606 58.4489 62.4089 57.2433C62.8596 56.9418 63.1601 56.6404 63.6108 56.4897C64.8128 55.8869 66.0147 56.339 66.6157 57.2433C67.2166 58.1475 67.2166 59.6546 66.1649 60.4081C65.2635 61.1617 64.2118 61.7645 63.3103 62.3674C62.4089 62.9702 62.5591 63.2716 63.3103 63.7237C64.2118 64.3266 64.963 64.7787 65.8645 65.3815C66.6157 66.1351 67.0664 66.8886 67.0664 67.7929Z" fill="#7A7C7E"/>
<path d="M26.6511 56.3391C27.8531 56.3391 28.6043 57.0926 29.5058 57.6955C30.8579 58.5997 30.8579 58.5997 31.0082 56.9419C31.0082 56.6405 31.0082 56.3391 31.1584 56.0377C31.4589 54.6813 32.3604 53.9278 33.7125 54.0785C34.9145 54.2292 35.6657 54.9827 35.8159 56.3391C36.1164 58.5997 36.1164 58.5997 37.9193 57.2434C39.8725 55.887 41.2247 56.0377 42.1261 57.3941C43.0276 58.7504 42.4266 59.9561 40.6237 61.3125C40.0227 61.7646 39.2715 62.2167 38.6706 62.6689C38.0696 63.121 38.0696 63.4224 38.6706 63.8745C39.572 64.4774 40.4735 65.0802 41.2247 65.6831C42.5769 66.5873 42.8773 67.9437 42.1261 69.1494C41.3749 70.355 40.0227 70.5057 38.5203 69.7522L38.3701 69.6015C37.6189 69.1494 36.8676 68.2451 36.2667 68.3958C35.3652 68.6972 35.9662 69.7522 35.8159 70.5057C35.5155 71.7114 34.614 72.465 33.4121 72.465C32.2101 72.465 31.4589 71.7114 31.0082 70.355C30.8579 69.6015 31.4589 68.5465 30.4072 68.2451C29.9565 68.0944 29.2053 68.9986 28.6043 69.3001C28.0033 69.7522 27.2521 70.2043 26.5009 70.0536C25.4492 69.9029 24.8482 69.3001 24.5478 68.3958C24.2473 67.3408 24.5478 66.4366 25.299 65.8338C26.2004 65.0802 27.2521 64.4774 28.1536 63.8745C28.9048 63.4224 28.9048 63.121 28.1536 62.6689C27.1019 62.066 26.2004 61.4632 25.1487 60.7097C24.2473 59.9561 23.9468 59.0519 24.3975 57.9969C24.8482 56.9419 25.5994 56.4898 26.6511 56.3391Z" fill="#7A7C7E"/>
<path d="M131.971 72.4649C129.868 72.4649 127.764 72.4649 125.511 72.4649C124.008 72.4649 122.957 71.4099 122.957 70.0536C122.957 68.6972 124.008 67.7929 125.511 67.6422C129.868 67.6422 134.225 67.6422 138.432 67.6422C140.084 67.6422 140.986 68.5465 140.986 70.0536C140.986 71.4099 139.934 72.3142 138.432 72.4649C136.328 72.4649 134.074 72.4649 131.971 72.4649Z" fill="#7A7C7E"/>
<path d="M15.0822 22.1281C15.9837 24.3888 15.6832 26.6494 14.4812 28.6086C14.1808 29.2115 13.73 29.8143 13.2793 30.4171C12.9788 30.7185 12.9788 31.02 13.1291 31.4721C13.4296 32.9792 12.8286 34.3356 11.3262 34.7877C9.97397 35.2398 8.77203 34.637 8.02082 33.1299C7.11936 31.3214 7.41985 29.5129 8.47155 28.0058C8.92227 27.403 9.373 26.6494 9.82373 26.0466C10.4247 25.293 10.4247 24.3888 9.97397 23.6352C9.373 22.731 8.62179 22.2788 7.57009 22.4296C5.91742 22.5803 4.86573 24.2381 5.4667 25.8959C5.91742 27.1015 5.4667 28.3072 4.56524 29.0608C3.66378 29.6636 2.46185 29.6636 1.41015 29.0608C0.658935 28.4579 0.358449 27.7044 0.208207 26.8001C-0.693248 22.8817 1.41015 18.9633 5.01597 17.4562C8.62179 16.0998 12.8286 17.6069 14.7817 21.0732C14.7817 21.3746 14.932 21.676 15.0822 22.1281Z" fill="#7A7C7E"/>
<path d="M14.331 42.1725C12.9788 42.6246 11.3261 42.0218 10.8754 40.6654C10.4247 39.309 11.0256 37.8019 12.5281 37.1991C13.8802 36.747 15.5329 37.3498 15.9836 38.7062C16.2841 40.0626 15.6832 41.5697 14.331 42.1725Z" fill="#7A7C7E"/>
<path d="M52.3424 27.2523C52.1921 28.9101 51.2907 30.2664 49.7882 31.1707C49.3375 31.4721 48.8868 31.6228 48.4361 31.9242C48.1356 32.075 47.9853 32.2257 47.9853 32.5271C47.6848 33.582 46.7834 34.1849 45.7317 34.0342C44.8302 33.8835 44.2293 33.1299 44.2293 31.9242C44.2293 30.4172 44.9805 29.5129 46.1824 28.9101C46.6331 28.6086 47.0839 28.4579 47.6848 28.1565C48.2858 27.8551 48.5863 27.403 48.5863 26.6494C48.5863 25.8959 48.1356 25.2931 47.3844 25.1423C46.3327 24.6902 45.1307 25.4438 44.9805 26.6494C44.8302 27.5537 44.2293 28.1565 43.3278 28.3072C42.5766 28.4579 41.8254 28.0058 41.3747 27.2523C41.0742 26.6494 41.2244 26.0466 41.3747 25.4438C42.1259 22.731 44.68 20.9225 47.3844 21.2239C50.0887 21.5253 52.1921 23.786 52.3424 26.6494C52.3424 26.6494 52.3424 26.9508 52.3424 27.2523Z" fill="#7A7C7E"/>
<path d="M45.4311 39.4597C44.3794 39.3089 43.6282 38.4047 43.7784 37.3497C43.9287 36.2948 44.8301 35.5412 45.8818 35.6919C46.9335 35.8426 47.6847 36.7469 47.5345 37.8019C47.3842 38.8568 46.4828 39.6104 45.4311 39.4597Z" fill="#7A7C7E"/>
<path d="M41.6751 11.88C41.2243 14.8941 39.4214 17.0041 36.7171 18.5112C35.9659 18.9633 35.0644 19.2647 34.3132 19.5661C33.8625 19.7168 33.562 20.0182 33.4117 20.4704C32.8108 22.2789 31.1581 23.3338 29.3552 22.8817C27.7025 22.4296 26.6508 20.9225 26.8011 18.9633C26.9513 16.4012 28.4537 14.8941 30.7074 13.6885C31.6088 13.2363 32.5103 12.9349 33.4117 12.4828C34.6137 12.0307 35.2146 11.1264 35.0644 9.92074C35.0644 8.56436 34.4634 7.66011 33.2615 7.05727C31.3083 6.15302 29.3552 7.20798 28.7542 9.3179C28.3035 10.9757 27.2518 11.88 25.7494 12.0307C24.3972 12.1814 23.045 11.2771 22.444 10.0714C21.9933 9.01649 22.1435 7.81081 22.5943 6.90656C24.2469 2.08388 28.9045 -0.628884 33.8625 0.12466C38.6702 1.02891 42.1258 5.39947 41.9756 10.3729C41.8253 10.825 41.6751 11.2771 41.6751 11.88Z" fill="#7A7C7E"/>
<path d="M27.8529 32.6778C26.05 32.3764 24.8481 30.5679 25.1486 28.7594C25.449 26.9509 27.252 25.7452 29.0549 26.0466C30.8578 26.3481 32.0597 28.1566 31.7592 29.9651C31.4587 31.7736 29.6558 32.9793 27.8529 32.6778Z" fill="#7A7C7E"/>
</svg>
