<svg width="24" height="20" viewBox="0 0 24 20" fill="none" xmlns="http://www.w3.org/2000/svg">
<path d="M18.0645 0C17.9355 0 17.8275 0.0966094 17.8125 0.224609L17.6953 1.23633C17.2113 1.40433 16.7735 1.66028 16.3945 1.98828L15.457 1.58203C15.339 1.53103 15.2027 1.57845 15.1387 1.68945L14.2012 3.31055C14.1372 3.42155 14.1665 3.56363 14.2695 3.64062L15.0762 4.24023C15.0282 4.48723 15 4.74 15 5C15 5.26 15.0282 5.51277 15.0762 5.75977L14.2695 6.35938C14.1665 6.43638 14.1362 6.57845 14.2012 6.68945L15.1387 8.31055C15.2027 8.42255 15.339 8.46702 15.457 8.41602L16.3945 8.01172C16.7735 8.34072 17.2113 8.59567 17.6953 8.76367L17.8125 9.77539C17.8275 9.90339 17.9355 10 18.0645 10H19.9355C20.0645 10 20.1725 9.90339 20.1875 9.77539L20.3047 8.76367C20.7887 8.59567 21.2265 8.33972 21.6055 8.01172L22.543 8.41797C22.661 8.46897 22.7973 8.42155 22.8613 8.31055L23.7988 6.68945C23.8628 6.57745 23.8335 6.43538 23.7305 6.35938L22.9238 5.75977C22.9718 5.51277 23 5.26 23 5C23 4.74 22.9718 4.48723 22.9238 4.24023L23.7305 3.64062C23.8335 3.56363 23.8638 3.42155 23.7988 3.31055L22.8613 1.68945C22.7973 1.57845 22.661 1.53103 22.543 1.58203L21.6055 1.98828C21.2265 1.66028 20.7887 1.40433 20.3047 1.23633L20.1875 0.224609C20.1725 0.0966094 20.0645 0 19.9355 0H18.0645ZM19 3C20.104 3 21 3.895 21 5C21 6.104 20.104 7 19 7C17.896 7 17 6.104 17 5C17 3.895 17.896 3 19 3ZM4 4C2.897 4 2 4.897 2 6V16C2 17.103 2.897 18 4 18H0V20H24V18H20C21.103 18 22 17.103 22 16V11.3164C21.378 11.6124 20.708 11.8189 20.002 11.9199V16H4V6H12.0801C12.0331 5.673 12 5.34 12 5C12 4.66 12.0331 4.327 12.0801 4H4Z" fill="white"/>
</svg>
