<svg width="18" height="22" viewBox="0 0 18 22" fill="none" xmlns="http://www.w3.org/2000/svg">
<path d="M6.6543 0.0019605C5.92977 0.044109 5.24875 0.623679 5.28125 1.49805C5.31625 2.43805 4.45611 3.1599 3.53711 2.9629C2.16711 2.6689 1.22506 4.3028 2.16406 5.3418C2.79506 6.0388 2.60053 7.14204 1.76953 7.58204C0.531531 8.23704 0.859094 10.0951 2.24609 10.2871C3.17809 10.4161 3.73877 11.3888 3.38477 12.2598C3.20113 12.7117 3.2661 13.1479 3.4668 13.5L0.857422 18H4.35742V18.002L5.84766 21.2695L8.98438 16.041L12.1211 21.2695L13.6113 18H17.1113L14.5195 13.5313C14.7345 13.1743 14.8065 12.7251 14.6172 12.2598C14.2632 11.3888 14.8239 10.4161 15.7559 10.2871C17.1419 10.0951 17.4685 8.23704 16.2305 7.58204C15.3995 7.14204 15.2049 6.0388 15.8359 5.3418C16.7749 4.3028 15.8319 2.6689 14.4629 2.9629C13.5429 3.1609 12.6838 2.43805 12.7188 1.49805C12.7708 0.0990542 10.9987 -0.544446 10.1387 0.560554C9.56067 1.30255 8.43833 1.30255 7.86133 0.560554C7.53883 0.146179 7.08902 -0.0233285 6.6543 0.0019605ZM11.584 4.71094L12.998 6.12305L8.5 10.6211L5.46094 7.58204L6.87305 6.16798L8.5 7.79493L11.584 4.71094ZM6.11719 13.8086C6.68739 13.7548 7.25203 14.0533 7.52734 14.584L6.05859 17.0332C5.70509 16.4186 5.07688 16 4.35742 16H4.33008L5.47266 14.0313C5.47792 14.028 5.48303 14.0267 5.48828 14.0234C5.68753 13.8984 5.90178 13.8289 6.11719 13.8086ZM11.8848 13.8086C12.09 13.828 12.2931 13.8957 12.4844 14.0098L13.6387 16H13.6113C12.8927 16 12.2638 16.4174 11.9102 17.0332L10.459 14.6152C10.7279 14.065 11.3036 13.7538 11.8848 13.8086Z" fill="white"/>
</svg>
