<svg width="24" height="24" viewBox="0 0 24 24" fill="none" xmlns="http://www.w3.org/2000/svg">
<path d="M15.7312 0C15.5385 0 15.3743 0.136963 15.3391 0.326562L15.1625 1.26719C15.1169 1.51119 14.9237 1.69335 14.6797 1.74375C14.4525 1.79095 14.2285 1.84991 14.0109 1.92031C13.7749 1.99711 13.5179 1.93644 13.3562 1.74844L12.7359 1.02344C12.6103 0.877038 12.3984 0.842263 12.2312 0.939063L11.7688 1.20625C11.6024 1.30225 11.5266 1.50434 11.5906 1.68594L11.9078 2.5875C11.9902 2.8211 11.9145 3.07503 11.7297 3.24063C11.5577 3.39503 11.395 3.55769 11.2406 3.72969C11.075 3.91449 10.8211 3.99178 10.5875 3.90937L9.68437 3.59063C9.50278 3.52663 9.30225 3.60155 9.20625 3.76875L8.9375 4.23281C8.8415 4.39921 8.87784 4.6119 9.02344 4.7375L9.10156 4.80469C10.048 4.82069 10.8576 5.49765 11.0328 6.43125L11.0812 6.68594L11.2484 6.48906C11.6156 6.06186 12.1297 5.82956 12.6609 5.80156C13.3777 4.71756 14.604 4 16 4C18.2088 4 20 5.7912 20 8C20 9.396 19.2824 10.6223 18.1984 11.3375C18.1704 11.8687 17.9381 12.3836 17.5109 12.75L17.3141 12.9172L17.5688 12.9656C18.5023 13.1408 19.1793 13.9505 19.1953 14.8969L19.2625 14.975C19.3881 15.1214 19.6 15.1577 19.7672 15.0609L20.2313 14.7922C20.3976 14.6962 20.4734 14.4957 20.4094 14.3141L20.0906 13.4109C20.0082 13.1773 20.0855 12.9234 20.2703 12.7578C20.4423 12.6034 20.605 12.4408 20.7594 12.2688C20.925 12.084 21.1789 12.0082 21.4125 12.0906L22.3141 12.4078C22.4957 12.4718 22.6978 12.3969 22.7938 12.2297L23.0609 11.7656C23.1569 11.5992 23.1222 11.3881 22.9766 11.2625L22.2516 10.6406C22.0636 10.479 22.0029 10.2219 22.0797 9.98594C22.1501 9.76834 22.2091 9.54595 22.2563 9.31875C22.3067 9.07555 22.4888 8.88234 22.7328 8.83594L23.6734 8.65781C23.863 8.62501 24 8.46155 24 8.26875V7.73125C24 7.53845 23.863 7.37426 23.6734 7.33906L22.7328 7.1625C22.4888 7.1169 22.3067 6.92369 22.2563 6.67969C22.2091 6.45249 22.1501 6.22854 22.0797 6.01094C22.0029 5.77494 22.0636 5.51785 22.2516 5.35625L22.9766 4.73594C23.123 4.61034 23.1577 4.39845 23.0609 4.23125L22.7938 3.76875C22.6978 3.60235 22.4957 3.52663 22.3141 3.59063L21.4125 3.90781C21.1789 3.99021 20.925 3.91449 20.7594 3.72969C20.605 3.55769 20.4423 3.39503 20.2703 3.24063C20.0855 3.07503 20.0082 2.8211 20.0906 2.5875L20.4094 1.68438C20.4734 1.50277 20.3985 1.30225 20.2313 1.20625L19.7672 0.9375C19.6008 0.8415 19.3881 0.877838 19.2625 1.02344L18.6422 1.74844C18.4806 1.93644 18.2235 1.99711 17.9875 1.92031C17.7699 1.84991 17.5459 1.79095 17.3188 1.74375C17.0756 1.69335 16.8823 1.50963 16.8359 1.26562L16.6594 0.325C16.6258 0.1362 16.4615 0 16.2688 0H15.7312ZM8.53125 6.4C8.33845 6.4 8.17426 6.5362 8.13906 6.725L7.99062 7.51562C7.92903 7.84443 7.66706 8.08673 7.33906 8.15312C7.06626 8.20833 6.7983 8.27846 6.5375 8.36406C6.2207 8.46806 5.87305 8.3903 5.65625 8.1375L5.13594 7.52969C5.01034 7.38409 4.79765 7.34931 4.63125 7.44531L4.16875 7.7125C4.00155 7.8085 3.92663 8.01059 3.99063 8.19219L4.25938 8.95312C4.36978 9.26832 4.26443 9.60729 4.01562 9.82969C3.81002 10.0137 3.61445 10.2085 3.43125 10.4141C3.20885 10.6629 2.86989 10.7682 2.55469 10.6578L1.79219 10.3906C1.61059 10.3266 1.41006 10.4024 1.31406 10.5688L1.04531 11.0312C0.948512 11.1984 0.98485 11.4103 1.13125 11.5359L1.73906 12.0562C1.99186 12.2731 2.06963 12.6207 1.96563 12.9375C1.88003 13.1983 1.80989 13.4663 1.75469 13.7391C1.68829 14.0671 1.44599 14.329 1.11719 14.3906L0.326562 14.5391C0.136963 14.5743 0 14.7385 0 14.9313V15.4688C0 15.6615 0.1362 15.8257 0.325 15.8609L1.11563 16.0094C1.44442 16.071 1.68673 16.3329 1.75313 16.6609C1.80833 16.9345 1.87846 17.2017 1.96406 17.4625C2.06806 17.7793 1.9903 18.1269 1.7375 18.3438L1.12969 18.8641C0.984088 18.9897 0.949313 19.2024 1.04531 19.3687L1.3125 19.8313C1.4085 19.9985 1.61059 20.0734 1.79219 20.0094L2.55313 19.7406C2.86833 19.6302 3.20729 19.7356 3.42969 19.9844C3.61369 20.19 3.80846 20.3855 4.01406 20.5688C4.26286 20.7911 4.36821 21.1301 4.25781 21.4453L3.99063 22.2078C3.92663 22.3894 4.00235 22.5899 4.16875 22.6859L4.63125 22.9547C4.79845 23.0515 5.01034 23.0152 5.13594 22.8687L5.65625 22.2609C5.87305 22.0081 6.2207 21.9304 6.5375 22.0344C6.7983 22.12 7.06626 22.1901 7.33906 22.2453C7.66706 22.3117 7.92903 22.554 7.99062 22.8828L8.13906 23.6734C8.17426 23.863 8.33845 24 8.53125 24H9.06875C9.26155 24 9.42578 23.863 9.45938 23.675L9.60781 22.8844C9.66941 22.5556 9.93138 22.3133 10.2594 22.2469C10.533 22.1917 10.8001 22.1215 11.0609 22.0359C11.3777 21.9319 11.7254 22.0097 11.9422 22.2625L12.4625 22.8703C12.5881 23.0159 12.7992 23.0523 12.9656 22.9563L13.4297 22.6875C13.5969 22.5915 13.6718 22.391 13.6078 22.2094L13.3406 21.4469C13.2302 21.1317 13.3356 20.7927 13.5844 20.5703C13.79 20.3863 13.9855 20.1915 14.1687 19.9859C14.3911 19.7371 14.7309 19.6318 15.0453 19.7422L15.8078 20.0094C15.9894 20.0734 16.1899 19.9977 16.2859 19.8313L16.5547 19.3687C16.6515 19.2015 16.6151 18.9897 16.4688 18.8641L15.8609 18.3438C15.6081 18.127 15.5304 17.7793 15.6344 17.4625C15.72 17.2017 15.7901 16.9337 15.8453 16.6609C15.9117 16.3329 16.154 16.071 16.4828 16.0094L17.2734 15.8609C17.463 15.8257 17.6 15.6615 17.6 15.4688V14.9313C17.6 14.7385 17.463 14.575 17.275 14.5406L16.4844 14.3922C16.1556 14.3306 15.9133 14.0671 15.8469 13.7391C15.7917 13.4663 15.7215 13.1983 15.6359 12.9375C15.5319 12.6207 15.6097 12.2746 15.8625 12.0578L16.4703 11.5375C16.6159 11.4119 16.6523 11.1992 16.5562 11.0328L16.2875 10.5688C16.1915 10.4016 15.991 10.3266 15.8094 10.3906L15.0469 10.6594C14.7317 10.7698 14.3927 10.6644 14.1703 10.4156C13.9863 10.21 13.7915 10.0144 13.5859 9.83125C13.3371 9.60885 13.2318 9.26989 13.3422 8.95469L13.6094 8.19219C13.6734 8.01059 13.5977 7.81006 13.4313 7.71406L12.9688 7.44531C12.8015 7.34851 12.5897 7.38485 12.4641 7.53125L11.9438 8.13906C11.7269 8.39186 11.3793 8.46963 11.0625 8.36563C10.8017 8.28003 10.5337 8.20989 10.2609 8.15469C9.93294 8.08829 9.67097 7.84599 9.60938 7.51719L9.46094 6.72656C9.42574 6.53696 9.26155 6.4 9.06875 6.4H8.53125ZM16 7.2C15.7878 7.2 15.5843 7.28429 15.4343 7.43431C15.2843 7.58434 15.2 7.78783 15.2 8C15.2 8.21217 15.2843 8.41566 15.4343 8.56569C15.5843 8.71571 15.7878 8.8 16 8.8C16.2122 8.8 16.4157 8.71571 16.5657 8.56569C16.7157 8.41566 16.8 8.21217 16.8 8C16.8 7.78783 16.7157 7.58434 16.5657 7.43431C16.4157 7.28429 16.2122 7.2 16 7.2ZM8.8 10.4C11.4512 10.4 13.6 12.5488 13.6 15.2C13.6 17.8512 11.4512 20 8.8 20C6.1488 20 4 17.8512 4 15.2C4 12.5488 6.1488 10.4 8.8 10.4ZM8.8 13.6C7.916 13.6 7.2 14.316 7.2 15.2C7.2 16.084 7.916 16.8 8.8 16.8C9.684 16.8 10.4 16.084 10.4 15.2C10.4 14.316 9.684 13.6 8.8 13.6Z" fill="white"/>
</svg>
