<svg width="210" height="248" viewBox="0 0 210 248" fill="none" xmlns="http://www.w3.org/2000/svg">
<g clip-path="url(#clip0_4456_24162)">
<path d="M79.2827 114.35C76.9186 114.764 74.5546 115.178 72.1906 115.592C72.0576 115.413 71.8606 115.447 71.6636 115.482C66.6695 115.95 61.6705 115.81 56.8757 114.518C36.4161 109.573 23.5207 96.8055 18.4383 76.4775C16.3122 67.8144 16.8333 59.1953 19.5092 50.7065C26.1067 29.2469 46.8992 14.6417 69.3333 15.7893C90.3195 16.7845 108.005 30.2357 114.646 50.1892C115.05 51.3367 115.158 52.536 115.759 53.649C116.173 56.013 116.587 58.3771 117.001 60.7411C116.821 60.8741 116.873 61.1696 116.908 61.3666C117.09 63.5681 117.174 65.7869 117.044 67.9417C116.031 88.8293 102.482 106.532 82.6267 113.156C81.5777 113.542 80.3957 113.749 79.2827 114.35ZM91.354 88.7851C92.6345 88.5609 93.5973 87.6817 93.9001 86.5119C94.1856 85.2437 93.7643 83.9977 92.6068 83.1851C89.0359 80.7648 85.1744 79.0044 80.8598 78.1356C72.8735 76.59 65.3874 77.9008 58.4015 82.0682C54.7202 84.2357 51.6866 87.2034 49.1506 90.6932C48.338 91.8507 48.3825 93.2642 49.1977 94.4412C49.9957 95.5197 51.3797 95.8865 52.7243 95.448C53.6748 95.0785 54.2435 94.2683 54.8296 93.5565C60.9335 86.0918 68.8504 83.1827 78.3609 84.1569C82.0795 84.5209 85.4607 85.8578 88.5687 87.9531C89.4947 88.6031 90.3862 89.0561 91.354 88.7851ZM40.4296 57.7029C41.016 61.052 44.257 63.3271 47.606 62.7406C50.9551 62.1542 53.3114 58.7974 52.6265 55.4656C52.04 52.1166 48.799 49.8415 45.45 50.428C42.101 51.0144 39.8431 54.3539 40.4296 57.7029ZM84.4455 56.2897C87.8118 55.8018 90.2026 52.642 89.6974 49.1773C89.2095 45.811 85.9513 43.4374 82.585 43.9253C79.2187 44.4133 76.8278 47.573 77.333 51.0378C77.821 54.4041 80.9807 56.7949 84.4455 56.2897Z" fill="#E9E9E9"/>
<path d="M91.3541 88.7853C90.3691 88.9577 89.4948 88.6032 88.6846 88.0345C85.5766 85.9391 82.1953 84.6023 78.4768 84.2382C68.9662 83.2641 61.0494 86.1732 54.9454 93.6379C54.3594 94.3496 53.8079 95.2584 52.8401 95.5294C51.5941 95.9506 50.2101 95.5838 49.3136 94.5226C48.5156 93.444 48.3726 92.0478 49.2664 90.7745C51.8025 87.2848 54.8361 84.3171 58.5174 82.1496C65.5033 77.9822 72.9894 76.6713 80.9757 78.217C85.273 78.9873 89.1345 80.7476 92.7227 83.2665C93.8802 84.079 94.3014 85.325 94.0159 86.5933C93.5974 87.6818 92.6519 88.6595 91.3541 88.7853Z" fill="#7A7C7E"/>
<path d="M40.4297 57.703C39.8432 54.354 42.1011 51.0145 45.4501 50.428C48.7991 49.8416 52.0401 52.1167 52.6266 55.4657C53.213 58.8148 50.9552 62.1542 47.6061 62.7407C44.2571 63.3271 41.0161 61.0521 40.4297 57.703Z" fill="#7A7C7E"/>
<path d="M84.4455 56.2897C81.0792 56.7777 77.821 54.4041 77.333 51.0378C76.8451 47.6715 79.2359 44.5118 82.585 43.9253C85.9513 43.4374 89.2095 45.811 89.6974 49.1772C90.1041 52.6593 87.8118 55.8018 84.4455 56.2897Z" fill="#7A7C7E"/>
</g>
<path d="M13.7085 118.801C15.0259 111.391 19.4721 108.262 26.059 107.109C57.8409 102.004 89.6228 97.5582 121.405 92.124C135.073 89.8186 148.74 87.8425 162.408 85.7018C164.384 85.3724 165.043 84.7137 165.208 82.7377C166.031 74.504 166.854 66.435 168.007 58.366C168.831 52.1085 172.289 47.6623 178.382 46.0155C186.451 43.8748 194.849 43.0514 203.247 42.0634C206.541 41.5694 209.176 43.8748 209.834 47.0036C210.658 50.7911 208.352 53.9199 204.235 54.5785C197.319 55.7313 190.238 56.7193 183.322 57.7073C181.346 58.0367 180.358 58.8601 180.193 60.8361C179.534 67.4231 178.711 74.01 178.052 80.7616C175.088 107.768 171.959 134.61 168.995 161.616C168.831 162.933 168.501 163.922 170.477 163.922C179.699 163.922 187.603 170.344 189.085 178.907C190.732 188.458 185.957 197.185 177.064 200.644C173.935 201.796 170.477 202.126 167.019 202.62C165.702 202.784 165.372 203.278 166.031 204.596C167.513 207.231 168.172 210.03 168.337 212.994C169.325 225.839 158.621 236.707 145.776 235.719C133.426 234.731 124.534 223.533 126.345 211.183C126.51 210.03 127.004 208.877 125.028 209.207C113.994 210.853 102.961 212.665 91.9282 214.311C90.6108 214.476 90.6108 214.97 91.1049 215.958C92.9163 219.252 93.7396 222.71 93.7396 226.497C93.4103 236.378 86.494 245.764 75.1316 247.081C60.311 248.893 48.9485 236.048 51.748 221.557C51.9127 220.404 51.748 219.746 50.5953 219.252C47.7958 217.77 46.6431 214.805 47.4665 212.006C48.4545 209.042 50.7599 207.889 53.7241 207.395C92.2576 201.467 130.791 195.703 169.16 189.775C170.148 189.611 170.971 189.611 171.959 189.281C175.418 188.293 177.394 185.494 176.735 181.871C176.076 178.413 173.277 176.272 169.654 176.601C168.831 176.766 168.007 176.766 167.019 176.931C129.968 182.53 92.9163 188.293 55.8648 193.892C47.4665 195.209 41.3736 191.751 38.0801 183.847C34.4573 174.79 30.8345 165.568 27.2117 156.511C22.9302 145.807 18.6487 135.104 14.3672 124.4C14.2025 122.424 13.8732 120.612 13.7085 118.801ZM139.189 102.004C137.707 102.169 137.213 102.828 137.213 104.31C137.378 111.885 137.543 119.624 137.707 127.199C137.707 128.681 138.201 129.011 139.683 128.846C146.106 127.858 152.363 126.87 158.786 125.882C160.103 125.717 160.597 124.894 160.597 123.741C161.42 115.837 162.244 107.933 163.232 100.028C163.396 98.3816 162.738 98.0523 161.256 98.3816C157.633 99.0403 153.845 99.5343 150.223 100.028C146.6 101.016 142.977 101.51 139.189 102.004ZM102.797 132.469C102.961 134.28 103.785 134.61 105.431 134.28C111.36 133.292 117.453 132.304 123.381 131.481C124.863 131.316 125.522 130.658 125.522 129.175C125.357 121.271 125.192 113.532 125.028 105.627C125.028 104.475 124.534 104.31 123.545 104.475C115.971 105.627 108.396 106.78 100.821 107.933C99.5032 108.097 99.1739 108.756 99.5032 110.073C100.162 113.861 100.656 117.648 101.315 121.601C101.644 125.223 102.303 128.846 102.797 132.469ZM87.1527 112.543C86.988 111.061 86.3293 110.403 84.8473 110.732C77.6017 111.885 70.3561 113.038 63.1104 114.026C61.793 114.19 61.4637 114.684 61.793 116.002C63.9338 123.412 66.0746 130.658 68.2153 138.068C68.5447 139.385 69.2033 139.715 70.5207 139.55C76.6136 138.562 82.7065 137.574 88.7994 136.75C90.2815 136.586 90.6108 135.927 90.4462 134.445C89.7875 130.822 89.2935 127.035 88.7994 123.412C88.1408 119.789 87.6467 116.166 87.1527 112.543ZM54.5474 142.02C55.8648 141.855 56.1942 141.361 55.7001 140.044C53.5594 132.798 51.4186 125.553 49.4426 118.142C49.1132 116.825 48.4545 116.331 46.9725 116.496C40.7149 117.484 34.4573 118.472 28.1997 119.46C26.3883 119.789 26.3883 120.448 26.8823 121.93C29.6818 128.846 32.4812 135.762 35.116 142.679C35.7747 144.325 36.5981 144.819 38.4095 144.49C40.8796 143.996 43.5143 143.667 46.1491 143.337C48.9485 142.843 51.748 142.349 54.5474 142.02ZM139.683 141.691C138.366 141.855 137.872 142.514 138.037 143.831C138.201 151.406 138.366 158.981 138.531 166.556C138.531 168.038 139.025 168.368 140.342 168.203C144.624 167.544 148.905 166.886 153.187 166.227C154.998 165.898 155.986 164.91 156.151 163.098C156.974 155.688 157.797 148.113 158.621 140.703C158.786 139.056 158.291 138.727 156.809 139.056C154.01 139.55 151.211 139.879 148.411 140.373C145.612 140.867 142.648 141.361 139.683 141.691ZM108.56 170.838C108.725 172.485 109.219 172.979 111.03 172.814C115.476 171.99 119.758 171.332 124.204 170.838C125.686 170.673 126.18 169.85 126.016 168.532C125.851 160.957 125.686 153.382 125.522 145.807C125.522 144.325 125.028 143.996 123.545 144.325C117.947 145.313 112.348 146.137 106.749 146.96C105.102 147.125 104.773 147.784 105.102 149.266C105.761 152.888 106.255 156.676 106.749 160.299C107.572 163.757 108.231 167.215 108.56 170.838ZM92.9163 150.912C92.7516 149.43 92.0929 148.772 90.6108 149.101C85.1766 150.089 79.5778 150.912 73.9789 151.571C72.4968 151.736 72.1675 152.23 72.6615 153.876C74.8022 160.957 76.943 168.203 78.9191 175.284C79.4131 176.931 80.0718 177.26 81.5538 177.095C85.8353 176.437 90.1168 175.778 94.3983 175.119C96.0451 174.955 96.5391 174.131 96.2097 172.649C95.551 169.026 95.057 165.239 94.563 161.616C94.069 158.158 93.4103 154.535 92.9163 150.912ZM65.4159 179.73C66.7332 179.565 67.0626 179.071 66.7332 177.754C64.7572 171.332 62.9458 164.745 61.1344 158.158C59.817 153.876 59.817 153.876 55.3708 154.535C51.254 155.194 47.3018 155.853 43.185 156.347C41.7029 156.511 41.0442 157.005 41.8676 158.652C44.667 165.404 47.3018 172.155 49.9366 179.071C50.5953 181.048 51.9127 181.871 53.8887 181.377C55.7001 181.048 57.6762 180.718 59.6523 180.553C61.4637 180.224 63.4398 179.895 65.4159 179.73ZM63.9338 227.156C64.5925 231.932 69.0387 235.225 73.8142 234.566C78.5897 233.908 81.8832 229.461 81.0598 224.686C80.2364 219.746 76.1196 216.617 71.1794 217.44C66.2392 218.099 63.1104 222.38 63.9338 227.156ZM138.86 215.958C139.683 220.898 143.965 224.027 148.905 223.204C153.681 222.38 156.974 217.77 156.151 213.159C155.327 208.383 150.881 205.254 146.106 206.078C141.001 206.737 138.037 210.853 138.86 215.958Z" fill="#F3F3F3"/>
<path d="M163.593 32.2851C162.792 33.6992 161.835 34.9541 160.722 36.05C158.782 37.8653 156.64 39.3476 154.357 40.6237C149.982 43.0825 145.296 44.9077 140.533 46.4955C138.35 47.1726 136.183 47.8025 133.985 48.369C133.811 48.415 133.605 48.5554 133.511 48.3652C133.418 48.1751 133.577 48.0186 133.673 47.8931C134.007 47.5327 134.389 47.1886 134.723 46.8282C136.632 44.9495 138.54 43.0708 140.449 41.1921C140.783 40.8318 141.118 40.4715 141.137 39.9508C141.141 39.4774 140.971 39.05 140.674 38.6846C139.034 36.5411 137.425 34.4609 135.785 32.3174C135.378 31.8092 135.378 31.8092 136.027 31.6092C138.573 30.9507 141.088 30.2289 143.618 29.6176C145.168 29.2512 145.62 27.9291 144.62 26.6902C142.885 24.5143 141.214 22.3074 139.543 20.1005C139.184 19.6085 139.184 19.6085 139.691 19.36C140.895 18.7698 142.068 18.1162 143.319 17.5422C143.826 17.2937 144.177 16.8862 144.371 16.3196C144.661 15.4697 144.936 14.667 145.227 13.8171C145.34 13.4865 145.499 13.33 145.831 13.2853C148.535 12.6281 151.281 12.6182 153.973 13.3813C157.343 14.3233 160.09 16.16 162.183 18.9857C164.368 22.0016 165.209 25.4013 164.628 29.1054C164.61 29.3104 164.577 29.5627 164.559 29.7677C164.158 30.6325 163.867 31.4824 163.593 32.2851Z" fill="#FF0000"/>
<path d="M135.357 11.349C135.568 12.4055 135.045 13.0354 134.323 13.658C133.188 14.6648 132.15 15.7252 131.064 16.7338C130.185 17.5504 130.246 18.6013 131.269 19.2883C133.458 20.8672 135.647 22.4461 137.886 24.0269C138.372 24.3944 138.372 24.3944 137.86 24.7251C135.561 26.1384 133.261 27.5517 130.912 28.9632C130.096 29.4325 129.869 30.1732 130.19 30.9341C130.327 31.2888 130.617 31.5491 130.909 31.7597C133.342 33.4974 135.725 35.2333 138.158 36.971C138.691 37.3902 138.691 37.3902 138.42 37.9795C137.133 40.379 135.798 42.7268 134.511 45.1263C134.297 45.5179 134.13 45.9612 134.114 46.4101C134.108 46.5597 134.153 46.7111 133.999 46.8053C133.848 46.8497 133.752 46.7463 133.606 46.641C130.979 44.7463 128.454 42.8054 125.984 40.7168C123.806 38.8386 121.68 36.9125 119.661 34.7905C116.971 31.8947 114.436 28.8548 112.772 25.2478C111.107 21.6407 111.19 18.0482 112.97 14.4683C114.75 10.8884 117.681 8.59951 121.469 7.44085C126.214 6.06779 130.68 6.83182 134.825 9.53161C135.263 9.84739 135.501 10.1558 135.381 10.7007C135.372 10.9501 135.365 11.1496 135.357 11.349Z" fill="#FF0000"/>
<defs>
<clipPath id="clip0_4456_24162">
<rect width="111.9" height="112.2" fill="white" transform="translate(0 19.3009) rotate(-9.93227)"/>
</clipPath>
</defs>
</svg>
