<svg width="250" height="242" viewBox="0 0 250 242" fill="none" xmlns="http://www.w3.org/2000/svg">
<circle cx="96.0453" cy="66.3842" r="47.081" fill="#41B67E"/>
<path d="M106.718 61.6761L93.38 75.0142L85.3762 67.0104" stroke="white" stroke-width="4" stroke-linecap="round" stroke-linejoin="round"/>
<path d="M53.7085 112.801C55.0259 105.391 59.4721 102.262 66.059 101.109C97.8409 96.0045 129.623 91.5583 161.405 86.1241C175.073 83.8187 188.74 81.8426 202.408 79.7018C204.384 79.3725 205.043 78.7138 205.208 76.7377C206.031 68.5041 206.854 60.4351 208.007 52.3661C208.831 46.1085 212.289 41.6623 218.382 40.0156C226.451 37.8749 234.849 37.0515 243.247 36.0635C246.541 35.5694 249.176 37.8749 249.834 41.0036C250.658 44.7911 248.352 47.9199 244.235 48.5786C237.319 49.7313 230.238 50.7194 223.322 51.7074C221.346 52.0367 220.358 52.8601 220.193 54.8362C219.534 61.4231 218.711 68.01 218.052 74.7616C215.088 101.768 211.959 128.61 208.995 155.616C208.831 156.934 208.501 157.922 210.477 157.922C219.699 157.922 227.603 164.344 229.085 172.907C230.732 182.458 225.957 191.186 217.064 194.644C213.935 195.796 210.477 196.126 207.019 196.62C205.702 196.784 205.372 197.278 206.031 198.596C207.513 201.231 208.172 204.03 208.337 206.994C209.325 219.839 198.621 230.707 185.776 229.719C173.426 228.731 164.534 217.533 166.345 205.183C166.51 204.03 167.004 202.877 165.028 203.207C153.994 204.853 142.961 206.665 131.928 208.312C130.611 208.476 130.611 208.97 131.105 209.958C132.916 213.252 133.74 216.71 133.74 220.497C133.41 230.378 126.494 239.764 115.132 241.081C100.311 242.893 88.9485 230.048 91.748 215.557C91.9127 214.404 91.748 213.746 90.5953 213.252C87.7958 211.77 86.6431 208.806 87.4665 206.006C88.4545 203.042 90.7599 201.889 93.7241 201.395C132.258 195.467 170.791 189.703 209.16 183.775C210.148 183.611 210.971 183.611 211.959 183.281C215.418 182.293 217.394 179.494 216.735 175.871C216.076 172.413 213.277 170.272 209.654 170.601C208.831 170.766 208.007 170.766 207.019 170.931C169.968 176.53 132.916 182.293 95.8648 187.892C87.4665 189.209 81.3736 185.751 78.0801 177.847C74.4573 168.79 70.8345 159.568 67.2117 150.511C62.9302 139.808 58.6487 129.104 54.3672 118.4C54.2025 116.424 53.8732 114.613 53.7085 112.801ZM179.189 96.0045C177.707 96.1692 177.213 96.8278 177.213 98.3099C177.378 105.885 177.543 113.624 177.707 121.199C177.707 122.682 178.201 123.011 179.683 122.846C186.106 121.858 192.363 120.87 198.786 119.882C200.103 119.717 200.597 118.894 200.597 117.741C201.42 109.837 202.244 101.933 203.232 94.0284C203.396 92.3817 202.738 92.0523 201.256 92.3817C197.633 93.0404 193.845 93.5344 190.223 94.0284C186.6 95.0164 182.977 95.5105 179.189 96.0045ZM142.797 126.469C142.961 128.28 143.785 128.61 145.431 128.28C151.36 127.292 157.453 126.304 163.381 125.481C164.863 125.316 165.522 124.658 165.522 123.176C165.357 115.271 165.192 107.532 165.028 99.6273C165.028 98.4746 164.534 98.3099 163.545 98.4746C155.971 99.6273 148.396 100.78 140.821 101.933C139.503 102.097 139.174 102.756 139.503 104.073C140.162 107.861 140.656 111.648 141.315 115.601C141.644 119.223 142.303 122.846 142.797 126.469ZM127.153 106.544C126.988 105.062 126.329 104.403 124.847 104.732C117.602 105.885 110.356 107.038 103.11 108.026C101.793 108.19 101.464 108.684 101.793 110.002C103.934 117.412 106.075 124.658 108.215 132.068C108.545 133.385 109.203 133.715 110.521 133.55C116.614 132.562 122.707 131.574 128.799 130.751C130.282 130.586 130.611 129.927 130.446 128.445C129.787 124.822 129.293 121.035 128.799 117.412C128.141 113.789 127.647 110.166 127.153 106.544ZM94.5474 136.02C95.8648 135.855 96.1942 135.361 95.7001 134.044C93.5594 126.798 91.4186 119.553 89.4426 112.142C89.1132 110.825 88.4545 110.331 86.9725 110.496C80.7149 111.484 74.4573 112.472 68.1997 113.46C66.3883 113.789 66.3883 114.448 66.8823 115.93C69.6818 122.846 72.4812 129.762 75.116 136.679C75.7747 138.325 76.5981 138.819 78.4095 138.49C80.8796 137.996 83.5143 137.667 86.1491 137.337C88.9485 136.843 91.748 136.349 94.5474 136.02ZM179.683 135.691C178.366 135.855 177.872 136.514 178.037 137.831C178.201 145.406 178.366 152.981 178.531 160.556C178.531 162.038 179.025 162.368 180.342 162.203C184.624 161.544 188.905 160.886 193.187 160.227C194.998 159.898 195.986 158.91 196.151 157.098C196.974 149.688 197.797 142.113 198.621 134.703C198.786 133.056 198.291 132.727 196.809 133.056C194.01 133.55 191.211 133.879 188.411 134.373C185.612 134.867 182.648 135.361 179.683 135.691ZM148.56 164.838C148.725 166.485 149.219 166.979 151.03 166.814C155.476 165.991 159.758 165.332 164.204 164.838C165.686 164.673 166.18 163.85 166.016 162.532C165.851 154.957 165.686 147.382 165.522 139.808C165.522 138.325 165.028 137.996 163.545 138.325C157.947 139.314 152.348 140.137 146.749 140.96C145.102 141.125 144.773 141.784 145.102 143.266C145.761 146.888 146.255 150.676 146.749 154.299C147.572 157.757 148.231 161.215 148.56 164.838ZM132.916 144.912C132.752 143.43 132.093 142.772 130.611 143.101C125.177 144.089 119.578 144.912 113.979 145.571C112.497 145.736 112.167 146.23 112.661 147.877C114.802 154.957 116.943 162.203 118.919 169.284C119.413 170.931 120.072 171.26 121.554 171.095C125.835 170.437 130.117 169.778 134.398 169.119C136.045 168.955 136.539 168.131 136.21 166.649C135.551 163.026 135.057 159.239 134.563 155.616C134.069 152.158 133.41 148.535 132.916 144.912ZM105.416 173.73C106.733 173.566 107.063 173.072 106.733 171.754C104.757 165.332 102.946 158.745 101.134 152.158C99.817 147.877 99.817 147.877 95.3708 148.535C91.254 149.194 87.3018 149.853 83.185 150.347C81.7029 150.511 81.0442 151.005 81.8676 152.652C84.667 159.404 87.3018 166.155 89.9366 173.071C90.5953 175.048 91.9127 175.871 93.8887 175.377C95.7001 175.048 97.6762 174.718 99.6523 174.554C101.464 174.224 103.44 173.895 105.416 173.73ZM103.934 221.156C104.592 225.932 109.039 229.225 113.814 228.566C118.59 227.908 121.883 223.461 121.06 218.686C120.236 213.746 116.12 210.617 111.179 211.44C106.239 212.099 103.11 216.381 103.934 221.156ZM178.86 209.958C179.683 214.898 183.965 218.027 188.905 217.204C193.681 216.381 196.974 211.77 196.151 207.159C195.327 202.383 190.881 199.255 186.106 200.078C181.001 200.737 178.037 204.853 178.86 209.958Z" fill="#E9E9E9"/>
<path d="M33.9227 104.379L21.4075 100.098L10.7038 108.167L10.8684 94.8284L0 87.2535L12.6798 83.3013L16.632 70.6215L24.3716 81.4899L37.5455 81.1606L29.6412 91.8643L33.9227 104.379Z" fill="#0A2D82"/>
<path d="M187.918 63.8931L179.19 60.929L171.78 66.3632L171.945 57.1415L164.37 51.872L173.262 49.0726L175.897 40.3449L181.331 47.9198L190.553 47.7552L184.954 55.1655L187.918 63.8931Z" fill="#0A2D82"/>
<path d="M181.989 16.3026L175.896 14.3266L170.791 18.114L170.956 11.6918L165.686 8.06898L171.779 6.09291L173.591 0L177.378 5.26954L183.8 5.10487L179.848 10.2097L181.989 16.3026Z" fill="#0A2D82"/>
</svg>
