<svg width="18" height="18" viewBox="0 0 18 18" fill="none" xmlns="http://www.w3.org/2000/svg">
<path d="M7.95829 0.666656C7.15329 0.666656 6.49996 1.31999 6.49996 2.12499C6.49996 2.66916 6.80211 3.13801 7.24377 3.38801L7.304 3.41731L10.1051 4.78775L10.6666 3.67121L8.99996 2.85578V2.54166C8.99996 1.73416 10.6666 1.49999 10.6666 1.49999V0.666656H7.95829ZM6.3551 4.00487C6.0069 3.9703 5.66704 4.11981 5.45829 4.43293C4.62496 5.3496 4.24996 6.00032 3.58329 6.83365C2.83329 7.75032 3.16695 9.16633 4.33362 9.49966L7.35283 10.5885L7.5693 10.6894L8.65165 13.917L10.2321 13.388L9.1204 10.0742L9.11064 10.0498C8.97768 9.72497 8.74722 9.453 8.45308 9.26855L8.40914 9.2425L6.0898 8.15852L7.33329 6.4414L8.49377 7.11034V7.10871C8.74874 7.25633 9.03524 7.33332 9.32711 7.33332H12.3333V5.66666H9.32874H9.32711L8.64189 5.27115C8.24459 5.02961 6.77943 4.13753 6.70178 4.1009C6.58845 4.04757 6.47117 4.0164 6.3551 4.00487ZM14 8.16666C12.1689 8.16666 10.6666 9.66891 10.6666 11.5C10.6666 13.3311 12.1689 14.8333 14 14.8333C15.831 14.8333 17.3333 13.3311 17.3333 11.5C17.3333 9.66891 15.831 8.16666 14 8.16666ZM14 9.83332C14.9303 9.83332 15.6666 10.5696 15.6666 11.5C15.6666 12.4303 14.9303 13.1667 14 13.1667C13.0696 13.1667 12.3333 12.4303 12.3333 11.5C12.3333 10.5696 13.0696 9.83332 14 9.83332ZM3.99996 10.6667C2.16888 10.6667 0.666626 12.1689 0.666626 14C0.666626 15.8311 2.16888 17.3333 3.99996 17.3333C5.83104 17.3333 7.33329 15.8311 7.33329 14C7.33329 12.1689 5.83104 10.6667 3.99996 10.6667ZM3.99996 12.3333C4.9303 12.3333 5.66663 13.0696 5.66663 14C5.66663 14.9303 4.9303 15.6667 3.99996 15.6667C3.06961 15.6667 2.33329 14.9303 2.33329 14C2.33329 13.0696 3.06961 12.3333 3.99996 12.3333Z" fill="white"/>
</svg>
