<svg width="17" height="16" viewBox="0 0 17 16" fill="none" xmlns="http://www.w3.org/2000/svg">
<path d="M2.08329 0.5L0.416626 2.16667L1.5885 3.92448C1.89767 4.38865 2.41855 4.66667 2.97522 4.66667H3.40491L5.66077 6.92253L6.83915 5.74414L4.58329 3.48828V3.05859C4.58329 2.50193 4.30527 1.98104 3.8411 1.67187L2.08329 0.5ZM12.9166 0.5C11.0758 0.5 9.58329 1.9925 9.58329 3.83333C9.58329 4.32188 9.69392 4.78243 9.88277 5.20052L1.4941 13.5892C1.16827 13.915 1.16827 14.4426 1.4941 14.7676L1.98238 15.2559C2.30738 15.5817 2.83493 15.5817 3.16077 15.2559L8.02405 10.3926L12.7962 15.1647C13.2428 15.6114 13.9657 15.6122 14.4124 15.1647L15.0813 14.4958C15.528 14.0499 15.528 13.3262 15.0813 12.8796L10.3092 8.10742L11.5494 6.86719C11.9675 7.05604 12.4281 7.16667 12.9166 7.16667C14.7575 7.16667 16.25 5.67417 16.25 3.83333C16.25 3.345 16.1396 2.88365 15.9505 2.46615L13.75 4.66667L12.0833 3L14.2838 0.799479C13.8663 0.610312 13.405 0.5 12.9166 0.5Z" fill="white"/>
</svg>
