<svg width="18" height="18" viewBox="0 0 18 18" fill="none" xmlns="http://www.w3.org/2000/svg">
<path d="M1 0C0.562 0 0 0.328 0 1C0 5.539 1.8408 9.8732 4.9668 13.0332C8.1268 16.1592 12.461 18 17 18C17.672 18 18 17.438 18 17V13.4902C18 12.9452 17.5684 12.5013 17.0234 12.4883C16.3934 12.4733 15.6006 12.4357 15.0996 12.3477C14.5576 12.2517 13.9043 12.0668 13.4453 11.9238C13.0853 11.8118 12.6947 11.9098 12.4277 12.1758L10.2109 14.3809C8.67894 13.5739 7.45111 12.6329 6.41211 11.5879C5.36711 10.5489 4.42614 9.32106 3.61914 7.78906L5.82422 5.57227C6.09022 5.30527 6.18817 4.91273 6.07617 4.55273C5.93417 4.09473 5.74734 3.44239 5.65234 2.90039C5.56334 2.39939 5.52772 1.60656 5.51172 0.976562C5.49872 0.431562 5.05477 0 4.50977 0H1ZM9 0V2C12.866 2 16 5.134 16 9H18C18 4.029 13.971 0 9 0ZM9 4V6C10.657 6 12 7.343 12 9H14C14 6.239 11.761 4 9 4Z" fill="white"/>
</svg>
