<svg width="18" height="18" viewBox="0 0 18 18" fill="none" xmlns="http://www.w3.org/2000/svg">
<path d="M9 0C6.35517 0 3.96995 1.14663 2.32031 2.97476L0 0.659856V5.53846H4.89483L3.30469 3.95373C4.70012 2.37981 6.72837 1.38462 9 1.38462C13.2133 1.38462 16.6154 4.78666 16.6154 9C16.6154 13.2133 13.2133 16.6154 9 16.6154H8.30769V18H9C13.9651 18 18 13.9651 18 9C18 4.03486 13.9651 0 9 0ZM8.32392 4.15385V5.53846H7.61539C6.47416 5.53846 5.53846 6.47416 5.53846 7.61539C5.53846 8.75661 6.47416 9.69231 7.61539 9.69231H10.3846C10.774 9.69231 11.0769 9.99519 11.0769 10.3846C11.0769 10.774 10.774 11.0769 10.3846 11.0769H5.53846V12.4615H8.32392V13.8462H9.70853V12.4615H10.3846C11.5258 12.4615 12.4615 11.5258 12.4615 10.3846C12.4615 9.24339 11.5258 8.30769 10.3846 8.30769H7.61539C7.22596 8.30769 6.92308 8.00481 6.92308 7.61539C6.92308 7.22596 7.22596 6.92308 7.61539 6.92308H11.0769V5.53846H9.70853V4.15385H8.32392ZM0.692308 8.30769C0.308293 8.30769 0 8.61599 0 9C0 9.38402 0.308293 9.69231 0.692308 9.69231C1.07632 9.69231 1.38462 9.38402 1.38462 9C1.38462 8.61599 1.07632 8.30769 0.692308 8.30769ZM1.79026 12.4615C1.67668 12.4615 1.5631 12.494 1.46034 12.5535C1.30349 12.6454 1.1845 12.7969 1.13582 12.9754C1.08714 13.1538 1.11418 13.3432 1.20613 13.5C1.39543 13.8299 1.82272 13.9435 2.15264 13.7542C2.48257 13.5595 2.59615 13.1376 2.40144 12.8077C2.27704 12.5913 2.04447 12.4561 1.79026 12.4615ZM4.8137 15.5066C4.57572 15.512 4.36478 15.6418 4.24579 15.8474C4.15385 16.0042 4.1268 16.1935 4.17548 16.372C4.22416 16.5505 4.34315 16.7019 4.5 16.7939C4.65685 16.8858 4.84615 16.9129 5.02464 16.8642C5.20313 16.8155 5.35457 16.6965 5.44652 16.5397C5.63582 16.2097 5.52224 15.7879 5.19231 15.5986C5.07873 15.5282 4.94351 15.4958 4.8137 15.5066Z" fill="white"/>
</svg>
