<svg width="16" height="19" viewBox="0 0 16 19" fill="none" xmlns="http://www.w3.org/2000/svg">
<path d="M8.26778 18.3432C6.33155 18.3432 4.33665 18.3432 2.40043 18.3432C1.40298 18.3432 0.933594 17.8698 0.933594 16.8639C0.933594 11.716 0.933594 6.56805 0.933594 1.47929C0.933594 0.473373 1.40298 0 2.40043 0C4.51268 0 6.62492 0 8.67849 0C9.03053 0 9.26523 0.118343 9.49992 0.35503C11.4361 2.36686 13.3724 4.31953 15.3673 6.27219C15.5433 6.44971 15.6606 6.68639 15.6606 6.92308C15.6606 10.2959 15.6606 13.6095 15.6606 16.9823C15.6606 17.929 15.1912 18.4024 14.2525 18.4024C12.2576 18.3432 10.2627 18.3432 8.26778 18.3432ZM13.6657 6.44971C12.1989 4.97042 10.6734 3.43195 9.20655 1.95266C9.20655 2.01183 9.20655 2.13018 9.20655 2.24852C9.20655 3.31361 9.20655 4.31953 9.20655 5.38462C9.20655 6.0355 9.67594 6.44971 10.2627 6.44971C11.4361 6.44971 12.5509 6.44971 13.6657 6.44971Z" fill="black"/>
</svg>
