<svg width="24" height="23" viewBox="0 0 24 23" fill="none" xmlns="http://www.w3.org/2000/svg">
<path d="M0 1.39937C0.199788 0.999796 0.49947 0.899902 0.899045 0.899902C1.89798 0.999796 2.99682 0.999796 4.09565 0.999796C4.49523 0.999796 4.79491 1.19958 4.8948 1.59916C5.09459 2.19852 5.29438 2.89778 5.39427 3.49714C5.49417 3.69693 5.59406 3.79683 5.79385 3.79683C11.5877 3.79683 17.2817 3.79683 23.0755 3.79683C23.1754 3.79683 23.3752 3.79683 23.4751 3.79683C23.8746 3.89672 24.0744 4.2963 23.9745 4.69587C23.6749 5.8946 23.2753 7.09333 22.9756 8.19216C22.3762 10.19 21.7769 12.1879 21.2774 14.2857C21.0776 14.8851 20.8778 14.9849 20.3784 14.9849C16.4825 14.9849 12.5866 14.9849 8.69077 14.9849C8.1913 14.9849 7.99151 15.1847 7.99151 15.5843C7.89162 15.884 8.09141 16.1837 8.49098 16.3835C8.59088 16.3835 8.79067 16.3835 8.89056 16.3835C12.6865 16.3835 16.5824 16.3835 20.3784 16.3835C20.8778 16.3835 21.1775 16.6831 21.1775 17.0827C21.1775 17.4823 20.8778 17.782 20.4783 17.8819C19.6791 17.8819 18.9798 17.8819 18.1807 17.8819C18.7801 18.0817 19.2795 18.3813 19.5792 18.8808C19.8789 19.3803 19.9788 19.8797 19.779 20.4791C19.5792 21.4781 18.5803 22.1773 17.4814 22.0774C16.5824 22.0774 15.6833 21.2783 15.5835 20.2793C15.4836 19.2804 15.983 18.2814 17.1818 17.8819C15.1839 17.8819 13.186 17.8819 11.0882 17.8819C11.6876 18.0817 12.0872 18.3813 12.3868 18.8808C12.6865 19.3803 12.7864 19.8797 12.5866 20.4791C12.3868 21.4781 11.3879 22.1773 10.2891 22.0774C9.39003 22.0774 8.49098 21.2783 8.39109 20.2793C8.2912 19.2804 8.79067 18.2814 9.98939 17.8819C9.48992 17.8819 8.99045 17.8819 8.49098 17.8819C6.99257 17.8819 5.89374 16.2836 6.593 14.8851C6.79279 14.3856 6.79279 13.986 6.69289 13.4865C5.69395 9.89036 4.59512 6.29417 3.59618 2.69799C3.59618 2.49821 3.49629 2.39831 3.2965 2.39831C2.49735 2.39831 1.6982 2.39831 0.799151 2.39831C0.399576 2.39831 0.199788 2.29842 0 1.89884C0 1.79895 0 1.59916 0 1.39937ZM14.085 5.19534C11.4878 5.19534 8.89056 5.19534 6.19342 5.19534C6.09353 5.19534 6.09353 5.19534 5.99364 5.19534C5.99364 5.19534 5.89374 5.29524 5.99364 5.29524C5.99364 5.39513 5.99364 5.49502 5.99364 5.59492C6.69289 8.19216 7.49204 10.7894 8.1913 13.3866C8.2912 13.5864 8.2912 13.5864 8.49098 13.5864C12.1871 13.5864 15.8831 13.5864 19.5792 13.5864C19.779 13.5864 19.8789 13.4865 19.8789 13.3866C20.5781 10.7894 21.3773 8.09227 22.1765 5.49502C22.2763 5.29524 22.1765 5.19534 21.9767 5.19534C19.3794 5.19534 16.7822 5.19534 14.085 5.19534ZM11.288 19.8797C11.288 19.5801 10.9883 19.1805 10.5888 19.1805C10.2891 19.1805 9.8895 19.4802 9.8895 19.8797C9.8895 20.2793 10.1892 20.579 10.5888 20.579C10.8884 20.579 11.288 20.2793 11.288 19.8797ZM17.5813 19.2804C17.2817 19.2804 16.8821 19.5801 16.8821 19.9796C16.8821 20.3792 17.1818 20.6789 17.5813 20.6789C17.9809 20.6789 18.2806 20.3792 18.2806 19.9796C18.2806 19.5801 17.9809 19.2804 17.5813 19.2804Z" fill="white"/>
</svg>
