<svg width="16" height="16" viewBox="0 0 16 16" fill="none" xmlns="http://www.w3.org/2000/svg">
<mask id="path-1-inside-1" fill="white">
<path d="M6.5 0C7.86134 1.62338e-08 9.20016 0.347395 10.3898 1.0093C11.5793 1.67121 12.5803 2.62574 13.298 3.78254C14.0157 4.93935 14.4263 6.26015 14.491 7.61996C14.5556 8.97976 14.2722 10.3336 13.6676 11.5533C13.0629 12.773 12.157 13.8182 11.0356 14.59C9.91424 15.3618 8.61442 15.8347 7.25923 15.9639C5.90403 16.0931 4.53828 15.8743 3.29125 15.3283C2.04421 14.7823 0.957136 13.927 0.132916 12.8436L0.940767 12.229C1.66041 13.175 2.60956 13.9217 3.69837 14.3985C4.78719 14.8752 5.97965 15.0662 7.1629 14.9534C8.34615 14.8406 9.48104 14.4277 10.4602 13.7539C11.4393 13.08 12.2302 12.1674 12.7582 11.1024C13.2861 10.0375 13.5335 8.85545 13.4771 7.66818C13.4206 6.4809 13.0621 5.32768 12.4355 4.31765C11.8089 3.30762 10.9349 2.47421 9.89622 1.89628C8.85757 1.31835 7.68861 1.01503 6.5 1.01503V0Z"/>
</mask>
<path d="M6.5 0C7.86134 1.62338e-08 9.20016 0.347395 10.3898 1.0093C11.5793 1.67121 12.5803 2.62574 13.298 3.78254C14.0157 4.93935 14.4263 6.26015 14.491 7.61996C14.5556 8.97976 14.2722 10.3336 13.6676 11.5533C13.0629 12.773 12.157 13.8182 11.0356 14.59C9.91424 15.3618 8.61442 15.8347 7.25923 15.9639C5.90403 16.0931 4.53828 15.8743 3.29125 15.3283C2.04421 14.7823 0.957136 13.927 0.132916 12.8436L0.940767 12.229C1.66041 13.175 2.60956 13.9217 3.69837 14.3985C4.78719 14.8752 5.97965 15.0662 7.1629 14.9534C8.34615 14.8406 9.48104 14.4277 10.4602 13.7539C11.4393 13.08 12.2302 12.1674 12.7582 11.1024C13.2861 10.0375 13.5335 8.85545 13.4771 7.66818C13.4206 6.4809 13.0621 5.32768 12.4355 4.31765C11.8089 3.30762 10.9349 2.47421 9.89622 1.89628C8.85757 1.31835 7.68861 1.01503 6.5 1.01503V0Z" stroke="#FF0000" stroke-width="4" mask="url(#path-1-inside-1)"/>
</svg>
