<svg width="17" height="21" viewBox="0 0 17 21" fill="none" xmlns="http://www.w3.org/2000/svg">
<path d="M0.0586734 10.1832C0.0586734 7.28384 0.0586734 4.38443 0.0586734 1.54419C0.0586734 0.597448 0.645408 0.00573228 1.70153 0.183247C1.81888 0.183247 1.87755 0.242419 1.87755 0.360762C1.87755 0.479105 1.87755 0.597449 1.87755 0.715792C1.87755 5.80455 1.87755 10.9525 1.87755 16.0412C1.87755 17.1655 2.52296 17.9939 3.34439 18.2898C3.69643 18.4081 3.9898 18.4673 4.34184 18.4673C6.8648 18.4673 9.44643 18.4673 11.9694 18.4673C13.3189 18.4673 14.727 18.4673 16.0765 18.4673C16.3699 18.4673 16.4872 18.5264 16.4286 18.8223C16.4286 18.9998 16.4286 19.1773 16.3699 19.3548C16.2526 19.8874 15.7832 20.2424 15.2551 20.3016C15.1378 20.3016 15.0791 20.3016 14.9617 20.3016C10.4439 20.3016 5.92602 20.3016 1.40816 20.3016C0.469388 20.3016 0 19.8282 0 18.8815C0.0586735 15.9821 0.0586734 13.0827 0.0586734 10.1832Z" fill="#FF0000"/>
</svg>
