<svg width="18" height="18" viewBox="0 0 18 18" fill="none" xmlns="http://www.w3.org/2000/svg">
<path d="M5.2832 3.37207L6.3677 5.01457Z" fill="#FF0000"/>
<path d="M5.2832 3.37207L6.3677 5.01457" stroke="#FF0000" stroke-width="1.5" stroke-linecap="round" stroke-linejoin="round"/>
<path d="M12.7154 14.6281L11.6309 12.9856" stroke="#FF0000" stroke-width="1.5" stroke-linecap="round" stroke-linejoin="round"/>
<path d="M15.6482 7.82768C16.2954 11.4989 13.8437 14.9999 10.1732 15.6472C6.50191 16.2944 3.00091 13.8434 2.35366 10.1722C1.70641 6.50093 4.15741 2.99993 7.82866 2.35268C11.4999 1.70543 15.0009 4.15643 15.6482 7.82768" stroke="#FF0000" stroke-width="1.5" stroke-linecap="round" stroke-linejoin="round"/>
<mask id="path-5-inside-1_7080_16029" fill="white">
<path d="M15.7243 8.41193C16.0491 12.1252 13.3018 15.3997 9.58857 15.7244C5.87532 16.0492 2.60082 13.3019 2.27607 9.58868C1.95132 5.87543 4.69857 2.60093 8.41182 2.27618C12.1251 1.95068 15.3996 4.69793 15.7243 8.41193"/>
</mask>
<path d="M8.41182 2.27618L8.49894 3.27238L8.49914 3.27236L8.41182 2.27618ZM14.7281 8.49906C15.0048 11.6622 12.6644 14.4516 9.50144 14.7282L9.67569 16.7206C13.9392 16.3478 17.0934 12.5881 16.7205 8.32481L14.7281 8.49906ZM9.50144 14.7282C6.33826 15.0049 3.54889 12.6645 3.27226 9.50156L1.27987 9.67581C1.65275 13.9394 5.41237 17.0935 9.67569 16.7206L9.50144 14.7282ZM3.27226 9.50156C2.99562 6.33838 5.33599 3.549 8.49894 3.27238L8.32469 1.27998C4.06114 1.65286 0.907013 5.41249 1.27987 9.67581L3.27226 9.50156ZM8.49914 3.27236C11.6621 2.9951 14.4515 5.33525 14.7281 8.49904L16.7205 8.32482C16.3477 4.06061 12.5881 0.906262 8.32449 1.28L8.49914 3.27236Z" fill="#ED1C24" mask="url(#path-5-inside-1_7080_16029)"/>
<path d="M7.6995 10.7167C7.893 11.034 8.2245 11.2522 8.62425 11.2522H9.44625C10.0275 11.2522 10.4992 10.7812 10.4992 10.1992C10.4992 9.71625 10.1708 9.29475 9.70275 9.17775L8.29725 8.82525C7.8285 8.7075 7.5 8.286 7.5 7.803C7.5 7.22175 7.971 6.75 8.553 6.75H9.375C9.77475 6.75 10.1062 6.969 10.2997 7.2855" stroke="#FF0000" stroke-width="1.5" stroke-linecap="round" stroke-linejoin="round"/>
<path d="M9 6V6.75" stroke="#FF0000" stroke-width="1.5" stroke-linecap="round" stroke-linejoin="round"/>
<path d="M9 12V11.25" stroke="#FF0000" stroke-width="1.5" stroke-linecap="round" stroke-linejoin="round"/>
</svg>
