<svg width="15" height="17" viewBox="0 0 15 17" fill="none" xmlns="http://www.w3.org/2000/svg">
<path d="M5.04868 1.16939C3.22339 1.80079 1.66306 3.21392 0.809292 4.95779C0.514891 5.55912 0.279369 6.22059 0.161609 6.88205C-0.162233 8.53572 0.0732882 10.3096 0.809292 11.843C1.30978 12.8352 1.9869 13.7072 2.84066 14.3987C3.63555 15.0602 4.57763 15.5412 5.5786 15.8118C6.81509 16.1426 8.16934 16.1426 9.43526 15.8419C10.5834 15.5713 11.6433 15.0301 12.497 14.2183C13.4097 13.3764 14.0574 12.2339 14.4107 11.0312C14.7934 9.70831 14.8228 8.29518 14.5873 6.97225C12.2321 6.97225 9.87687 6.97225 7.52165 6.97225C7.52165 7.96445 7.52165 8.95665 7.52165 9.97891C8.8759 9.97891 10.2596 9.97891 11.6138 9.97891C11.4372 10.911 10.9073 11.813 10.1124 12.3241C9.6119 12.6548 9.05254 12.8954 8.46374 12.9856C7.87493 13.0758 7.25669 13.1058 6.66789 12.9856C6.07908 12.8653 5.49028 12.5947 4.9898 12.2339C4.19491 11.6626 3.57667 10.8208 3.28227 9.88871C2.95843 8.92658 2.95843 7.87425 3.28227 6.91212C3.51779 6.25065 3.87107 5.61925 4.37155 5.10812C4.9898 4.47672 5.75524 4.02572 6.60901 3.84532C7.34501 3.69499 8.11045 3.72506 8.81702 3.93552C9.43526 4.11592 9.96519 4.44665 10.4362 4.89765C10.9073 4.41659 11.3489 3.96559 11.8199 3.48452C12.0554 3.24399 12.3204 3.00346 12.5559 2.73286C11.8494 2.07139 11.025 1.53019 10.1418 1.19946C8.49318 0.598126 6.69733 0.598126 5.04868 1.16939Z" fill="white"/>
<path d="M5.04815 1.16938C6.66737 0.598118 8.49267 0.598118 10.1119 1.22952C10.9951 1.56025 11.8194 2.10145 12.526 2.76291C12.2905 3.03351 12.0255 3.27404 11.79 3.51458C11.3189 3.99564 10.8773 4.44664 10.4063 4.92771C9.93525 4.47671 9.40532 4.14598 8.78708 3.96558C8.08051 3.75511 7.31506 3.72504 6.57905 3.87538C5.72528 4.05578 4.93039 4.50677 4.34158 5.13817C3.84109 5.64931 3.48781 6.2807 3.25229 6.94217C2.42796 6.2807 1.60363 5.64931 0.779297 4.98784C1.66251 3.21391 3.22285 1.80078 5.04815 1.16938Z" fill="#EA4333"/>
<path d="M0.160603 6.88216C0.278363 6.22069 0.513884 5.55922 0.808284 4.95789C1.63261 5.61935 2.45693 6.25076 3.28125 6.91222C2.95741 7.87436 2.95741 8.9267 3.28125 9.88883C2.45693 10.5503 1.63261 11.1817 0.808284 11.8432C0.0428427 10.3398 -0.192678 8.5659 0.160603 6.88216Z" fill="#F9B90B"/>
<path d="M7.51953 6.97217C9.87473 6.97217 12.2299 6.97217 14.5851 6.97217C14.8206 8.32517 14.7618 9.7383 14.4085 11.0312C14.0552 12.2338 13.4075 13.3764 12.4949 14.2182C11.7 13.5868 10.9051 12.9554 10.1102 12.324C10.9051 11.7828 11.4645 10.9109 11.6117 9.94877C10.2575 9.94877 8.87377 9.94877 7.51953 9.94877C7.51953 8.95657 7.51953 7.96437 7.51953 6.97217Z" fill="#4D79BF"/>
<path d="M0.808594 11.843C1.63292 11.1815 2.45724 10.5501 3.28157 9.88867C3.60541 10.8207 4.19421 11.6626 4.9891 12.2339C5.48958 12.5947 6.04894 12.8352 6.66719 12.9855C7.25599 13.1058 7.87423 13.1058 8.46304 12.9855C9.05184 12.8953 9.6112 12.6548 10.1117 12.3241C10.9066 12.9555 11.7015 13.5869 12.4963 14.2183C11.6426 15.03 10.5533 15.5712 9.43456 15.8418C8.16863 16.1425 6.84383 16.1425 5.5779 15.8118C4.57693 15.5412 3.66429 15.0601 2.83997 14.3987C1.9862 13.7372 1.27964 12.8352 0.808594 11.843Z" fill="#2FA84D"/>
</svg>
