<svg width="26" height="23" viewBox="0 0 26 23" fill="none" xmlns="http://www.w3.org/2000/svg">
<path d="M0 7.1377C0.114364 6.52273 0.209666 5.90775 0.438394 5.31087C1.35966 2.90523 3.06876 1.28339 5.73089 0.728706C8.29137 0.192111 10.4833 0.91561 12.2877 2.71833C12.472 2.90523 12.6499 3.09816 12.8087 3.30315C12.9422 3.478 13.0311 3.47197 13.1709 3.30315C13.7808 2.54348 14.5115 1.90439 15.3819 1.42206C16.7289 0.668414 18.1902 0.433277 19.7277 0.638268C21.3288 0.849289 22.7076 1.5125 23.8258 2.62186C24.9758 3.76137 25.6365 5.13602 25.8907 6.69154C26.1385 8.1928 25.9669 9.65186 25.357 11.0567C24.8042 12.3348 23.9719 13.4382 23.0125 14.4631C21.5512 16.0247 19.8802 17.3873 18.222 18.7499C16.8432 19.8833 15.4518 21.0108 14.0667 22.1322C13.406 22.6688 12.6245 22.711 11.9701 22.1684C9.28887 19.9677 6.50602 17.8636 3.98367 15.4941C2.88451 14.4631 1.887 13.3598 1.13093 12.0696C0.565465 11.1049 0.184253 10.086 0.0381211 8.98865C0.0317676 8.93439 0.0127071 8.88013 0 8.82586C0 8.26515 0 7.69841 0 7.1377ZM7.17315 2.06718C7.12232 2.07321 6.99525 2.08527 6.86818 2.0913C5.97233 2.12747 5.13366 2.36864 4.37759 2.82685C2.37622 4.03871 1.57568 5.86555 1.55026 8.03604C1.5312 9.48907 2.07125 10.7974 2.92898 11.9972C3.9519 13.4321 5.24167 14.6319 6.58862 15.7835C8.62175 17.5259 10.7248 19.184 12.796 20.8902C12.9358 21.0048 13.0184 21.0289 13.1709 20.9023C14.9562 19.4312 16.7606 17.9721 18.546 16.501C20.0327 15.271 21.4813 14.0109 22.6758 12.5036C23.8321 11.0446 24.5374 9.44687 24.4103 7.57783C24.3404 6.55287 24.0799 5.58218 23.5208 4.70192C22.428 2.98361 20.8078 2.09129 18.7048 2.07321C17.1164 2.06115 15.8267 2.72436 14.772 3.83372C14.4225 4.20753 14.1239 4.61148 13.8317 5.02749C13.622 5.32895 13.317 5.49174 12.9295 5.46762C12.5482 5.44351 12.2941 5.23852 12.0971 4.94309C11.6778 4.31605 11.1949 3.74931 10.5977 3.26095C9.62561 2.47113 8.51374 2.07924 7.17315 2.06718Z" fill="#FFFFFF"/>
</svg>
