<svg width="24" height="24" viewBox="0 0 24 24" fill="none" xmlns="http://www.w3.org/2000/svg">
<path d="M8.25 2.5C5.0795 2.5 2.5 5.0795 2.5 8.25V15.75C2.5 18.9205 5.0795 21.5 8.25 21.5H15.75C18.9205 21.5 21.5 18.9205 21.5 15.75V8.25C21.5 5.0795 18.9205 2.5 15.75 2.5H8.25ZM17 6C17.5525 6 18 6.4475 18 7C18 7.552 17.5525 8 17 8C16.4475 8 16 7.552 16 7C16 6.4475 16.4475 6 17 6ZM12 7C14.757 7 17 9.243 17 12C17 14.757 14.757 17 12 17C9.243 17 7 14.757 7 12C7 9.243 9.243 7 12 7ZM12 8.5C11.5404 8.5 11.0852 8.59053 10.6606 8.76642C10.236 8.94231 9.85013 9.20012 9.52513 9.52513C9.20012 9.85013 8.94231 10.236 8.76642 10.6606C8.59053 11.0852 8.5 11.5404 8.5 12C8.5 12.4596 8.59053 12.9148 8.76642 13.3394C8.94231 13.764 9.20012 14.1499 9.52513 14.4749C9.85013 14.7999 10.236 15.0577 10.6606 15.2336C11.0852 15.4095 11.5404 15.5 12 15.5C12.4596 15.5 12.9148 15.4095 13.3394 15.2336C13.764 15.0577 14.1499 14.7999 14.4749 14.4749C14.7999 14.1499 15.0577 13.764 15.2336 13.3394C15.4095 12.9148 15.5 12.4596 15.5 12C15.5 11.5404 15.4095 11.0852 15.2336 10.6606C15.0577 10.236 14.7999 9.85013 14.4749 9.52513C14.1499 9.20012 13.764 8.94231 13.3394 8.76642C12.9148 8.59053 12.4596 8.5 12 8.5Z" fill="#7A7C7E"/>
</svg>
