<svg width="495" height="170" viewBox="0 0 495 170" fill="none" xmlns="http://www.w3.org/2000/svg">
<path d="M66 32H494.275L428.275 154.681H0L66 32Z" fill="#474747"/>
<path d="M0.5 154.5L22.0326 12.4445L65.5 33L0.5 154.5Z" fill="#A10000"/>
<g opacity="0.3">
<mask id="mask0_6323_30119" style="mask-type:alpha" maskUnits="userSpaceOnUse" x="0" y="12" width="68" height="143">
<path d="M0.5 155L22.0326 12.4445L67.5 29.5L0.5 155Z" fill="#7D0000"/>
</mask>
<g mask="url(#mask0_6323_30119)">
<path d="M4 139.586L47.6246 20L70.5385 28.3534L22.0667 131.672L4 139.586Z" fill="url(#paint0_linear_6323_30119)"/>
</g>
</g>
<g filter="url(#filter0_d_6323_30119)">
<path d="M174.359 11.4445H22.0327L38.9166 40.083H191.243L174.359 11.4445Z" fill="#FF0F00"/>
</g>
<g filter="url(#filter1_d_6323_30119)">
<path d="M193.748 11.4445H182.43L199.314 40.083H210.632L193.748 11.4445Z" fill="#FF0F00"/>
</g>
<g filter="url(#filter2_d_6323_30119)">
<path d="M207.849 11.4445H200.938L217.822 40.083H224.733L207.849 11.4445Z" fill="#FF0F00"/>
</g>
<path d="M437.568 170L467.532 97.9945L431.398 161.818H135.721L437.568 170Z" fill="#D10000"/>
<defs>
<filter id="filter0_d_6323_30119" x="7.03271" y="0.444458" width="199.21" height="58.6385" filterUnits="userSpaceOnUse" color-interpolation-filters="sRGB">
<feFlood flood-opacity="0" result="BackgroundImageFix"/>
<feColorMatrix in="SourceAlpha" type="matrix" values="0 0 0 0 0 0 0 0 0 0 0 0 0 0 0 0 0 0 127 0" result="hardAlpha"/>
<feOffset dy="4"/>
<feGaussianBlur stdDeviation="7.5"/>
<feComposite in2="hardAlpha" operator="out"/>
<feColorMatrix type="matrix" values="0 0 0 0 0 0 0 0 0 0 0 0 0 0 0 0 0 0 0.25 0"/>
<feBlend mode="normal" in2="BackgroundImageFix" result="effect1_dropShadow_6323_30119"/>
<feBlend mode="normal" in="SourceGraphic" in2="effect1_dropShadow_6323_30119" result="shape"/>
</filter>
<filter id="filter1_d_6323_30119" x="167.43" y="0.444458" width="58.2017" height="58.6385" filterUnits="userSpaceOnUse" color-interpolation-filters="sRGB">
<feFlood flood-opacity="0" result="BackgroundImageFix"/>
<feColorMatrix in="SourceAlpha" type="matrix" values="0 0 0 0 0 0 0 0 0 0 0 0 0 0 0 0 0 0 127 0" result="hardAlpha"/>
<feOffset dy="4"/>
<feGaussianBlur stdDeviation="7.5"/>
<feComposite in2="hardAlpha" operator="out"/>
<feColorMatrix type="matrix" values="0 0 0 0 0 0 0 0 0 0 0 0 0 0 0 0 0 0 0.25 0"/>
<feBlend mode="normal" in2="BackgroundImageFix" result="effect1_dropShadow_6323_30119"/>
<feBlend mode="normal" in="SourceGraphic" in2="effect1_dropShadow_6323_30119" result="shape"/>
</filter>
<filter id="filter2_d_6323_30119" x="185.938" y="0.444458" width="53.7954" height="58.6385" filterUnits="userSpaceOnUse" color-interpolation-filters="sRGB">
<feFlood flood-opacity="0" result="BackgroundImageFix"/>
<feColorMatrix in="SourceAlpha" type="matrix" values="0 0 0 0 0 0 0 0 0 0 0 0 0 0 0 0 0 0 127 0" result="hardAlpha"/>
<feOffset dy="4"/>
<feGaussianBlur stdDeviation="7.5"/>
<feComposite in2="hardAlpha" operator="out"/>
<feColorMatrix type="matrix" values="0 0 0 0 0 0 0 0 0 0 0 0 0 0 0 0 0 0 0.25 0"/>
<feBlend mode="normal" in2="BackgroundImageFix" result="effect1_dropShadow_6323_30119"/>
<feBlend mode="normal" in="SourceGraphic" in2="effect1_dropShadow_6323_30119" result="shape"/>
</filter>
<linearGradient id="paint0_linear_6323_30119" x1="56.8783" y1="78.4739" x2="30.0126" y2="68.7626" gradientUnits="userSpaceOnUse">
<stop/>
<stop offset="1" stop-opacity="0"/>
</linearGradient>
</defs>
</svg>
