<svg width="495" height="170" viewBox="0 0 495 170" fill="none" xmlns="http://www.w3.org/2000/svg">
<path d="M66 32H494.275L428.275 154.681H0L66 32Z" fill="#474747"/>
<path d="M0.5 154.5L22.0326 12.4445L65.5 33L0.5 154.5Z" fill="#A10000"/>
<g opacity="0.3">
<mask id="mask0_6323_30132" style="mask-type:alpha" maskUnits="userSpaceOnUse" x="0" y="12" width="68" height="143">
<path d="M0.5 155L22.0326 12.4445L67.5 29.5L0.5 155Z" fill="#7D0000"/>
</mask>
<g mask="url(#mask0_6323_30132)">
<path d="M4 139.586L47.6246 20L70.5385 28.3534L22.0667 131.672L4 139.586Z" fill="url(#paint0_linear_6323_30132)"/>
</g>
</g>
<g filter="url(#filter0_d_6323_30132)">
<path d="M174.359 11.4445H22.0327L38.9166 40.083H191.243L174.359 11.4445Z" fill="#FF0F00"/>
</g>
<g filter="url(#filter1_d_6323_30132)">
<path d="M193.748 11.4445H182.43L199.314 40.083H210.632L193.748 11.4445Z" fill="#FF0F00"/>
</g>
<g filter="url(#filter2_d_6323_30132)">
<path d="M207.849 11.4445H200.938L217.822 40.083H224.733L207.849 11.4445Z" fill="#FF0F00"/>
</g>
<path d="M437.568 170L467.532 97.9945L431.398 161.818H135.721L437.568 170Z" fill="#D10000"/>
<path d="M52.4347 32V17.4545H55.0696V24.1378H55.2472L60.9219 17.4545H64.1392L58.5142 23.9815L64.1889 32H61.0213L56.6818 25.7642L55.0696 27.6676V32H52.4347ZM67.9272 25.608V32H65.3562V17.4545H67.8704V22.9446H67.9982C68.2539 22.3291 68.6493 21.8437 69.1843 21.4886C69.7241 21.1288 70.4106 20.9489 71.244 20.9489C72.0015 20.9489 72.6621 21.1075 73.2255 21.4247C73.7889 21.742 74.2246 22.206 74.5323 22.8168C74.8448 23.4276 75.0011 24.1733 75.0011 25.054V32H72.43V25.4517C72.43 24.7178 72.2406 24.1473 71.8619 23.7401C71.4878 23.3281 70.9622 23.1222 70.2852 23.1222C69.8306 23.1222 69.4234 23.2216 69.0636 23.4205C68.7085 23.6146 68.4291 23.8963 68.2255 24.2656C68.0266 24.6349 67.9272 25.0824 67.9272 25.608ZM84.0749 27.4119V21.0909H86.646V32H84.1531V30.0611H84.0394C83.7932 30.6719 83.3884 31.1714 82.8249 31.5597C82.2662 31.9479 81.5773 32.142 80.7582 32.142C80.0432 32.142 79.4111 31.9834 78.8619 31.6662C78.3174 31.3442 77.8912 30.8778 77.5835 30.267C77.2757 29.6515 77.1218 28.9081 77.1218 28.0369V21.0909H79.6928V27.6392C79.6928 28.3305 79.8822 28.8797 80.261 29.2869C80.6398 29.6941 81.137 29.8977 81.7525 29.8977C82.1313 29.8977 82.4982 29.8054 82.8533 29.6207C83.2085 29.4361 83.4996 29.1615 83.7269 28.7969C83.9589 28.4276 84.0749 27.9659 84.0749 27.4119ZM90.3878 36.0909C90.0374 36.0909 89.7131 36.0625 89.4148 36.0057C89.1212 35.9536 88.8868 35.892 88.7116 35.821L89.3082 33.8182C89.6823 33.9271 90.0161 33.9792 90.3097 33.9744C90.6032 33.9697 90.8613 33.8774 91.0838 33.6974C91.3111 33.5223 91.5028 33.2287 91.6591 32.8168L91.8793 32.2273L87.9233 21.0909H90.6506L93.1648 29.3295H93.2784L95.7997 21.0909H98.5341L94.1662 33.321C93.9626 33.8987 93.6927 34.3935 93.3565 34.8054C93.0204 35.2221 92.6084 35.5393 92.1207 35.7571C91.6378 35.9796 91.0601 36.0909 90.3878 36.0909ZM104.272 32.2131C103.178 32.2131 102.233 31.9858 101.438 31.5312C100.647 31.072 100.039 30.4233 99.6126 29.5852C99.1864 28.7424 98.9734 27.7505 98.9734 26.6094C98.9734 25.4872 99.1864 24.5024 99.6126 23.6548C100.043 22.8026 100.645 22.1397 101.417 21.6662C102.188 21.188 103.095 20.9489 104.137 20.9489C104.809 20.9489 105.444 21.0578 106.04 21.2756C106.641 21.4886 107.172 21.8201 107.631 22.2699C108.095 22.7197 108.46 23.2926 108.725 23.9886C108.99 24.6799 109.123 25.5038 109.123 26.4602V27.2486H100.181V25.5156H106.658C106.653 25.0232 106.547 24.5852 106.338 24.2017C106.13 23.8134 105.839 23.508 105.465 23.2855C105.096 23.063 104.665 22.9517 104.172 22.9517C103.647 22.9517 103.185 23.0795 102.787 23.3352C102.39 23.5862 102.079 23.9176 101.857 24.3295C101.639 24.7367 101.528 25.1842 101.523 25.6719V27.1847C101.523 27.8191 101.639 28.3636 101.871 28.8182C102.103 29.268 102.427 29.6136 102.844 29.8551C103.261 30.0919 103.748 30.2102 104.307 30.2102C104.681 30.2102 105.02 30.1581 105.323 30.054C105.626 29.9451 105.889 29.7865 106.111 29.5781C106.334 29.3698 106.502 29.1117 106.615 28.804L109.016 29.0739C108.864 29.7083 108.576 30.2623 108.15 30.7358C107.728 31.2045 107.188 31.5691 106.53 31.8295C105.872 32.0852 105.119 32.2131 104.272 32.2131ZM100.373 19.8409L103.249 17.5043H104.854L107.745 19.8409H105.607L104.066 18.5341L102.517 19.8409H100.373ZM106.985 18.4205L108.561 15.7997H110.82L108.625 18.4205H106.985ZM113.369 25.608V32H110.798V21.0909H113.255V22.9446H113.383C113.634 22.3338 114.034 21.8485 114.583 21.4886C115.137 21.1288 115.821 20.9489 116.636 20.9489C117.388 20.9489 118.044 21.1098 118.603 21.4318C119.166 21.7538 119.602 22.2202 119.91 22.831C120.222 23.4418 120.376 24.1828 120.371 25.054V32H117.8V25.4517C117.8 24.7225 117.611 24.152 117.232 23.7401C116.858 23.3281 116.34 23.1222 115.677 23.1222C115.227 23.1222 114.827 23.2216 114.477 23.4205C114.131 23.6146 113.859 23.8963 113.66 24.2656C113.466 24.6349 113.369 25.0824 113.369 25.608ZM126.946 32V21.0909H129.403V22.9446H129.531C129.759 22.3196 130.135 21.8319 130.661 21.4815C131.186 21.1264 131.813 20.9489 132.543 20.9489C133.281 20.9489 133.904 21.1288 134.411 21.4886C134.922 21.8437 135.282 22.3291 135.49 22.9446H135.604C135.845 22.3385 136.252 21.8556 136.825 21.4957C137.403 21.1312 138.087 20.9489 138.878 20.9489C139.882 20.9489 140.701 21.2661 141.335 21.9006C141.97 22.535 142.287 23.4607 142.287 24.6776V32H139.709V25.0753C139.709 24.3982 139.529 23.9034 139.169 23.5909C138.809 23.2737 138.369 23.1151 137.848 23.1151C137.228 23.1151 136.742 23.3092 136.392 23.6974C136.046 24.081 135.874 24.5805 135.874 25.196V32H133.352V24.9688C133.352 24.4053 133.182 23.9555 132.841 23.6193C132.505 23.2831 132.064 23.1151 131.52 23.1151C131.151 23.1151 130.814 23.2098 130.511 23.3991C130.208 23.5838 129.967 23.8466 129.787 24.1875C129.607 24.5237 129.517 24.9167 129.517 25.3665V32H126.946ZM147.534 32.2202C146.843 32.2202 146.221 32.0971 145.667 31.8509C145.117 31.5999 144.682 31.2306 144.36 30.7429C144.042 30.2552 143.884 29.6539 143.884 28.9389C143.884 28.3234 143.998 27.8144 144.225 27.4119C144.452 27.0095 144.762 26.6875 145.155 26.446C145.548 26.2045 145.991 26.0223 146.483 25.8991C146.98 25.7713 147.494 25.679 148.025 25.6222C148.664 25.5559 149.182 25.4967 149.58 25.4446C149.978 25.3878 150.266 25.3026 150.446 25.1889C150.631 25.0705 150.723 24.8883 150.723 24.642V24.5994C150.723 24.0644 150.565 23.6501 150.248 23.3565C149.93 23.063 149.473 22.9162 148.877 22.9162C148.247 22.9162 147.748 23.0535 147.378 23.3281C147.014 23.6027 146.767 23.9271 146.64 24.3011L144.239 23.9602C144.428 23.2973 144.741 22.7434 145.176 22.2983C145.612 21.8485 146.145 21.5123 146.775 21.2898C147.404 21.0625 148.1 20.9489 148.863 20.9489C149.388 20.9489 149.911 21.0104 150.432 21.1335C150.953 21.2566 151.429 21.4602 151.86 21.7443C152.291 22.0237 152.636 22.4048 152.897 22.8878C153.162 23.3707 153.294 23.9744 153.294 24.6989V32H150.823V30.5014H150.738C150.581 30.8045 150.361 31.0885 150.077 31.3537C149.798 31.6141 149.445 31.8248 149.019 31.9858C148.597 32.142 148.103 32.2202 147.534 32.2202ZM148.202 30.331C148.718 30.331 149.166 30.2292 149.544 30.0256C149.923 29.8172 150.214 29.5426 150.418 29.2017C150.626 28.8608 150.73 28.4891 150.73 28.0866V26.8011C150.65 26.8674 150.513 26.929 150.319 26.9858C150.129 27.0426 149.916 27.0923 149.679 27.1349C149.443 27.1776 149.208 27.2154 148.976 27.2486C148.744 27.2817 148.543 27.3101 148.373 27.3338C147.989 27.3859 147.646 27.4711 147.343 27.5895C147.04 27.7079 146.801 27.8736 146.625 28.0866C146.45 28.295 146.363 28.5649 146.363 28.8963C146.363 29.3698 146.535 29.7273 146.881 29.9688C147.227 30.2102 147.667 30.331 148.202 30.331ZM146.888 19.7628L145.333 19.7273C145.333 18.8845 145.551 18.224 145.986 17.7457C146.422 17.2675 146.959 17.0284 147.598 17.0284C147.906 17.0284 148.174 17.0805 148.401 17.1847C148.628 17.2841 148.837 17.4001 149.026 17.5327C149.22 17.6652 149.409 17.7836 149.594 17.8878C149.779 17.9872 149.982 18.0369 150.205 18.0369C150.475 18.0369 150.688 17.9351 150.844 17.7315C151.005 17.5279 151.088 17.2675 151.093 16.9503L152.62 17.0142C152.615 17.8617 152.395 18.5199 151.959 18.9886C151.524 19.4527 150.989 19.687 150.354 19.6918C150.013 19.6965 149.727 19.6468 149.495 19.5426C149.263 19.4384 149.059 19.3201 148.884 19.1875C148.713 19.0549 148.541 18.9389 148.365 18.8395C148.19 18.7353 147.984 18.6832 147.748 18.6832C147.497 18.6832 147.291 18.7827 147.13 18.9815C146.969 19.1804 146.888 19.4408 146.888 19.7628ZM155.38 32V21.0909H157.951V32H155.38ZM156.672 19.5426C156.265 19.5426 155.915 19.4077 155.621 19.1378C155.328 18.8632 155.181 18.5341 155.181 18.1506C155.181 17.7623 155.328 17.4332 155.621 17.1634C155.915 16.8887 156.265 16.7514 156.672 16.7514C157.084 16.7514 157.435 16.8887 157.723 17.1634C158.017 17.4332 158.164 17.7623 158.164 18.1506C158.164 18.5341 158.017 18.8632 157.723 19.1378C157.435 19.4077 157.084 19.5426 156.672 19.5426Z" fill="white"/>
<defs>
<filter id="filter0_d_6323_30132" x="7.03271" y="0.444458" width="199.21" height="58.6385" filterUnits="userSpaceOnUse" color-interpolation-filters="sRGB">
<feFlood flood-opacity="0" result="BackgroundImageFix"/>
<feColorMatrix in="SourceAlpha" type="matrix" values="0 0 0 0 0 0 0 0 0 0 0 0 0 0 0 0 0 0 127 0" result="hardAlpha"/>
<feOffset dy="4"/>
<feGaussianBlur stdDeviation="7.5"/>
<feComposite in2="hardAlpha" operator="out"/>
<feColorMatrix type="matrix" values="0 0 0 0 0 0 0 0 0 0 0 0 0 0 0 0 0 0 0.25 0"/>
<feBlend mode="normal" in2="BackgroundImageFix" result="effect1_dropShadow_6323_30132"/>
<feBlend mode="normal" in="SourceGraphic" in2="effect1_dropShadow_6323_30132" result="shape"/>
</filter>
<filter id="filter1_d_6323_30132" x="167.43" y="0.444458" width="58.2017" height="58.6385" filterUnits="userSpaceOnUse" color-interpolation-filters="sRGB">
<feFlood flood-opacity="0" result="BackgroundImageFix"/>
<feColorMatrix in="SourceAlpha" type="matrix" values="0 0 0 0 0 0 0 0 0 0 0 0 0 0 0 0 0 0 127 0" result="hardAlpha"/>
<feOffset dy="4"/>
<feGaussianBlur stdDeviation="7.5"/>
<feComposite in2="hardAlpha" operator="out"/>
<feColorMatrix type="matrix" values="0 0 0 0 0 0 0 0 0 0 0 0 0 0 0 0 0 0 0.25 0"/>
<feBlend mode="normal" in2="BackgroundImageFix" result="effect1_dropShadow_6323_30132"/>
<feBlend mode="normal" in="SourceGraphic" in2="effect1_dropShadow_6323_30132" result="shape"/>
</filter>
<filter id="filter2_d_6323_30132" x="185.938" y="0.444458" width="53.7954" height="58.6385" filterUnits="userSpaceOnUse" color-interpolation-filters="sRGB">
<feFlood flood-opacity="0" result="BackgroundImageFix"/>
<feColorMatrix in="SourceAlpha" type="matrix" values="0 0 0 0 0 0 0 0 0 0 0 0 0 0 0 0 0 0 127 0" result="hardAlpha"/>
<feOffset dy="4"/>
<feGaussianBlur stdDeviation="7.5"/>
<feComposite in2="hardAlpha" operator="out"/>
<feColorMatrix type="matrix" values="0 0 0 0 0 0 0 0 0 0 0 0 0 0 0 0 0 0 0.25 0"/>
<feBlend mode="normal" in2="BackgroundImageFix" result="effect1_dropShadow_6323_30132"/>
<feBlend mode="normal" in="SourceGraphic" in2="effect1_dropShadow_6323_30132" result="shape"/>
</filter>
<linearGradient id="paint0_linear_6323_30132" x1="56.8783" y1="78.4739" x2="30.0126" y2="68.7626" gradientUnits="userSpaceOnUse">
<stop/>
<stop offset="1" stop-opacity="0"/>
</linearGradient>
</defs>
</svg>
