<svg width="24" height="24" viewBox="0 0 24 24" fill="none" xmlns="http://www.w3.org/2000/svg">
<path d="M5.75 3C4.24011 3 3 4.24011 3 5.75V18.25C3 19.7599 4.24011 21 5.75 21H18.25C19.7599 21 21 19.7599 21 18.25V5.75C21 4.24011 19.7599 3 18.25 3H5.75ZM13.75 5.5C14.165 5.5 14.5 5.835 14.5 6.25C14.5 7.765 15.735 9 17.25 9C17.665 9 18 9.335 18 9.75C18 10.165 17.665 10.5 17.25 10.5C16.2 10.5 15.24 10.1202 14.5 9.49023V14.5C14.5 16.705 12.705 18.5 10.5 18.5C8.295 18.5 6.5 16.705 6.5 14.5C6.5 12.295 8.295 10.5 10.5 10.5C10.605 10.5 10.7096 10.5048 10.8096 10.5098C11.2246 10.5448 11.535 10.9054 11.5 11.3154C11.47 11.7304 11.1103 12.0398 10.6953 12.0098C10.6303 12.0048 10.565 12 10.5 12C9.12 12 8 13.12 8 14.5C8 15.88 9.12 17 10.5 17C11.88 17 13 15.88 13 14.5V6.25C13 5.835 13.335 5.5 13.75 5.5Z" fill="#7A7C7E"/>
</svg>
