<svg width="495" height="170" viewBox="0 0 495 170" fill="none" xmlns="http://www.w3.org/2000/svg">
<path d="M66 32H494.275L428.275 154.681H0L66 32Z" fill="#474747"/>
<path d="M0.5 154.5L22.0326 12.4445L65.5 33L0.5 154.5Z" fill="#A10000"/>
<g opacity="0.3">
<mask id="mask0_6323_30107" style="mask-type:alpha" maskUnits="userSpaceOnUse" x="0" y="12" width="68" height="143">
<path d="M0.5 155L22.0326 12.4445L67.5 29.5L0.5 155Z" fill="#7D0000"/>
</mask>
<g mask="url(#mask0_6323_30107)">
<path d="M4 139.586L47.6246 20L70.5385 28.3534L22.0667 131.672L4 139.586Z" fill="url(#paint0_linear_6323_30107)"/>
</g>
</g>
<g filter="url(#filter0_d_6323_30107)">
<path d="M174.359 11.4445H22.0327L38.9166 40.083H191.243L174.359 11.4445Z" fill="#FF0F00"/>
</g>
<g filter="url(#filter1_d_6323_30107)">
<path d="M193.748 11.4445H182.43L199.314 40.083H210.632L193.748 11.4445Z" fill="#FF0F00"/>
</g>
<g filter="url(#filter2_d_6323_30107)">
<path d="M207.849 11.4445H200.938L217.822 40.083H224.733L207.849 11.4445Z" fill="#FF0F00"/>
</g>
<path d="M437.568 170L467.532 97.9945L431.398 161.818H135.721L437.568 170Z" fill="#D10000"/>
<path d="M57.7955 19.6634H62.2912V32H64.9048V19.6634H69.4006V17.4545H57.7955V19.6634ZM72.679 32.2202C74.3906 32.2202 75.4134 31.4176 75.8821 30.5014H75.9673V32H78.4389V24.6989C78.4389 21.8153 76.0881 20.9489 74.0071 20.9489C71.7131 20.9489 69.9517 21.9716 69.3835 23.9602L71.7841 24.3011C72.0398 23.5554 72.7642 22.9162 74.0213 22.9162C75.2145 22.9162 75.8679 23.527 75.8679 24.5994V24.642C75.8679 25.3807 75.0938 25.4162 73.169 25.6222C71.0526 25.8494 69.0284 26.4815 69.0284 28.9389C69.0284 31.0838 70.598 32.2202 72.679 32.2202ZM75.527 17.3409C75.5199 18.0369 75.1222 18.6548 74.1207 18.6548C73.1051 18.6548 72.7216 18.0227 72.7216 17.3409H70.8111C70.804 19.0028 72.0895 20.125 74.1207 20.125C76.1662 20.125 77.4517 19.0028 77.4517 17.3409H75.527ZM73.3466 30.331C72.2741 30.331 71.5071 29.8409 71.5071 28.8963C71.5071 27.9091 72.3665 27.4972 73.517 27.3338C74.1918 27.2415 75.5412 27.071 75.875 26.8011V28.0866C75.875 29.3011 74.8949 30.331 73.3466 30.331ZM74.0213 35.9205C74.8381 35.9205 75.5057 35.2955 75.5057 34.5284C75.5057 33.7543 74.8381 33.1293 74.0213 33.1293C73.1974 33.1293 72.5298 33.7543 72.5298 34.5284C72.5298 35.2955 73.1974 35.9205 74.0213 35.9205ZM83.0952 25.608C83.0952 24.0312 84.0469 23.1222 85.4034 23.1222C86.7315 23.1222 87.527 23.9957 87.527 25.4517V32H90.098V25.054C90.1051 22.4403 88.6136 20.9489 86.3622 20.9489C84.7287 20.9489 83.6065 21.7301 83.1094 22.9446H82.9815V21.0909H80.5241V32H83.0952V25.608ZM96.956 36.3182C99.9034 36.3182 102.077 34.9688 102.077 32.1776V21.0909H99.5412V22.8949H99.3991C99.0085 22.1065 98.1918 20.9489 96.267 20.9489C93.7457 20.9489 91.7642 22.9233 91.7642 26.5099C91.7642 30.0682 93.7457 31.8438 96.2599 31.8438C98.1278 31.8438 99.0014 30.8423 99.3991 30.0398H99.527V32.1065C99.527 33.7116 98.4616 34.3722 96.9986 34.3722C95.4503 34.3722 94.7685 33.6406 94.456 33.0014L92.1406 33.5625C92.6094 35.0895 94.179 36.3182 96.956 36.3182ZM96.9773 29.8267C95.2798 29.8267 94.3849 28.5057 94.3849 26.4957C94.3849 24.5142 95.2656 23.0582 96.9773 23.0582C98.6321 23.0582 99.5412 24.429 99.5412 26.4957C99.5412 28.5767 98.6179 29.8267 96.9773 29.8267ZM111.244 25.608C111.244 24.0312 112.195 23.1222 113.552 23.1222C114.88 23.1222 115.675 23.9957 115.675 25.4517V32H118.246V25.054C118.254 22.4403 116.762 20.9489 114.511 20.9489C112.877 20.9489 111.755 21.7301 111.258 22.9446H111.13V21.0909H108.673V32H111.244V25.608ZM125.104 36.3182C128.052 36.3182 130.225 34.9688 130.225 32.1776V21.0909H127.69V22.8949H127.548C127.157 22.1065 126.34 20.9489 124.415 20.9489C121.894 20.9489 119.913 22.9233 119.913 26.5099C119.913 30.0682 121.894 31.8438 124.408 31.8438C126.276 31.8438 127.15 30.8423 127.548 30.0398H127.675V32.1065C127.675 33.7116 126.61 34.3722 125.147 34.3722C123.599 34.3722 122.917 33.6406 122.604 33.0014L120.289 33.5625C120.758 35.0895 122.327 36.3182 125.104 36.3182ZM125.126 29.8267C123.428 29.8267 122.533 28.5057 122.533 26.4957C122.533 24.5142 123.414 23.0582 125.126 23.0582C126.781 23.0582 127.69 24.429 127.69 26.4957C127.69 28.5767 126.766 29.8267 125.126 29.8267ZM135.499 32.2202C137.211 32.2202 138.234 31.4176 138.702 30.5014H138.788V32H141.259V24.6989C141.259 21.8153 138.908 20.9489 136.827 20.9489C134.533 20.9489 132.772 21.9716 132.204 23.9602L134.604 24.3011C134.86 23.5554 135.585 22.9162 136.842 22.9162C138.035 22.9162 138.688 23.527 138.688 24.5994V24.642C138.688 25.3807 137.914 25.4162 135.989 25.6222C133.873 25.8494 131.849 26.4815 131.849 28.9389C131.849 31.0838 133.418 32.2202 135.499 32.2202ZM136.167 30.331C135.094 30.331 134.327 29.8409 134.327 28.8963C134.327 27.9091 135.187 27.4972 136.337 27.3338C137.012 27.2415 138.362 27.071 138.695 26.8011V28.0866C138.695 29.3011 137.715 30.331 136.167 30.331ZM144.552 36.0909C146.555 36.0909 147.712 35.0611 148.33 33.321L152.712 21.1051L149.964 21.0909L147.442 29.3295H147.329L144.815 21.0909H142.087L146.043 32.2273L145.823 32.8168C145.347 34.0597 144.594 34.1449 143.472 33.8182L142.876 35.821C143.224 35.9631 143.849 36.0909 144.552 36.0909Z" fill="white"/>
<defs>
<filter id="filter0_d_6323_30107" x="7.03271" y="0.444458" width="199.21" height="58.6385" filterUnits="userSpaceOnUse" color-interpolation-filters="sRGB">
<feFlood flood-opacity="0" result="BackgroundImageFix"/>
<feColorMatrix in="SourceAlpha" type="matrix" values="0 0 0 0 0 0 0 0 0 0 0 0 0 0 0 0 0 0 127 0" result="hardAlpha"/>
<feOffset dy="4"/>
<feGaussianBlur stdDeviation="7.5"/>
<feComposite in2="hardAlpha" operator="out"/>
<feColorMatrix type="matrix" values="0 0 0 0 0 0 0 0 0 0 0 0 0 0 0 0 0 0 0.25 0"/>
<feBlend mode="normal" in2="BackgroundImageFix" result="effect1_dropShadow_6323_30107"/>
<feBlend mode="normal" in="SourceGraphic" in2="effect1_dropShadow_6323_30107" result="shape"/>
</filter>
<filter id="filter1_d_6323_30107" x="167.43" y="0.444458" width="58.2017" height="58.6385" filterUnits="userSpaceOnUse" color-interpolation-filters="sRGB">
<feFlood flood-opacity="0" result="BackgroundImageFix"/>
<feColorMatrix in="SourceAlpha" type="matrix" values="0 0 0 0 0 0 0 0 0 0 0 0 0 0 0 0 0 0 127 0" result="hardAlpha"/>
<feOffset dy="4"/>
<feGaussianBlur stdDeviation="7.5"/>
<feComposite in2="hardAlpha" operator="out"/>
<feColorMatrix type="matrix" values="0 0 0 0 0 0 0 0 0 0 0 0 0 0 0 0 0 0 0.25 0"/>
<feBlend mode="normal" in2="BackgroundImageFix" result="effect1_dropShadow_6323_30107"/>
<feBlend mode="normal" in="SourceGraphic" in2="effect1_dropShadow_6323_30107" result="shape"/>
</filter>
<filter id="filter2_d_6323_30107" x="185.938" y="0.444458" width="53.7954" height="58.6385" filterUnits="userSpaceOnUse" color-interpolation-filters="sRGB">
<feFlood flood-opacity="0" result="BackgroundImageFix"/>
<feColorMatrix in="SourceAlpha" type="matrix" values="0 0 0 0 0 0 0 0 0 0 0 0 0 0 0 0 0 0 127 0" result="hardAlpha"/>
<feOffset dy="4"/>
<feGaussianBlur stdDeviation="7.5"/>
<feComposite in2="hardAlpha" operator="out"/>
<feColorMatrix type="matrix" values="0 0 0 0 0 0 0 0 0 0 0 0 0 0 0 0 0 0 0.25 0"/>
<feBlend mode="normal" in2="BackgroundImageFix" result="effect1_dropShadow_6323_30107"/>
<feBlend mode="normal" in="SourceGraphic" in2="effect1_dropShadow_6323_30107" result="shape"/>
</filter>
<linearGradient id="paint0_linear_6323_30107" x1="56.8783" y1="78.4739" x2="30.0126" y2="68.7626" gradientUnits="userSpaceOnUse">
<stop/>
<stop offset="1" stop-opacity="0"/>
</linearGradient>
</defs>
</svg>
