<svg width="24" height="24" viewBox="0 0 24 24" fill="none" xmlns="http://www.w3.org/2000/svg">
<path d="M4 3L2 5L3.40625 7.10938C3.77725 7.66638 4.40231 8 5.07031 8H5.58594L8.29297 10.707L9.70703 9.29297L7 6.58594V6.07031C7 5.40231 6.66638 4.77725 6.10938 4.40625L4 3ZM17 3C14.791 3 13 4.791 13 7C13 7.58625 13.1327 8.13892 13.3594 8.64062L3.29297 18.707C2.90197 19.098 2.90197 19.7311 3.29297 20.1211L3.87891 20.707C4.26891 21.098 4.90197 21.098 5.29297 20.707L11.1289 14.8711L16.8555 20.5977C17.3915 21.1337 18.2589 21.1347 18.7949 20.5977L19.5977 19.7949C20.1337 19.2599 20.1337 18.3915 19.5977 17.8555L13.8711 12.1289L15.3594 10.6406C15.8611 10.8673 16.4137 11 17 11C19.209 11 21 9.209 21 7C21 6.414 20.8676 5.86037 20.6406 5.35938L18 8L16 6L18.6406 3.35938C18.1396 3.13238 17.586 3 17 3Z" fill="white"/>
</svg>
