<svg width="100" height="41" viewBox="0 0 100 41" fill="none" xmlns="http://www.w3.org/2000/svg">
<g clip-path="url(#clip0_6833_32533)">
<path d="M74.4468 4.04846V20.5839H77.8963V13.6499H80.8869V20.5839H84.3217V4.04846H80.8869V10.6336H77.8963V4.04846H74.4468Z" fill="#ED1C24"/>
<path d="M47.8423 4.04846V20.5839H51.0031V10.0739L52.8612 20.5839H54.9561L56.8437 10.0739V20.5839H60.012V4.04846H55.3114L53.9271 12L52.5429 4.04846H47.8423Z" fill="#ED1C24"/>
<path d="M28.0109 4.04846L30.1132 11.4331L32.2081 4.04846H35.6429L31.9416 15.1545V20.5839H28.2774V15.1545L24.5762 4.04846H28.0109Z" fill="#ED1C24"/>
<path d="M42.9344 4.04846H38.3597L35.3987 20.5839H38.8112L39.3812 16.6517H41.9647L42.5347 20.5839H45.9694L42.9344 4.04846ZM40.6396 7.78438L41.4909 13.6426H39.7809L40.6396 7.78438Z" fill="#ED1C24"/>
<path d="M69.5093 4.04846H64.9419L61.981 20.5839H65.3935L65.9709 16.6517H68.547L69.1169 20.5839H72.5443L69.5093 4.04846ZM67.2219 7.78438L68.1028 13.6426H66.3632L67.2219 7.78438Z" fill="#ED1C24"/>
<path d="M93.8337 4.04846H89.2664L86.3054 20.5839H89.718L90.2879 16.6517H92.8714L93.4414 20.5839H96.8761L93.8337 4.04846ZM91.539 7.78438L92.3976 13.6426H90.6877L91.539 7.78438Z" fill="#ED1C24"/>
<path d="M2.96094 12.2907C2.96241 10.3573 3.54728 8.46773 4.64169 6.86049C5.73611 5.25325 7.29099 4.00044 9.11003 3.26025C10.9291 2.52005 12.9307 2.32566 14.8622 2.70161C16.7936 3.07757 18.5684 4.00701 19.9622 5.3726C21.3561 6.73818 22.3067 8.47866 22.6939 10.3743C23.0811 12.2699 22.8875 14.2357 22.1377 16.0234C21.3879 17.8111 20.1154 19.3406 18.481 20.4188C16.8465 21.4969 14.9233 22.0754 12.9543 22.0811C11.6427 22.085 10.3433 21.8345 9.13052 21.3441C7.91776 20.8537 6.81554 20.133 5.88709 19.2234C4.95863 18.3138 4.22222 17.2332 3.72008 16.0435C3.21794 14.8538 2.95996 13.5785 2.96094 12.2907Z" fill="#ED1C24"/>
<path d="M12.9544 21.6887C14.8477 21.6901 16.699 21.1401 18.274 20.1084C19.849 19.0766 21.0769 17.6093 21.8025 15.8922C22.528 14.1751 22.7186 12.2852 22.3502 10.4617C21.9817 8.63824 21.0707 6.96301 19.7324 5.64796C18.3941 4.33291 16.6887 3.43712 14.8318 3.07391C12.9749 2.7107 11.0501 2.89638 9.30068 3.60748C7.5513 4.31857 6.05602 5.52312 5.00397 7.06876C3.95192 8.6144 3.39038 10.4317 3.39038 12.2907C3.38941 13.5245 3.63607 14.7464 4.11627 15.8866C4.59647 17.0268 5.3008 18.0629 6.18899 18.9356C7.07719 19.8084 8.13185 20.5008 9.29269 20.9731C10.4535 21.4455 11.6978 21.6887 12.9544 21.6887Z" fill="white"/>
<path d="M21.0675 16.8989C21.048 16.931 21.0195 16.957 20.9854 16.9737C20.9513 16.9904 20.913 16.9973 20.8751 16.9933L19.5426 16.7171C18.8102 17.7695 17.8273 18.6305 16.6792 19.2254C15.5311 19.8204 14.2526 20.1313 12.9544 20.1313C11.6563 20.1313 10.3777 19.8204 9.22968 19.2254C8.08162 18.6305 7.09872 17.7695 6.36624 16.7171L5.03379 17.0079C4.99497 17.0107 4.95606 17.0035 4.92098 16.9869C4.8859 16.9703 4.85588 16.945 4.83393 16.9134C4.81368 16.8805 4.80298 16.8428 4.80298 16.8044C4.80298 16.7659 4.81368 16.7282 4.83393 16.6953L5.77404 15.6923C5.24905 14.6327 4.9781 13.4691 4.98198 12.2907C4.98417 10.3123 5.74854 8.40795 7.12161 6.96C8.49468 5.51205 10.3748 4.62772 12.3844 4.48457L12.7916 3.21261C12.8064 3.17624 12.8319 3.14503 12.8649 3.12301C12.8978 3.10099 12.9368 3.08917 12.9766 3.08905C13.0153 3.09027 13.0529 3.10172 13.0855 3.12219C13.1181 3.14266 13.1444 3.17139 13.1617 3.20534L13.5688 4.48457C15.5785 4.62772 17.4586 5.51205 18.8317 6.96C20.2048 8.40795 20.9691 10.3123 20.9713 12.2907C20.9752 13.4691 20.7042 14.6327 20.1793 15.6923L21.0601 16.7171C21.0821 16.7494 21.0938 16.7874 21.0938 16.8262C21.0938 16.865 21.0821 16.9029 21.0601 16.9352L21.0675 16.8989ZM20.8825 16.7171L18.8764 14.6311C18.7338 14.6909 18.5789 14.7172 18.4241 14.7081C18.2693 14.6989 18.1188 14.6545 17.9845 14.5783C17.8502 14.5021 17.7358 14.3963 17.6503 14.2693C17.5649 14.1422 17.5107 13.9973 17.4922 13.8462C17.4654 13.6189 17.3844 13.4011 17.2558 13.2104C17.1272 13.0197 16.9545 12.8615 16.7519 12.7486L15.9376 12.2835L19.5574 10.2338L19.1577 9.55785L15.1382 11.8328L14.4423 11.4403V10.6554L18.5063 8.37312L18.1066 7.69716L14.4868 9.7541V8.83102C14.4882 8.60228 14.4347 8.37642 14.3305 8.17182C14.2263 7.96722 14.0744 7.78965 13.8872 7.65355C13.7617 7.56337 13.66 7.4451 13.5905 7.30857C13.521 7.17205 13.4856 7.02121 13.4874 6.86858C13.4891 6.71654 13.526 6.56687 13.5952 6.43088C13.6645 6.29489 13.7643 6.17614 13.8872 6.0836L13.0063 3.3289C13.0045 3.31671 12.9982 3.30556 12.9887 3.29754C12.9792 3.28952 12.967 3.28517 12.9544 3.28529C12.9419 3.28517 12.9297 3.28952 12.9202 3.29754C12.9107 3.30556 12.9044 3.31671 12.9026 3.3289L12.0513 6.0836C12.1768 6.17408 12.2788 6.29228 12.3491 6.42865C12.4194 6.56502 12.4561 6.71573 12.4561 6.86858C12.4561 7.02143 12.4194 7.17213 12.3491 7.3085C12.2788 7.44487 12.1768 7.56307 12.0513 7.65355C11.8641 7.78965 11.7122 7.96722 11.608 8.17182C11.5038 8.37642 11.4503 8.60228 11.4517 8.83102V9.74683L7.83193 7.69716L7.43219 8.37312L11.4517 10.6554V11.4476L10.7559 11.8401L6.74376 9.56512L6.34403 10.2411L9.96384 12.2907L9.14957 12.7559C8.94694 12.8688 8.7743 13.027 8.64567 13.2177C8.51704 13.4084 8.43607 13.6262 8.40932 13.8534C8.38965 14.0049 8.33452 14.1498 8.24827 14.2768C8.16201 14.4038 8.04697 14.5094 7.91216 14.5855C7.77734 14.6615 7.62643 14.7059 7.47123 14.7151C7.31604 14.7242 7.16079 14.698 7.01765 14.6384L5.02639 16.7171C5.01856 16.7263 5.01426 16.7379 5.01426 16.7499C5.01426 16.7618 5.01856 16.7734 5.02639 16.7826C5.03056 16.7872 5.03568 16.7909 5.04143 16.7935C5.04717 16.796 5.0534 16.7973 5.0597 16.7973C5.066 16.7973 5.07223 16.796 5.07798 16.7935C5.08372 16.7909 5.08884 16.7872 5.09301 16.7826L7.95037 16.1284C7.96895 15.9772 8.02311 15.8324 8.10856 15.7053C8.19401 15.5782 8.30842 15.4724 8.44271 15.3963C8.57701 15.3201 8.72752 15.2757 8.88232 15.2665C9.03713 15.2573 9.19198 15.2837 9.33463 15.3434C9.54702 15.4346 9.77823 15.4755 10.0097 15.4629C10.2411 15.4502 10.4663 15.3844 10.6671 15.2708L11.4813 14.8056V18.9122H12.2808V14.384L12.9766 13.9915L13.6725 14.384V18.9412H14.4719V14.8347L15.2862 15.2998C15.487 15.4135 15.7122 15.4793 15.9436 15.4919C16.1751 15.5046 16.4063 15.4637 16.6187 15.3725C16.7601 15.3108 16.9146 15.2831 17.0691 15.292C17.2236 15.3009 17.3738 15.3459 17.507 15.4234C17.642 15.4977 17.7573 15.6023 17.8435 15.7286C17.9297 15.8548 17.9843 15.9993 18.0029 16.1502L20.8529 16.8044C20.8587 16.8087 20.8654 16.8119 20.8726 16.8135C20.8797 16.8151 20.8872 16.8152 20.8944 16.8138C20.9016 16.8124 20.9084 16.8096 20.9144 16.8054C20.9204 16.8012 20.9254 16.7958 20.9291 16.7896C20.9328 16.7833 20.9351 16.7764 20.9359 16.7692C20.9366 16.7621 20.9358 16.7548 20.9335 16.748C20.9312 16.7411 20.9275 16.7348 20.9225 16.7295C20.9175 16.7242 20.9114 16.72 20.9047 16.7171H20.8825ZM13.6725 12.676V11.8983L12.9766 11.5058L12.2808 11.8983V12.6905L12.9766 13.083L13.6725 12.676ZM12.2586 10.1757L12.9544 10.5681L13.6503 10.1757V8.83102C13.6503 8.64982 13.577 8.47604 13.4465 8.34791C13.316 8.21978 13.139 8.1478 12.9544 8.1478C12.7699 8.1478 12.5929 8.21978 12.4624 8.34791C12.3319 8.47604 12.2586 8.64982 12.2586 8.83102V10.1757ZM11.4591 13.9043V13.1411L10.7633 12.7486L9.5493 13.4319C9.46983 13.477 9.40024 13.5371 9.34453 13.6087C9.28882 13.6803 9.24809 13.7621 9.2247 13.8492C9.2013 13.9364 9.1957 14.0272 9.20822 14.1165C9.22073 14.2058 9.25112 14.2918 9.29762 14.3695C9.34284 14.4473 9.40336 14.5154 9.47565 14.5701C9.54795 14.6247 9.63057 14.6646 9.71873 14.6876C9.80689 14.7106 9.89883 14.7162 9.98919 14.704C10.0796 14.6918 10.1666 14.6621 10.2451 14.6166L11.4591 13.9043ZM16.3596 13.4028L15.1456 12.7196L14.4497 13.1121V13.9043L15.6563 14.5875C15.8163 14.6839 16.0088 14.7139 16.1913 14.671C16.3739 14.6281 16.5316 14.5157 16.6298 14.3586C16.7279 14.2015 16.7585 14.0125 16.7148 13.8333C16.6711 13.654 16.5566 13.4992 16.3966 13.4028H16.3596Z" fill="#ED1C24"/>
<path d="M90.0141 24.8795L88.4152 25.003C88.4892 24.814 88.5929 24.6396 88.6965 24.407C88.6965 24.407 87.4973 24.6832 87.3048 25.1338H86.9865C86.5665 25.2332 86.1902 25.4625 85.9132 25.788L87.0161 25.6644C86.6016 26.5512 85.9058 27.9685 85.9058 27.9685L87.0754 27.8304C87.5121 26.8564 87.8156 26.1441 88.1561 25.5336L88.6743 25.4609C89.1642 25.3628 89.6249 25.1565 90.0215 24.8576" fill="black"/>
<path d="M55.8073 27.5251C56.049 27.4954 56.2945 27.5199 56.5253 27.5967C56.756 27.6735 56.9661 27.8006 57.1397 27.9685C57.2562 28.1468 57.3143 28.3559 57.3064 28.5677C57.2985 28.7794 57.2248 28.9837 57.0953 29.1532C56.836 29.7793 56.3585 30.2946 55.748 30.6069C55.0273 30.9946 54.2157 31.1901 53.394 31.1738C53.1538 31.2064 52.909 31.1826 52.68 31.1043C52.4509 31.0259 52.244 30.8953 52.0764 30.7232C51.9685 30.5425 51.9166 30.3349 51.9271 30.1258C51.9376 29.9166 52.0101 29.715 52.1356 29.5457C52.5244 28.8708 53.106 28.3224 53.8086 27.9685C54.4231 27.6495 55.1128 27.4964 55.8073 27.5251ZM54.6895 28.2519C54.2364 28.5059 53.8665 28.8816 53.6235 29.3349C53.098 30.3234 53.5199 30.6795 53.9196 30.6505C54.2141 30.6125 54.495 30.5055 54.7385 30.3386C54.982 30.1716 55.181 29.9495 55.3187 29.6911C55.5969 29.3479 55.7714 28.9349 55.8221 28.4991C55.8221 28.1793 55.5334 27.8376 54.6895 28.2519Z" fill="black"/>
<path d="M42.6087 26.5875C42.1162 26.5745 41.6372 26.746 41.2688 27.0672L39.2331 29.4003L38.826 26.8928C38.3683 26.95 37.9172 27.0498 37.4788 27.1908L37.9451 30.5269L39.1517 30.3961L42.6087 26.5875Z" fill="black"/>
<path d="M40.647 29.851C43.8448 30.149 46.2136 29.1241 45.9101 28.3973C45.7621 28.0266 45.3698 27.8449 44.4296 27.5469C43.8226 27.3579 44.7628 26.7765 46.6504 26.8201L46.9835 26.3985C45.9136 26.4076 44.8491 26.5493 43.8152 26.8201C42.8677 27.1326 42.2755 27.7504 43.0084 28.0266C43.7412 28.3028 44.2964 28.3973 44.4889 28.6808C44.8072 29.2114 43.0454 29.5457 41.1503 29.4076L40.647 29.851Z" fill="black"/>
<path d="M76.9339 27.8449C76.6376 28.0221 76.3283 28.1776 76.0086 28.3101C75.55 28.5317 75.0356 28.6176 74.5281 28.5572C74.084 28.3392 74.4467 27.8304 74.4467 27.8304C74.4467 27.8304 76.8229 27.3943 76.9487 27.3434C77.0746 27.2925 77.7926 26.3186 76.9857 25.9988C76.1789 25.679 74.1136 26.275 73.4252 27.8158C73.0254 28.7026 73.4252 29.0078 73.8323 29.1169C74.3008 29.2332 74.7909 29.2384 75.2619 29.1323C75.733 29.0261 76.1716 28.8116 76.5416 28.5063L76.9339 27.8449ZM76.2455 26.3549C76.7193 26.304 76.2455 27.0817 76.0456 27.1399C75.6011 27.2739 75.1453 27.3688 74.6836 27.4234C75.0615 26.8994 75.6139 26.5214 76.2455 26.3549Z" fill="black"/>
<path d="M36.5387 29.4221C36.1527 29.6275 35.7519 29.8048 35.3395 29.9527C34.7166 30.2035 34.0388 30.2935 33.3704 30.2144C33.2852 30.1896 33.2074 30.1446 33.1441 30.0833C33.0808 30.022 33.0339 29.9462 33.0075 29.8628C32.9811 29.7794 32.9761 29.6909 32.993 29.6052C33.0098 29.5194 33.0479 29.4391 33.104 29.3713C33.104 29.3713 36.25 28.986 36.5091 28.8334C36.7682 28.6808 37.4788 27.6632 36.287 27.2853C35.0952 26.9073 32.3341 27.5687 31.6753 29.3422C31.5906 29.4916 31.5454 29.6594 31.5437 29.8304C31.5421 30.0014 31.584 30.17 31.6656 30.321C31.7473 30.472 31.8662 30.6005 32.0114 30.6949C32.1566 30.7892 32.3235 30.8464 32.497 30.8613C33.1267 31.0216 33.7845 31.0442 34.4241 30.9274C35.0637 30.8106 35.6693 30.5573 36.1982 30.1853L36.5387 29.4221ZM35.3321 27.6923C35.9761 27.6341 35.5024 28.5281 35.2063 28.5936C34.5548 28.7244 33.3334 28.8334 33.3334 28.8334C33.8328 28.2232 34.545 27.8166 35.3321 27.6923Z" fill="black"/>
<path d="M81.3679 28.0121C80.7683 28.1793 80.4648 28.1938 80.7461 27.5542C80.9386 27.1181 81.8195 25.6063 81.8195 25.6063L80.6277 25.7153C80.083 25.7379 79.5514 25.8858 79.0756 26.1471C78.5999 26.4085 78.1933 26.7759 77.8888 27.2199C77.3632 28.0412 77.4668 28.6735 77.9702 28.7535C78.7104 28.9061 79.806 27.9031 79.806 27.9031C79.7821 27.9889 79.7813 28.0794 79.8035 28.1656C79.8257 28.2519 79.8703 28.3311 79.9328 28.3954C79.9954 28.4598 80.0739 28.5072 80.1606 28.533C80.2473 28.5588 80.3394 28.5621 80.4278 28.5427C80.6891 28.5202 80.942 28.4408 81.1681 28.3101L81.3679 28.0121ZM78.9029 27.9176C78.518 27.9903 78.629 27.4524 78.9029 27.089C79.0968 26.8068 79.3614 26.5784 79.6713 26.4257C79.9811 26.2729 80.3258 26.201 80.6721 26.2168C80.6721 26.2168 80.0577 27.6705 78.9325 27.9176" fill="black"/>
<path d="M64.1868 26.8928C65.2528 26.7983 65.2232 27.1181 65.2232 27.1181C65.9167 26.7031 66.7378 26.5434 67.5401 26.6675C67.317 26.8601 67.0679 27.0215 66.7999 27.1472C66.0596 27.4961 65.6229 26.8928 64.9345 27.8159C64.6236 28.2447 63.7279 29.9964 63.7279 29.9964L62.3584 30.1853C63.0172 29.0515 64.172 26.9073 64.172 26.9073" fill="black"/>
<path d="M82.989 25.5045C84.0106 25.381 83.8625 25.788 83.8625 25.788C84.5155 25.3591 85.3032 25.1735 86.0833 25.2647C85.859 25.4597 85.6102 25.6258 85.343 25.7589C84.6472 26.1223 84.1956 25.5554 83.5368 26.4858C83.2083 27.0577 82.9238 27.6529 82.6855 28.2665L81.5085 28.4119C82.2488 26.9582 82.9446 25.5045 82.9446 25.5045" fill="black"/>
<path d="M58.8348 30.5778C57.3543 30.5778 57.5394 29.851 57.7171 29.4221C57.9479 28.9222 58.21 28.4367 58.5017 27.9685C58.6471 27.7691 58.8276 27.5967 59.0347 27.4597C59.398 27.3109 59.7783 27.206 60.1673 27.1472C60.1673 27.1472 59.427 28.4119 59.1309 29.1241C58.8866 29.6911 58.7682 30.0618 59.5751 29.9673C60.1303 29.8946 60.3819 29.6402 60.8113 28.9642C61.1222 28.4773 61.4701 27.8086 61.6478 27.4742C61.8254 27.1399 62.277 26.9945 63.1283 26.9582C63.1283 26.9582 62.3288 28.361 61.9439 29.066C61.6 29.5573 61.1299 29.9505 60.5813 30.2058C60.0327 30.4611 59.425 30.5694 58.82 30.5197" fill="black"/>
<path d="M49.071 32.5548C50.4135 30.1919 51.972 27.9538 53.7271 25.8679C53.7271 25.8679 52.2466 25.9116 51.9875 26.2241L50.1221 28.8479C50.1221 28.8479 49.4855 26.9437 49.3226 26.2459C48.9325 26.262 48.5465 26.3305 48.1753 26.4494C48.1753 26.4494 48.9673 28.9206 49.3078 29.8219C49.3597 29.96 49.2634 30.0836 49.1968 30.1781C49.1302 30.2725 49.0413 30.4106 48.9599 30.5197C47.2574 30.7014 34.6361 32.0242 32.9484 32.0896C31.5403 32.1344 30.1418 31.8478 28.8696 31.2538C27.6852 30.6941 27.1967 30.2071 26.3602 29.7565C27.2708 29.6017 28.1635 29.3582 29.0251 29.0297C31.764 28.0121 33.585 25.9334 29.8467 25.3955C26.9598 24.9594 18.0768 26.602 18.0768 26.602C18.3004 26.7495 18.552 26.8513 18.8165 26.9012C19.0811 26.9512 19.3531 26.9483 19.6165 26.8928C20.7121 26.6747 22.0445 26.4349 23.377 26.2386C22.5923 27.4234 19.772 31.639 18.0398 34.0811C18.0398 34.0811 20.5788 33.9866 20.9638 33.3543C21.134 33.0781 22.0593 31.4718 23.0291 29.7928C24.2653 30.4615 27.1818 32.3004 27.7889 32.5693C28.5616 32.8606 29.3949 32.9629 30.2169 32.8673C35.0285 32.5693 44.9182 31.232 48.6638 30.9267L46.8798 33.5069C51.573 32.8673 89.8808 28.8189 89.8808 28.8189L91.5982 28.2956C91.5982 28.2956 58.4795 31.8352 49.071 32.5548ZM25.235 26.0133C26.4244 25.8355 27.6359 25.8576 28.8178 26.0787C30.8239 26.6675 28.5439 28.0484 27.0412 28.659C25.7454 29.1536 24.4078 29.5354 23.0439 29.8001C23.91 28.2956 24.8057 26.7401 25.2646 26.0278" fill="black"/>
<path d="M73.0032 24.9376C72.7367 25.3882 72.3962 26.0642 72.0705 26.7547L69.8497 27.0163C70.2273 26.1659 70.59 25.4318 70.8047 24.894C70.4919 24.9132 70.1805 24.9496 69.872 25.003C69.634 25.0459 69.401 25.1117 69.1761 25.1993C69.3146 25.2532 69.4333 25.3469 69.5166 25.4682C68.7764 26.9218 67.2959 29.9237 67.2959 29.9237L68.6283 29.8001C68.9763 29.0733 69.302 28.2956 69.6055 27.6196C70.1681 27.5033 71.1822 27.3652 71.8262 27.278C71.2784 28.4627 70.8047 29.5675 70.8047 29.5675L71.9669 29.4512C72.624 27.781 73.3956 26.1565 74.2764 24.5887C74.2764 24.5887 73.2549 24.5233 72.9958 24.9449" fill="black"/>
</g>
<defs>
<clipPath id="clip0_6833_32533">
<rect width="100" height="40.5063" fill="white"/>
</clipPath>
</defs>
</svg>
