<svg width="146" height="60" viewBox="0 0 146 60" fill="none" xmlns="http://www.w3.org/2000/svg">
<path d="M108.275 5.99683V30.4899H113.292V20.219H117.642V30.4899H122.637V5.99683H117.642V15.751H113.292V5.99683H108.275Z" fill="#ED1C24"/>
<path d="M69.582 5.99683V30.4899H74.1792V14.922L76.8815 30.4899H79.9283L82.6737 14.922V30.4899H87.2817V5.99683H80.4451L78.4318 17.775L76.4186 5.99683H69.582Z" fill="#ED1C24"/>
<path d="M40.7392 5.99683L43.7968 16.9353L46.8436 5.99683H51.8391L46.456 22.4476V30.4899H41.1267V22.4476L35.7437 5.99683H40.7392Z" fill="#ED1C24"/>
<path d="M62.4439 5.99683H55.7904L51.4839 30.4899H56.4471L57.2761 24.6654H61.0335L61.8625 30.4899H66.858L62.4439 5.99683ZM59.1063 11.5307L60.3445 20.2082H57.8575L59.1063 11.5307Z" fill="#ED1C24"/>
<path d="M101.095 5.99683H94.452L90.1455 30.4899H95.1087L95.9485 24.6654H99.6951L100.524 30.4899H105.509L101.095 5.99683ZM97.768 11.5307L99.0492 20.2082H96.5191L97.768 11.5307Z" fill="#ED1C24"/>
<path d="M136.472 5.99683H129.829L125.523 30.4899H130.486L131.315 24.6654H135.073L135.902 30.4899H140.897L136.472 5.99683ZM133.135 11.5307L134.384 20.2082H131.897L133.135 11.5307Z" fill="#ED1C24"/>
<path d="M4.30664 18.2056C4.30878 15.3418 5.15942 12.5428 6.75114 10.1621C8.34286 7.78134 10.6043 5.92562 13.2499 4.8292C15.8955 3.73278 18.8067 3.44484 21.6158 4.00172C24.425 4.55861 27.0062 5.93535 29.0334 7.95812C31.0607 9.98088 32.4432 12.559 33.0063 15.3669C33.5694 18.1748 33.288 21.0866 32.1975 23.7346C31.1069 26.3827 29.2562 28.6482 26.8791 30.2453C24.5019 31.8423 21.7048 32.6991 18.841 32.7076C16.9335 32.7133 15.0436 32.3423 13.2797 31.6159C11.5159 30.8895 9.9128 29.822 8.56245 28.4747C7.2121 27.1273 6.14105 25.5266 5.41074 23.7644C4.68042 22.0022 4.30522 20.1131 4.30664 18.2056Z" fill="#ED1C24"/>
<path d="M18.8411 32.1263C21.5948 32.1284 24.2873 31.3138 26.5779 29.7855C28.8686 28.2571 30.6545 26.0838 31.7098 23.5403C32.7651 20.9968 33.0423 18.1975 32.5064 15.4964C31.9704 12.7954 30.6455 10.3139 28.6991 8.366C26.7527 6.41808 24.2722 5.0912 21.5716 4.55319C18.871 4.01518 16.0714 4.29023 13.5271 5.34354C10.9828 6.39684 8.80807 8.18109 7.27797 10.4706C5.74786 12.76 4.93116 15.4519 4.93116 18.2056C4.92974 20.0332 5.28849 21.8431 5.9869 23.532C6.6853 25.2209 7.70967 26.7556 9.00147 28.0484C10.2933 29.3412 11.8272 30.3667 13.5155 31.0664C15.2038 31.7661 17.0135 32.1263 18.8411 32.1263Z" fill="white"/>
<path d="M30.6406 25.0315C30.6122 25.0791 30.5707 25.1175 30.5211 25.1423C30.4715 25.1671 30.4159 25.1772 30.3607 25.1714L28.4228 24.7623C27.3575 26.3211 25.9279 27.5964 24.2582 28.4777C22.5884 29.359 20.7289 29.8196 18.8409 29.8196C16.9528 29.8196 15.0933 29.359 13.4236 28.4777C11.7538 27.5964 10.3243 26.3211 9.25896 24.7623L7.32105 25.1929C7.26458 25.1971 7.208 25.1864 7.15698 25.1619C7.10596 25.1373 7.06229 25.0998 7.03036 25.053C7.00092 25.0043 6.98535 24.9484 6.98535 24.8915C6.98535 24.8346 7.00092 24.7787 7.03036 24.73L8.39767 23.2443C7.63412 21.6747 7.24006 19.9511 7.24569 18.2057C7.24888 15.2751 8.36058 12.4543 10.3576 10.3095C12.3546 8.16475 15.089 6.85483 18.0119 6.64279L18.604 4.75871C18.6255 4.70483 18.6626 4.65861 18.7106 4.62599C18.7585 4.59338 18.8152 4.57586 18.8732 4.57568C18.9294 4.57749 18.9841 4.59445 19.0315 4.62477C19.0788 4.65509 19.1171 4.69765 19.1423 4.74794L19.7345 6.64279C22.6573 6.85483 25.3918 8.16475 27.3888 10.3095C29.3858 12.4543 30.4975 15.2751 30.5007 18.2057C30.5063 19.9511 30.1122 21.6747 29.3487 23.2443L30.6299 24.7623C30.6618 24.8101 30.6788 24.8663 30.6788 24.9238C30.6788 24.9813 30.6618 25.0375 30.6299 25.0853L30.6406 25.0315ZM30.3715 24.7623L27.4538 21.6724C27.2464 21.7609 27.0211 21.7999 26.796 21.7863C26.5708 21.7727 26.3519 21.7069 26.1566 21.5941C25.9613 21.4813 25.7949 21.3246 25.6706 21.1364C25.5463 20.9482 25.4676 20.7336 25.4406 20.5097C25.4017 20.1731 25.2839 19.8504 25.0968 19.568C24.9097 19.2855 24.6586 19.0511 24.3639 18.884L23.1797 18.1949L28.4443 15.1589L27.8629 14.1576L22.0169 17.5274L21.0049 16.946V15.7833L26.9155 12.4027L26.3341 11.4015L21.0695 14.4483V13.081C21.0716 12.7422 20.9937 12.4076 20.8422 12.1045C20.6907 11.8015 20.4698 11.5385 20.1974 11.3369C20.015 11.2033 19.8671 11.0281 19.766 10.8259C19.6649 10.6236 19.6135 10.4002 19.616 10.1741C19.6185 9.94891 19.6721 9.72721 19.7728 9.52577C19.8735 9.32433 20.0187 9.14843 20.1974 9.01136L18.9162 4.93097C18.9136 4.9129 18.9046 4.89639 18.8907 4.88451C18.8768 4.87263 18.8591 4.86618 18.8409 4.86637C18.8226 4.86618 18.8049 4.87263 18.7911 4.88451C18.7772 4.89639 18.7681 4.9129 18.7655 4.93097L17.5274 9.01136C17.7099 9.14538 17.8583 9.32047 17.9605 9.52247C18.0628 9.72447 18.1161 9.9477 18.1161 10.1741C18.1161 10.4005 18.0628 10.6237 17.9605 10.8257C17.8583 11.0277 17.7099 11.2028 17.5274 11.3369C17.2551 11.5385 17.0342 11.8015 16.8826 12.1045C16.7311 12.4076 16.6532 12.7422 16.6553 13.081V14.4375L11.3907 11.4015L10.8093 12.4027L16.6553 15.7833V16.9568L15.6433 17.5382L9.80804 14.1684L9.22666 15.1696L14.4913 18.2057L13.3071 18.8947C13.0124 19.0619 12.7613 19.2962 12.5742 19.5787C12.3871 19.8612 12.2693 20.1838 12.2304 20.5204C12.2018 20.7447 12.1216 20.9594 11.9962 21.1475C11.8707 21.3356 11.7034 21.4921 11.5074 21.6048C11.3113 21.7174 11.0918 21.7831 10.8661 21.7967C10.6404 21.8103 10.4146 21.7714 10.2064 21.6832L7.31028 24.7623C7.29889 24.7759 7.29265 24.793 7.29265 24.8107C7.29265 24.8285 7.29889 24.8456 7.31028 24.8592C7.31634 24.8661 7.3238 24.8716 7.33215 24.8753C7.34051 24.8791 7.34957 24.8811 7.35873 24.8811C7.36789 24.8811 7.37695 24.8791 7.38531 24.8753C7.39366 24.8716 7.40112 24.8661 7.40718 24.8592L11.5629 23.8902C11.59 23.6663 11.6687 23.4517 11.793 23.2635C11.9173 23.0753 12.0837 22.9186 12.279 22.8058C12.4743 22.6929 12.6932 22.6271 12.9184 22.6136C13.1435 22.6 13.3687 22.639 13.5762 22.7275C13.8851 22.8625 14.2214 22.9231 14.558 22.9044C14.8946 22.8857 15.2221 22.7882 15.5141 22.6198L16.6984 21.9308V28.0137H17.8612V21.3064L18.8732 20.725L19.8852 21.3064V28.0568H21.0479V21.9739L22.2322 22.6629C22.5243 22.8313 22.8518 22.9288 23.1884 22.9475C23.525 22.9662 23.8612 22.9056 24.1701 22.7706C24.3759 22.6791 24.6005 22.6382 24.8253 22.6513C25.05 22.6644 25.2684 22.7311 25.4621 22.8459C25.6585 22.956 25.8262 23.1109 25.9515 23.298C26.0769 23.485 26.1563 23.699 26.1834 23.9225L30.3284 24.8915C30.3369 24.898 30.3467 24.9026 30.3571 24.905C30.3675 24.9074 30.3783 24.9076 30.3888 24.9055C30.3992 24.9035 30.4092 24.8992 30.4179 24.893C30.4266 24.8868 30.4339 24.8788 30.4392 24.8696C30.4446 24.8603 30.448 24.8501 30.4491 24.8394C30.4502 24.8288 30.4491 24.8181 30.4457 24.8079C30.4423 24.7978 30.4369 24.7885 30.4296 24.7806C30.4224 24.7727 30.4136 24.7665 30.4038 24.7623H30.3715ZM19.8852 18.7763V17.6243L18.8732 17.0429L17.8612 17.6243V18.7978L18.8732 19.3792L19.8852 18.7763ZM17.8289 15.0727L18.8409 15.6541L19.8529 15.0727V13.081C19.8529 12.8126 19.7463 12.5552 19.5565 12.3654C19.3667 12.1756 19.1093 12.069 18.8409 12.069C18.5725 12.069 18.3151 12.1756 18.1253 12.3654C17.9355 12.5552 17.8289 12.8126 17.8289 13.081V15.0727ZM16.6661 20.5958V19.4653L15.6541 18.884L13.8884 19.896C13.7728 19.9628 13.6716 20.0518 13.5906 20.1579C13.5096 20.264 13.4503 20.3851 13.4163 20.5142C13.3823 20.6433 13.3742 20.7779 13.3924 20.9101C13.4106 21.0424 13.4547 21.1697 13.5224 21.2848C13.5882 21.4 13.6762 21.501 13.7813 21.5819C13.8865 21.6628 14.0066 21.722 14.1349 21.7561C14.2631 21.7901 14.3968 21.7984 14.5282 21.7803C14.6596 21.7623 14.7862 21.7183 14.9005 21.6509L16.6661 20.5958ZM23.7933 19.8529L22.0277 18.8409L21.0156 19.4223V20.5958L22.7705 21.6078C23.0033 21.7506 23.2831 21.795 23.5487 21.7315C23.8142 21.6679 24.0435 21.5014 24.1863 21.2687C24.3291 21.036 24.3735 20.7561 24.3099 20.4906C24.2463 20.225 24.0799 19.9957 23.8472 19.8529H23.7933Z" fill="#ED1C24"/>
<path d="M130.917 36.8526L128.592 37.0357C128.699 36.7557 128.85 36.4974 129.001 36.1528C129.001 36.1528 127.257 36.5619 126.977 37.2295H126.514C125.903 37.3766 125.356 37.7163 124.953 38.1984L126.557 38.0154C125.954 39.3289 124.942 41.4283 124.942 41.4283L126.643 41.2237C127.278 39.781 127.72 38.726 128.215 37.8216L128.968 37.7139C129.681 37.5686 130.351 37.263 130.928 36.8203" fill="white"/>
<path d="M81.1662 40.7715C81.5179 40.7276 81.8749 40.7639 82.2105 40.8776C82.5462 40.9913 82.8517 41.1796 83.1042 41.4283C83.2736 41.6925 83.3581 42.0022 83.3466 42.3158C83.3351 42.6295 83.2279 42.9321 83.0396 43.1832C82.6625 44.1106 81.968 44.8738 81.0801 45.3364C80.0319 45.9108 78.8515 46.2003 77.6565 46.1762C77.307 46.2245 76.951 46.1892 76.6179 46.0732C76.2847 45.9571 75.9839 45.7637 75.7401 45.5087C75.5831 45.2411 75.5076 44.9336 75.5229 44.6237C75.5382 44.3139 75.6436 44.0153 75.8262 43.7645C76.3916 42.7648 77.2375 41.9526 78.2594 41.4283C79.153 40.9557 80.1562 40.7291 81.1662 40.7715ZM79.5405 41.8481C78.8815 42.2243 78.3437 42.7808 77.9902 43.4523C77.2258 44.9165 77.8395 45.4441 78.4209 45.401C78.8492 45.3448 79.2577 45.1863 79.6118 44.939C79.966 44.6916 80.2554 44.3626 80.4557 43.9799C80.8603 43.4715 81.114 42.8597 81.1878 42.2142C81.1878 41.7405 80.7679 41.2345 79.5405 41.8481Z" fill="white"/>
<path d="M61.9703 39.3829C61.254 39.3636 60.5573 39.6177 60.0216 40.0934L57.0609 43.5494L56.4687 39.835C55.8031 39.9198 55.147 40.0676 54.5093 40.2764L55.1875 45.2181L56.9424 45.0243L61.9703 39.3829Z" fill="white"/>
<path d="M59.1172 44.2167C63.7682 44.6581 67.2134 43.1401 66.772 42.0635C66.5566 41.5144 65.986 41.2453 64.6187 40.8038C63.7359 40.5239 65.1032 39.6626 67.8486 39.7272L68.3331 39.1028C66.7769 39.1163 65.2287 39.3261 63.7251 39.7272C62.347 40.1902 61.4858 41.1053 62.5516 41.5144C63.6175 41.9235 64.4249 42.0635 64.7048 42.4834C65.1678 43.2693 62.6054 43.7645 59.8493 43.56L59.1172 44.2167Z" fill="white"/>
<path d="M111.893 41.2452C111.462 41.5076 111.012 41.7379 110.547 41.9342C109.88 42.2625 109.132 42.3897 108.394 42.3003C107.748 41.9773 108.276 41.2236 108.276 41.2236C108.276 41.2236 111.732 40.5777 111.915 40.5023C112.098 40.4269 113.142 38.9843 111.968 38.5106C110.795 38.0368 107.791 38.9197 106.79 41.2021C106.208 42.5156 106.79 42.9678 107.382 43.1293C108.063 43.3015 108.776 43.3093 109.461 43.1521C110.146 42.9949 110.784 42.6771 111.322 42.2249L111.893 41.2452ZM110.892 39.0381C111.581 38.9627 110.892 40.1147 110.601 40.2008C109.955 40.3993 109.292 40.5399 108.62 40.6207C109.17 39.8446 109.973 39.2848 110.892 39.0381Z" fill="white"/>
<path d="M53.1417 43.5815C52.5803 43.8857 51.9974 44.1483 51.3976 44.3674C50.4917 44.7388 49.5058 44.8722 48.5338 44.755C48.4097 44.7183 48.2966 44.6516 48.2046 44.5608C48.1125 44.4699 48.0442 44.3578 48.0059 44.2342C47.9676 44.1107 47.9603 43.9796 47.9848 43.8526C48.0093 43.7256 48.0647 43.6065 48.1462 43.5061C48.1462 43.5061 52.7218 42.9355 53.0986 42.7094C53.4755 42.4833 54.509 40.976 52.7757 40.4162C51.0423 39.8564 47.0265 40.8361 46.0683 43.463C45.9452 43.6844 45.8795 43.933 45.877 44.1862C45.8746 44.4394 45.9355 44.6892 46.0543 44.9129C46.1731 45.1365 46.3459 45.3269 46.5571 45.4667C46.7683 45.6065 47.0111 45.6912 47.2634 45.7132C48.1792 45.9507 49.1361 45.9841 50.0662 45.8111C50.9964 45.6381 51.8773 45.2628 52.6465 44.7119L53.1417 43.5815ZM51.3868 41.0191C52.3235 40.933 51.6344 42.2572 51.2038 42.3541C50.2564 42.5479 48.4799 42.7094 48.4799 42.7094C49.2062 41.8055 50.242 41.2033 51.3868 41.0191Z" fill="white"/>
<path d="M118.342 41.4928C117.47 41.7404 117.029 41.762 117.438 40.8145C117.718 40.1686 118.999 37.9292 118.999 37.9292L117.265 38.0907C116.473 38.1241 115.7 38.3432 115.008 38.7303C114.316 39.1174 113.725 39.6617 113.282 40.3193C112.517 41.5359 112.668 42.4725 113.4 42.591C114.477 42.8171 116.07 41.3313 116.07 41.3313C116.036 41.4585 116.034 41.5924 116.067 41.7202C116.099 41.848 116.164 41.9653 116.255 42.0606C116.346 42.156 116.46 42.2261 116.586 42.2644C116.712 42.3026 116.846 42.3075 116.975 42.2787C117.355 42.2455 117.723 42.1278 118.051 41.9342L118.342 41.4928ZM114.757 41.3529C114.197 41.4605 114.358 40.6638 114.757 40.1255C115.039 39.7075 115.424 39.3691 115.874 39.1429C116.325 38.9166 116.826 38.8101 117.33 38.8336C117.33 38.8336 116.436 40.9868 114.8 41.3529" fill="white"/>
<path d="M93.3536 39.8349C94.9039 39.695 94.8609 40.1687 94.8609 40.1687C95.8696 39.5539 97.0638 39.3173 98.2307 39.5012C97.9062 39.7864 97.5439 40.0255 97.1541 40.2117C96.0774 40.7285 95.4422 39.8349 94.441 41.2022C93.9888 41.8374 92.6861 44.4321 92.6861 44.4321L90.6943 44.712C91.6525 43.0325 93.3321 39.8564 93.3321 39.8564" fill="white"/>
<path d="M120.7 37.7785C122.185 37.5955 121.97 38.1984 121.97 38.1984C122.92 37.5631 124.065 37.2882 125.2 37.4232C124.874 37.7121 124.512 37.9582 124.123 38.1553C123.111 38.6936 122.455 37.8539 121.496 39.232C121.019 40.0792 120.605 40.9608 120.258 41.8697L118.546 42.085C119.623 39.9318 120.635 37.7785 120.635 37.7785" fill="white"/>
<path d="M85.5696 45.2934C83.4163 45.2934 83.6855 44.2168 83.9439 43.5816C84.2796 42.8411 84.6607 42.122 85.0851 41.4284C85.2965 41.133 85.559 40.8777 85.8602 40.6748C86.3886 40.4543 86.9417 40.2989 87.5075 40.2118C87.5075 40.2118 86.4308 42.0851 86.0002 43.1402C85.6449 43.98 85.4727 44.529 86.6462 44.3891C87.4536 44.2814 87.8197 43.9046 88.4441 42.9034C88.8963 42.182 89.4023 41.1915 89.6607 40.6963C89.9191 40.201 90.5758 39.9857 91.8139 39.9319C91.8139 39.9319 90.6512 42.0098 90.0914 43.0541C89.5912 43.7818 88.9075 44.3643 88.1096 44.7424C87.3117 45.1206 86.4279 45.281 85.548 45.2073" fill="white"/>
<path d="M71.3692 48.2219C73.3218 44.7219 75.5884 41.4066 78.1411 38.317C78.1411 38.317 75.9879 38.3816 75.6111 38.8445L72.898 42.7311C72.898 42.7311 71.9721 39.9104 71.7352 38.8768C71.1678 38.9007 70.6064 39.0021 70.0665 39.1783C70.0665 39.1783 71.2185 42.8388 71.7137 44.1738C71.7891 44.3783 71.6491 44.5614 71.5522 44.7013C71.4553 44.8413 71.3261 45.0458 71.2077 45.2073C68.7315 45.4765 50.3751 47.4359 47.9204 47.5328C45.8726 47.5992 43.8386 47.1747 41.9882 46.2947C40.2657 45.4657 39.5551 44.7444 38.3385 44.0769C39.663 43.8475 40.9613 43.4869 42.2143 43.0003C46.1978 41.493 48.8463 38.4139 43.4094 37.6172C39.2106 36.9712 26.2911 39.4044 26.2911 39.4044C26.6164 39.6228 26.9823 39.7735 27.367 39.8475C27.7517 39.9215 28.1474 39.9173 28.5305 39.835C30.1239 39.512 32.0618 39.1567 33.9997 38.866C32.8585 40.6209 28.7566 46.8653 26.2373 50.4828C26.2373 50.4828 29.9301 50.3428 30.49 49.4061C30.7376 48.997 32.0833 46.6177 33.4937 44.1307C35.2917 45.1212 39.5336 47.8451 40.4164 48.2434C41.5402 48.6749 42.7522 48.8264 43.9477 48.6848C50.9457 48.2434 65.3293 46.2624 70.777 45.8102L68.1824 49.6322C75.0082 48.6848 130.723 42.688 130.723 42.688L133.221 41.9129C133.221 41.9129 85.053 47.156 71.3692 48.2219ZM36.702 38.5323C38.4319 38.2689 40.194 38.3016 41.9129 38.6292C44.8305 39.5013 41.5145 41.5468 39.329 42.4512C37.4443 43.1838 35.4989 43.7494 33.5152 44.1415C34.7749 41.9129 36.0776 39.6089 36.7451 38.5538" fill="white"/>
<path d="M106.176 36.9387C105.789 37.6062 105.293 38.6075 104.82 39.6303L101.59 40.0178C102.139 38.7582 102.666 37.6708 102.979 36.8741C102.524 36.9026 102.071 36.9565 101.622 37.0356C101.276 37.0992 100.937 37.1966 100.61 37.3263C100.811 37.4062 100.984 37.5451 101.105 37.7246C100.029 39.8779 97.8755 44.3243 97.8755 44.3243L99.8134 44.1413C100.319 43.0647 100.793 41.9127 101.235 40.9114C102.053 40.7392 103.528 40.5346 104.464 40.4054C103.668 42.1603 102.979 43.7968 102.979 43.7968L104.669 43.6245C105.625 41.1506 106.747 38.7442 108.028 36.4219C108.028 36.4219 106.542 36.325 106.165 36.9495" fill="white"/>
</svg>
