<svg width="117" height="32" viewBox="0 0 117 32" fill="none" xmlns="http://www.w3.org/2000/svg">
<path d="M50.3185 21.8631V23.9007H46.6849V21.2789C46.6849 21.185 46.6084 21.1085 46.5145 21.1085H45.0541C44.9602 21.1085 44.8837 21.185 44.8837 21.2789V28.7512C44.8837 28.8694 45.0159 28.939 45.1132 28.8694L46.5771 27.8437C46.6431 27.7985 46.6814 27.7255 46.6814 27.6455V25.3576H50.315V28.2297C50.315 28.3235 50.3915 28.4 50.4854 28.4H51.9457C52.0396 28.4 52.1161 28.3235 52.1161 28.2297V20.7573C52.1161 20.6391 51.984 20.5696 51.8866 20.6391L50.4228 21.6649C50.3602 21.7101 50.3185 21.7831 50.3185 21.8631Z" fill="#1D1F21"/>
<path d="M24.2541 28.4036H25.8014C25.9023 28.4036 25.9718 28.3063 25.9405 28.2124L23.6039 21.2929C23.5691 21.1956 23.4787 21.126 23.3744 21.126H20.5475C20.4467 21.126 20.3528 21.1921 20.318 21.286L17.8597 28.2089C17.8249 28.3028 17.8979 28.4036 17.9953 28.4036H19.5183C19.6226 28.4036 19.713 28.341 19.7478 28.2437L20.2485 26.8355H23.5482L24.0246 28.2402C24.0594 28.3376 24.1498 28.4036 24.2541 28.4036ZM20.7179 25.5211L21.7262 22.6768C21.7471 22.6177 21.8027 22.5795 21.8618 22.5795H22.0079C22.0705 22.5795 22.1261 22.6212 22.147 22.6803L23.1067 25.5211H20.7179Z" fill="#1D1F21"/>
<path d="M42.342 28.4036H43.8894C43.9902 28.4036 44.0597 28.3063 44.0284 28.2124L41.6918 21.2929C41.657 21.1956 41.5666 21.126 41.4623 21.126H38.6354C38.5346 21.126 38.4407 21.1921 38.4059 21.286L35.9476 28.2089C35.9129 28.3028 35.9859 28.4036 36.0867 28.4036H37.6097C37.714 28.4036 37.8044 28.341 37.8392 28.2437L38.3399 26.8355H41.6397L42.1126 28.2402C42.1473 28.3376 42.2377 28.4036 42.342 28.4036ZM38.8023 25.5211L39.8107 22.6768C39.8316 22.6177 39.8872 22.5795 39.9463 22.5795H40.0923C40.1549 22.5795 40.2106 22.6212 40.2314 22.6803L41.1911 25.5211H38.8023Z" fill="#1D1F21"/>
<path d="M59.3729 28.4036H60.9202C61.0211 28.4036 61.0906 28.3063 61.0593 28.2124L58.7227 21.2929C58.6879 21.1956 58.5975 21.126 58.4932 21.126H55.6663C55.5655 21.126 55.4716 21.1921 55.4368 21.286L52.9785 28.2089C52.9438 28.3028 53.0168 28.4036 53.1141 28.4036H54.6371C54.7414 28.4036 54.8318 28.341 54.8666 28.2437L55.3673 26.8355H58.6671L59.1434 28.2402C59.1782 28.3376 59.2686 28.4036 59.3729 28.4036ZM55.8367 25.5211L56.8451 22.6768C56.8659 22.6177 56.9216 22.5795 56.9842 22.5795H57.1302C57.1928 22.5795 57.2484 22.6212 57.2693 22.6803L58.229 25.5211H55.8367Z" fill="#1D1F21"/>
<path d="M18.5377 21.126H16.8061C16.7262 21.126 16.6497 21.1643 16.6045 21.2304L14.7442 23.939L12.884 21.2304C12.8387 21.1643 12.7623 21.126 12.6823 21.126H10.9507C10.8325 21.126 10.7629 21.2582 10.829 21.3555L13.8645 25.7784V28.7757C13.8645 28.8939 13.9966 28.9635 14.094 28.8939L15.5126 27.9029C15.5787 27.8577 15.617 27.7847 15.617 27.7047V25.7784L18.6525 21.3555C18.7255 21.2582 18.656 21.126 18.5377 21.126Z" fill="#1D1F21"/>
<path d="M32.6374 21.2721L30.9441 25.1212L29.2507 21.2721C29.2125 21.1851 29.1256 21.126 29.0282 21.126H26.9698C26.8759 21.126 26.7994 21.2025 26.7994 21.2964V28.2263C26.7994 28.3202 26.8759 28.3967 26.9698 28.3967H28.2841C28.378 28.3967 28.4545 28.3202 28.4545 28.2263V23.1845L29.9948 26.6859C30.0331 26.7729 30.12 26.832 30.2174 26.832H31.6673C31.7647 26.832 31.8516 26.7763 31.8899 26.6859L33.4302 23.1845V28.2333C33.4302 28.3271 33.5067 28.4036 33.6006 28.4036H34.915C35.0088 28.4036 35.0853 28.3271 35.0853 28.2333V21.2964C35.0853 21.2025 35.0088 21.126 34.915 21.126H32.86C32.7626 21.126 32.6757 21.1817 32.6374 21.2721Z" fill="#1D1F21"/>
<path d="M81.8559 22.9723C81.7794 22.0056 80.8754 21.0633 79.8983 20.9486C79.8983 20.9486 79.8983 20.9486 79.8983 20.9451C79.1298 20.8756 77.127 20.8617 76.223 20.9451C76.223 20.9451 76.223 20.9451 76.223 20.9486C75.2494 21.0633 74.3453 22.0056 74.2654 22.9723C74.1471 24.4361 74.1471 25.0968 74.2654 26.5607C74.3419 27.5273 75.2459 28.4696 76.223 28.5843V28.5878C76.9914 28.6574 79.1298 28.6574 79.8983 28.5878C79.8983 28.5878 79.8983 28.5878 79.8983 28.5843C80.8719 28.4696 81.7759 27.5273 81.8559 26.5607C81.9706 25.0968 81.9706 24.4361 81.8559 22.9723ZM80.0756 26.5363C80.0548 26.818 79.8183 27.0614 79.5506 27.0753C78.8656 27.1066 77.2626 27.1066 76.5776 27.0753C76.3099 27.0648 76.07 26.8214 76.0526 26.5363C75.9518 25.1003 75.9518 24.4361 76.0526 23.0001C76.0735 22.7185 76.3099 22.4751 76.5776 22.4611C77.2626 22.4299 78.8621 22.4299 79.5506 22.4611C79.8183 22.4716 80.0582 22.715 80.0791 23.0001C80.1765 24.4361 80.1765 25.1003 80.0756 26.5363Z" fill="#1D1F21"/>
<path d="M97.5133 22.9723C97.4368 22.0056 96.5293 21.0633 95.5557 20.9486C95.5557 20.9486 95.5557 20.9486 95.5557 20.9451C94.7872 20.8756 92.7844 20.8617 91.8804 20.9451C91.8804 20.9451 91.8804 20.9451 91.8804 20.9486C90.9068 21.0633 90.0027 22.0056 89.9228 22.9723C89.8046 24.4361 89.8046 25.0968 89.9228 26.5607C89.9993 27.5273 90.9068 28.4696 91.8804 28.5843V28.5878C92.6488 28.6574 94.7872 28.6574 95.5557 28.5878C95.5557 28.5878 95.5557 28.5878 95.5557 28.5843C96.5293 28.4696 97.4333 27.5273 97.5133 26.5607C97.628 25.0968 97.628 24.4361 97.5133 22.9723ZM95.733 26.5363C95.7122 26.818 95.4757 27.0614 95.208 27.0753C94.523 27.1066 92.92 27.1066 92.235 27.0753C91.9673 27.0648 91.7274 26.8214 91.7065 26.5363C91.6057 25.1003 91.6057 24.4361 91.7065 23.0001C91.7274 22.7185 91.9638 22.4751 92.2316 22.4611C92.9166 22.4299 94.516 22.4299 95.2045 22.4611C95.4722 22.4716 95.7122 22.715 95.7295 23.0001C95.8304 24.4361 95.8304 25.1003 95.733 26.5363Z" fill="#1D1F21"/>
<path d="M81.9011 21.3555L82.6904 22.482C82.7356 22.5481 82.8086 22.5864 82.8886 22.5864H84.9922V28.7721C84.9922 28.8904 85.1243 28.9599 85.2217 28.8904L86.6856 27.8646C86.7516 27.8194 86.7899 27.7464 86.7899 27.6664V22.5829H88.8935C88.9735 22.5829 89.0465 22.5446 89.0917 22.4786L89.881 21.352C89.9506 21.2546 89.881 21.1225 89.7628 21.1225H82.0228C81.9011 21.126 81.835 21.2581 81.9011 21.3555Z" fill="#1D1F21"/>
<path d="M70.5901 21.2721L68.8967 25.1212L67.2034 21.2721C67.1651 21.1851 67.0782 21.126 66.9808 21.126H64.9224C64.8285 21.126 64.752 21.2025 64.752 21.2964V28.2263C64.752 28.3202 64.8285 28.3967 64.9224 28.3967H66.2367C66.3306 28.3967 66.4071 28.3202 66.4071 28.2263V23.1845L67.9475 26.6859C67.9857 26.7729 68.0727 26.832 68.17 26.832H69.62C69.7173 26.832 69.8043 26.7763 69.8425 26.6859L71.3829 23.1845V28.2333C71.3829 28.3271 71.4594 28.4036 71.5533 28.4036H72.8676C72.9615 28.4036 73.038 28.3271 73.038 28.2333V21.2964C73.038 21.2025 72.9615 21.126 72.8676 21.126H70.8092C70.7153 21.126 70.6283 21.1817 70.5901 21.2721Z" fill="#1D1F21"/>
<path d="M103.164 25.2395H104.593C105.396 25.2395 106.081 24.4884 106.081 23.2019C106.081 21.8493 105.396 21.126 104.593 21.126H98.8243C98.7304 21.126 98.6539 21.2025 98.6539 21.2964V28.7548C98.6539 28.873 98.786 28.9426 98.8834 28.873L100.299 27.8821C100.365 27.8369 100.403 27.7638 100.403 27.6839V22.7498C100.403 22.656 100.479 22.5795 100.573 22.5795H103.967C104.169 22.5795 104.363 22.882 104.363 23.3201C104.363 23.7686 104.165 24.0712 103.967 24.0712H102.096C102.03 24.0712 101.964 24.099 101.919 24.1476L101.001 25.1351C100.949 25.1908 100.949 25.2777 101.001 25.3333L103.824 28.3237C103.87 28.3723 103.936 28.4002 104.002 28.4002H105.82C105.949 28.4002 106.015 28.2472 105.928 28.1533L103.164 25.2395Z" fill="#1D1F21"/>
<path d="M10.2135 9.47056H13.1551C14.8102 9.47056 16.2184 7.92672 16.2184 5.28064C16.2184 2.49895 14.8067 1.01422 13.1551 1.01422H1.28771C1.09647 1.01422 0.940002 1.17069 0.940002 1.36193V16.703C0.940002 16.9464 1.21469 17.0889 1.41289 16.9498L4.31976 14.9122C4.45189 14.8184 4.53186 14.6654 4.53186 14.5054V4.3592C4.53186 4.16796 4.68833 4.01149 4.87957 4.01149H11.8581C12.2719 4.01149 12.6753 4.63042 12.6753 5.53447C12.6753 6.45243 12.2684 7.08178 11.8581 7.08178H8.01245C7.87337 7.08178 7.74124 7.1409 7.64736 7.24173L5.75581 9.27584C5.64801 9.39059 5.64801 9.5714 5.75928 9.68614L11.5661 15.8337C11.6599 15.9345 11.7921 15.9901 11.9277 15.9901H15.6691C15.9333 15.9901 16.0689 15.6737 15.8881 15.486L10.2135 9.47056Z" fill="#FF0000"/>
<path d="M30.0852 12.9894H21.9453C21.7541 12.9894 21.5976 12.833 21.5976 12.6417V9.9713C21.5976 9.78006 21.7541 9.62359 21.9453 9.62359H29.4559C29.6471 9.62359 29.8036 9.46712 29.8036 9.27588V7.28001C29.8036 7.08877 29.6471 6.9323 29.4559 6.9323H21.9453C21.7541 6.9323 21.5976 6.77583 21.5976 6.58459V4.36272C21.5976 4.17147 21.7541 4.015 21.9453 4.015H30.0852C30.2487 4.015 30.4016 3.93503 30.4921 3.8029L32.1089 1.4941C32.248 1.2959 32.1054 1.02121 31.862 1.02121H18.3534C18.1622 1.02121 18.0057 1.17768 18.0057 1.36892V15.639C18.0057 15.8302 18.1622 15.9867 18.3534 15.9867H31.8655C32.1089 15.9867 32.2515 15.712 32.1124 15.5138L30.4955 13.205C30.4016 13.0694 30.2487 12.9894 30.0852 12.9894Z" fill="#FF0000"/>
<path d="M113.877 12.9894H105.525C105.333 12.9894 105.177 12.833 105.177 12.6417V9.9713C105.177 9.78006 105.333 9.62359 105.525 9.62359H113.251C113.442 9.62359 113.599 9.46712 113.599 9.27588V7.28001C113.599 7.08877 113.442 6.9323 113.251 6.9323H105.525C105.333 6.9323 105.177 6.77583 105.177 6.58459V4.36272C105.177 4.17147 105.333 4.015 105.525 4.015H113.877C114.04 4.015 114.193 3.93503 114.287 3.8029L115.904 1.4941C116.043 1.2959 115.9 1.02121 115.657 1.02121H101.933C101.742 1.02121 101.585 1.17768 101.585 1.36892V15.639C101.585 15.8302 101.742 15.9867 101.933 15.9867H115.657C115.9 15.9867 116.043 15.712 115.904 15.5138L114.287 13.205C114.193 13.0694 114.04 12.9894 113.877 12.9894Z" fill="#FF0000"/>
<path d="M66.0385 15.5348L64.745 13.2434C64.6581 13.0869 64.4912 12.9896 64.3104 12.9896H55.0126L64.9606 4.11944C65.0684 4.02556 65.1275 3.88995 65.1275 3.74739V1.36556C65.1275 1.17432 64.9711 1.01785 64.7798 1.01785H50.8714C50.6419 1.01785 50.4958 1.26473 50.6106 1.4664L51.9041 3.75782C51.991 3.91429 52.1579 4.01165 52.3387 4.01165H60.1726L50.628 12.5341C50.5236 12.6279 50.4611 12.7635 50.4611 12.9061V15.4896C50.4611 15.7643 50.6836 15.9868 50.9583 15.9868H65.7743C66.0072 15.9833 66.1533 15.7365 66.0385 15.5348Z" fill="#FF0000"/>
<path d="M82.4401 4.81133C82.2802 2.81894 80.4199 0.882191 78.4171 0.645747C78.4171 0.64227 78.4171 0.64227 78.4171 0.638793C76.8385 0.496232 72.7181 0.468415 70.8579 0.638793C70.8579 0.64227 70.8579 0.64227 70.8579 0.645747C68.8551 0.882191 66.9913 2.81894 66.8348 4.81133C66.5949 7.82251 66.5949 9.18206 66.8348 12.1932C66.9948 14.1856 68.8551 16.1224 70.8579 16.3588C70.8579 16.3623 70.8579 16.3623 70.8579 16.3658C72.4365 16.5083 76.8385 16.5083 78.4171 16.3658C78.4171 16.3623 78.4171 16.3623 78.4171 16.3588C80.4199 16.1224 82.2802 14.1856 82.4401 12.1932C82.6801 9.18206 82.6801 7.82599 82.4401 4.81133ZM78.7753 12.1411C78.7335 12.7252 78.2433 13.2225 77.6939 13.2503C76.2822 13.3129 72.9893 13.3129 71.5776 13.2503C71.0248 13.2259 70.5345 12.7252 70.4962 12.1411C70.2911 9.18902 70.2911 7.82251 70.4962 4.86696C70.538 4.28629 71.0282 3.78558 71.5776 3.76124C72.9859 3.69865 76.2752 3.69865 77.6939 3.76124C78.2467 3.78558 78.737 4.28629 78.7753 4.86696C78.9804 7.82251 78.9804 9.18902 78.7753 12.1411Z" fill="#FF0000"/>
<path d="M95.6948 2.40515V11.1397L88.6711 1.22989C88.5772 1.09776 88.4277 1.02126 88.2642 1.02126H85.0514C84.8601 1.02126 84.7037 1.17773 84.7037 1.36897V16.6926C84.7037 16.936 84.9784 17.0786 85.1766 16.9395L87.9478 14.9993C88.0799 14.9054 88.1599 14.7524 88.1599 14.589V5.85792L95.1837 15.7642C95.2776 15.8964 95.4306 15.9763 95.5905 15.9763H98.8034C98.9946 15.9763 99.1511 15.8199 99.1511 15.6286V0.301497C99.1511 0.0580986 98.8764 -0.0844631 98.6782 0.0546214L95.9069 1.99485C95.7748 2.09221 95.6948 2.24173 95.6948 2.40515Z" fill="#FF0000"/>
<path d="M45.4992 1.36544L41.9109 12.7808C41.8726 12.906 41.7544 12.9894 41.6257 12.9894H41.0033C40.8712 12.9894 40.7565 12.906 40.7182 12.7808L37.1298 1.36544C37.0638 1.15682 36.8725 1.01773 36.6535 1.01773H33.3015C33.0999 1.01773 32.9538 1.21593 33.0164 1.40717L37.488 15.6355C37.554 15.8441 37.7453 15.9867 37.9643 15.9867H44.6647C44.8838 15.9867 45.075 15.8441 45.1411 15.6355L49.6127 1.40717C49.6718 1.21245 49.5292 1.01773 49.3276 1.01773H45.9756C45.76 1.01425 45.5653 1.15682 45.4992 1.36544Z" fill="#FF0000"/>
</svg>
