<svg width="50" height="46" viewBox="0 0 50 46" fill="none" xmlns="http://www.w3.org/2000/svg">
<path d="M29.25 42.3751C27 42.3751 24.75 42.3751 22.5 42.3751C22.5 42.1251 22.5 42.0001 22.5 41.7501C22.5 39.2501 22.5 36.7501 22.5 34.1251C22.5 32.5001 21.375 31.5001 19.75 31.3751C18.5 31.3751 17.25 31.3751 16 31.3751C14.25 31.3751 13.125 32.5001 13.125 34.2501C13.125 36.7501 13.125 39.2501 13.125 41.7501C13.125 41.8751 13.125 42.1251 13.125 42.2501C11.25 42.2501 9.375 42.2501 7.625 42.2501C7 41.8751 6.5 41.5001 6.5 40.6251C6.5 29.6251 6.5 18.6251 6.5 7.62507C6.5 6.00007 7.875 4.75007 9.5 4.87507C10.75 5.00007 12 5.25007 13.25 5.37507C17.625 6.25007 21.875 6.87507 26.25 7.50007C26.875 7.62507 27.375 7.62507 27.875 8.00007C28.875 8.62507 29.25 9.62507 29.25 10.7501C29.25 21.1251 29.25 31.5001 29.25 41.8751C29.25 42.0001 29.25 42.1251 29.25 42.3751ZM14 13.7501C14.375 13.7501 14.75 13.7501 15.125 13.7501H15.25C15.875 13.7501 16.25 13.2501 16.25 12.6251C16.25 12.0001 15.875 11.5001 15.25 11.5001C14.375 11.5001 13.5 11.5001 12.75 11.5001C12.125 11.5001 11.75 12.0001 11.75 12.6251C11.75 13.2501 12.125 13.7501 12.75 13.7501C13.125 13.7501 13.625 13.7501 14 13.7501ZM14 18.3751C14.375 18.3751 14.875 18.3751 15.25 18.3751C15.875 18.3751 16.25 17.8751 16.375 17.2501C16.375 16.6251 15.875 16.1251 15.375 16.1251C14.5 16.1251 13.75 16.1251 12.875 16.1251C12.25 16.1251 11.875 16.6251 11.875 17.2501C11.875 17.8751 12.25 18.2501 12.875 18.3751C13.125 18.3751 13.5 18.3751 14 18.3751ZM14 23.1251C14.375 23.1251 14.75 23.1251 15.25 23.1251C15.875 23.1251 16.375 22.6251 16.375 22.0001C16.375 21.3751 15.875 20.8751 15.375 20.8751C14.5 20.8751 13.75 20.8751 12.875 20.8751C12.25 20.8751 11.875 21.3751 11.875 22.0001C11.875 22.6251 12.25 23.0001 12.875 23.1251C13.125 23.1251 13.625 23.1251 14 23.1251ZM14 27.7501C14.375 27.7501 14.875 27.7501 15.25 27.7501C15.875 27.7501 16.25 27.2501 16.25 26.6251C16.25 26.0001 15.875 25.5001 15.25 25.5001C14.375 25.5001 13.5 25.5001 12.75 25.5001C12.125 25.5001 11.75 26.0001 11.75 26.6251C11.75 27.2501 12.125 27.7501 12.75 27.7501C13.125 27.7501 13.5 27.7501 14 27.7501ZM21.75 13.7501C22.125 13.7501 22.625 13.7501 23 13.7501C23.625 13.7501 24 13.2501 24 12.6251C24 12.0001 23.5 11.5001 23 11.5001C22.125 11.5001 21.375 11.5001 20.5 11.5001C19.875 11.5001 19.5 12.0001 19.5 12.6251C19.5 13.2501 20 13.7501 20.625 13.7501C21 13.7501 21.375 13.7501 21.75 13.7501ZM21.75 18.3751C22.125 18.3751 22.5 18.3751 22.875 18.3751H23C23.625 18.3751 24 17.8751 24 17.2501C24 16.6251 23.5 16.1251 23 16.1251C22.125 16.1251 21.375 16.1251 20.5 16.1251C19.875 16.1251 19.5 16.6251 19.5 17.2501C19.5 17.8751 20 18.3751 20.625 18.3751C21 18.3751 21.375 18.3751 21.75 18.3751ZM21.75 23.1251C22.125 23.1251 22.5 23.1251 23 23.1251C23.625 23.1251 24.125 22.6251 24.125 22.0001C24.125 21.3751 23.625 20.8751 23 20.8751C22.125 20.8751 21.375 20.8751 20.5 20.8751C19.875 20.8751 19.375 21.3751 19.375 22.0001C19.375 22.6251 19.875 23.1251 20.5 23.1251C21 23.1251 21.375 23.1251 21.75 23.1251ZM21.75 27.7501C22.125 27.7501 22.625 27.7501 23 27.7501C23.625 27.7501 24 27.2501 24.125 26.6251C24.125 26.0001 23.625 25.5001 23 25.5001C22.125 25.5001 21.375 25.5001 20.5 25.5001C19.875 25.5001 19.375 26.0001 19.375 26.6251C19.375 27.2501 19.875 27.7501 20.5 27.7501C21 27.7501 21.375 27.7501 21.75 27.7501Z" fill="#FF0000"/>
<path d="M30.75 42.3751C30.75 42.2501 30.75 42.0001 30.75 41.8751C30.75 34.6251 30.75 27.3751 30.75 20.1251C30.75 19.5001 30.75 19.3751 31.375 19.6251C34.75 20.3751 38.25 21.1251 41.625 21.7501C42.875 22.0001 43.625 22.7501 44 24.0001C44 29.5001 44 34.8751 44 40.3751C43.625 41.5001 43 42.1251 41.875 42.5001C38.125 42.3751 34.375 42.3751 30.75 42.3751ZM37 25.8751C36.625 25.8751 36.25 25.8751 36 25.8751C35.25 25.8751 34.75 26.3751 34.75 27.0001C34.75 27.6251 35.25 28.1251 36 28.1251C36.75 28.1251 37.375 28.1251 38.125 28.1251C38.875 28.1251 39.375 27.6251 39.375 27.0001C39.375 26.3751 38.875 25.8751 38.125 25.8751C37.75 25.8751 37.375 25.8751 37 25.8751ZM37 32.8751C37.375 32.8751 37.75 32.8751 38.125 32.8751C38.75 32.8751 39.375 32.3751 39.375 31.7501C39.375 31.1251 38.875 30.6251 38.125 30.6251C37.375 30.6251 36.625 30.6251 35.875 30.6251C35.125 30.6251 34.625 31.1251 34.625 31.7501C34.625 32.3751 35.125 32.8751 35.875 32.8751C36.25 32.8751 36.625 32.8751 37 32.8751ZM37 37.6251C37.375 37.6251 37.75 37.6251 38.125 37.6251C38.875 37.6251 39.375 37.1251 39.375 36.5001C39.375 35.8751 38.875 35.3751 38.125 35.3751C37.375 35.3751 36.625 35.3751 36 35.3751C35.25 35.3751 34.75 35.8751 34.75 36.5001C34.75 37.1251 35.25 37.6251 36 37.6251C36.25 37.6251 36.625 37.6251 37 37.6251Z" fill="#FF0000"/>
</svg>
