<svg width="50" height="46" viewBox="0 0 50 46" fill="none" xmlns="http://www.w3.org/2000/svg">
<path d="M29.25 42.3748C27 42.3748 24.75 42.3748 22.5 42.3748C22.5 42.1248 22.5 41.9998 22.5 41.7498C22.5 39.2498 22.5 36.7498 22.5 34.1248C22.5 32.4998 21.375 31.4998 19.75 31.3748C18.5 31.3748 17.25 31.3748 16 31.3748C14.25 31.3748 13.125 32.4998 13.125 34.2498C13.125 36.7498 13.125 39.2498 13.125 41.7498C13.125 41.8748 13.125 42.1248 13.125 42.2498C11.25 42.2498 9.375 42.2498 7.625 42.2498C7 41.8748 6.5 41.4998 6.5 40.6248C6.5 29.6248 6.5 18.6248 6.5 7.62483C6.5 5.99983 7.875 4.74983 9.5 4.87483C10.75 4.99983 12 5.24983 13.25 5.37483C17.625 6.24983 21.875 6.87483 26.25 7.49983C26.875 7.62483 27.375 7.62483 27.875 7.99983C28.875 8.62483 29.25 9.62483 29.25 10.7498C29.25 21.1248 29.25 31.4998 29.25 41.8748C29.25 41.9998 29.25 42.1248 29.25 42.3748ZM14 13.7498C14.375 13.7498 14.75 13.7498 15.125 13.7498H15.25C15.875 13.7498 16.25 13.2498 16.25 12.6248C16.25 11.9998 15.875 11.4998 15.25 11.4998C14.375 11.4998 13.5 11.4998 12.75 11.4998C12.125 11.4998 11.75 11.9998 11.75 12.6248C11.75 13.2498 12.125 13.7498 12.75 13.7498C13.125 13.7498 13.625 13.7498 14 13.7498ZM14 18.3748C14.375 18.3748 14.875 18.3748 15.25 18.3748C15.875 18.3748 16.25 17.8748 16.375 17.2498C16.375 16.6248 15.875 16.1248 15.375 16.1248C14.5 16.1248 13.75 16.1248 12.875 16.1248C12.25 16.1248 11.875 16.6248 11.875 17.2498C11.875 17.8748 12.25 18.2498 12.875 18.3748C13.125 18.3748 13.5 18.3748 14 18.3748ZM14 23.1248C14.375 23.1248 14.75 23.1248 15.25 23.1248C15.875 23.1248 16.375 22.6248 16.375 21.9998C16.375 21.3748 15.875 20.8748 15.375 20.8748C14.5 20.8748 13.75 20.8748 12.875 20.8748C12.25 20.8748 11.875 21.3748 11.875 21.9998C11.875 22.6248 12.25 22.9998 12.875 23.1248C13.125 23.1248 13.625 23.1248 14 23.1248ZM14 27.7498C14.375 27.7498 14.875 27.7498 15.25 27.7498C15.875 27.7498 16.25 27.2498 16.25 26.6248C16.25 25.9998 15.875 25.4998 15.25 25.4998C14.375 25.4998 13.5 25.4998 12.75 25.4998C12.125 25.4998 11.75 25.9998 11.75 26.6248C11.75 27.2498 12.125 27.7498 12.75 27.7498C13.125 27.7498 13.5 27.7498 14 27.7498ZM21.75 13.7498C22.125 13.7498 22.625 13.7498 23 13.7498C23.625 13.7498 24 13.2498 24 12.6248C24 11.9998 23.5 11.4998 23 11.4998C22.125 11.4998 21.375 11.4998 20.5 11.4998C19.875 11.4998 19.5 11.9998 19.5 12.6248C19.5 13.2498 20 13.7498 20.625 13.7498C21 13.7498 21.375 13.7498 21.75 13.7498ZM21.75 18.3748C22.125 18.3748 22.5 18.3748 22.875 18.3748H23C23.625 18.3748 24 17.8748 24 17.2498C24 16.6248 23.5 16.1248 23 16.1248C22.125 16.1248 21.375 16.1248 20.5 16.1248C19.875 16.1248 19.5 16.6248 19.5 17.2498C19.5 17.8748 20 18.3748 20.625 18.3748C21 18.3748 21.375 18.3748 21.75 18.3748ZM21.75 23.1248C22.125 23.1248 22.5 23.1248 23 23.1248C23.625 23.1248 24.125 22.6248 24.125 21.9998C24.125 21.3748 23.625 20.8748 23 20.8748C22.125 20.8748 21.375 20.8748 20.5 20.8748C19.875 20.8748 19.375 21.3748 19.375 21.9998C19.375 22.6248 19.875 23.1248 20.5 23.1248C21 23.1248 21.375 23.1248 21.75 23.1248ZM21.75 27.7498C22.125 27.7498 22.625 27.7498 23 27.7498C23.625 27.7498 24 27.2498 24.125 26.6248C24.125 25.9998 23.625 25.4998 23 25.4998C22.125 25.4998 21.375 25.4998 20.5 25.4998C19.875 25.4998 19.375 25.9998 19.375 26.6248C19.375 27.2498 19.875 27.7498 20.5 27.7498C21 27.7498 21.375 27.7498 21.75 27.7498Z" fill="#7A7C7E"/>
<path d="M30.75 42.3746C30.75 42.2496 30.75 41.9996 30.75 41.8746C30.75 34.6246 30.75 27.3746 30.75 20.1246C30.75 19.4996 30.75 19.3746 31.375 19.6246C34.75 20.3746 38.25 21.1246 41.625 21.7496C42.875 21.9996 43.625 22.7496 44 23.9996C44 29.4996 44 34.8746 44 40.3746C43.625 41.4996 43 42.1246 41.875 42.4996C38.125 42.3746 34.375 42.3746 30.75 42.3746ZM37 25.8746C36.625 25.8746 36.25 25.8746 36 25.8746C35.25 25.8746 34.75 26.3746 34.75 26.9996C34.75 27.6246 35.25 28.1246 36 28.1246C36.75 28.1246 37.375 28.1246 38.125 28.1246C38.875 28.1246 39.375 27.6246 39.375 26.9996C39.375 26.3746 38.875 25.8746 38.125 25.8746C37.75 25.8746 37.375 25.8746 37 25.8746ZM37 32.8746C37.375 32.8746 37.75 32.8746 38.125 32.8746C38.75 32.8746 39.375 32.3746 39.375 31.7496C39.375 31.1246 38.875 30.6246 38.125 30.6246C37.375 30.6246 36.625 30.6246 35.875 30.6246C35.125 30.6246 34.625 31.1246 34.625 31.7496C34.625 32.3746 35.125 32.8746 35.875 32.8746C36.25 32.8746 36.625 32.8746 37 32.8746ZM37 37.6246C37.375 37.6246 37.75 37.6246 38.125 37.6246C38.875 37.6246 39.375 37.1246 39.375 36.4996C39.375 35.8746 38.875 35.3746 38.125 35.3746C37.375 35.3746 36.625 35.3746 36 35.3746C35.25 35.3746 34.75 35.8746 34.75 36.4996C34.75 37.1246 35.25 37.6246 36 37.6246C36.25 37.6246 36.625 37.6246 37 37.6246Z" fill="#7A7C7E"/>
</svg>
