<svg width="50" height="50" viewBox="0 0 50 50" fill="none" xmlns="http://www.w3.org/2000/svg">
<path d="M45.6072 26.3568C45.6072 29.3284 45.6072 32.3 45.6072 35.4008C45.6072 35.7883 45.478 35.9175 45.2196 36.0467C41.2144 38.1139 37.0801 40.1811 33.0749 42.1191C31.1369 43.1527 29.1989 44.0571 27.2609 45.0907C26.7441 45.3491 26.7441 45.3491 26.7441 44.8323C26.7441 38.7599 26.7441 32.8168 26.7441 26.7444C26.7441 26.3568 26.8733 26.2276 27.2609 26.0984C31.9121 23.7728 36.4341 21.4473 41.0852 19.1217C42.5064 18.4757 43.7984 17.7005 45.2196 17.0545C45.7364 16.7961 45.7364 16.7961 45.7364 17.4421C45.6072 20.2845 45.6072 23.3852 45.6072 26.3568Z" fill="#7A7C7E"/>
<path d="M19.3799 30.1036C19.3799 28.1656 19.3799 26.3568 19.3799 24.548C19.3799 24.1604 19.3799 23.902 19.3799 23.5144C19.3799 23.256 19.5091 23.1268 19.7675 23.256C21.7054 24.2896 23.6434 25.194 25.5814 26.2276C25.7106 26.3568 25.8398 26.486 25.8398 26.6152C25.8398 26.7444 25.8398 26.8736 25.8398 27.0028C25.8398 32.946 25.8398 38.7599 25.8398 44.7031C25.8398 44.8323 25.8398 44.9615 25.8398 45.0907C25.8398 45.2199 25.7106 45.3491 25.5814 45.2199C25.4522 45.2199 25.323 45.0907 25.323 45.0907C19.3799 42.1191 13.4367 39.0183 7.49355 36.0467C7.10596 35.9175 7.10596 35.6591 7.10596 35.2715C7.10596 29.3284 7.10596 23.256 7.10596 17.3129C7.10596 16.7961 7.10596 16.7961 7.62275 17.0545C9.68994 18.0881 11.6279 19.1217 13.6951 20.1553C13.9535 20.2845 14.0827 20.5429 14.0827 20.8013C14.0827 22.8685 14.0827 24.8064 14.0827 26.8736C14.0827 27.2612 14.2119 27.3904 14.5995 27.3904C15.2455 27.3904 15.7623 27.3904 16.4083 27.3904C16.6667 27.3904 16.9251 27.5196 17.0543 27.6488C17.7003 28.424 18.4755 29.1992 19.3799 30.1036Z" fill="#7A7C7E"/>
<path d="M38.1137 12.4033C38.2429 12.4033 38.2429 12.5325 38.3721 12.5325C40.4393 13.5661 42.5065 14.5997 44.5737 15.6333C44.7029 15.6333 44.8321 15.7625 44.8321 15.8917C44.8321 16.0209 44.5737 16.0209 44.5737 16.1501C38.6305 19.1217 32.5582 22.2224 26.615 25.194C26.3566 25.3232 26.2274 25.3232 25.969 25.194C24.031 24.2896 22.2223 23.256 20.2843 22.3516C20.1551 22.3516 20.0259 22.2224 20.0259 22.0932C20.0259 21.964 20.1551 21.964 20.2843 21.8348C26.0982 18.7341 31.9122 15.6333 37.7261 12.5325C37.8553 12.5325 37.9845 12.5325 38.1137 12.4033Z" fill="#7A7C7E"/>
<path d="M32.5582 9.69006C32.5582 9.81926 32.429 9.94846 32.2998 9.94846C30.7494 10.7236 29.199 11.628 27.7778 12.4032C23.5142 14.7288 19.2507 16.9252 15.1163 19.2508C14.7287 19.5092 14.4703 19.5092 13.9535 19.2508C12.0155 18.2172 10.0775 17.3128 8.13955 16.2792C8.01035 16.15 7.75195 16.15 7.75195 16.0208C7.75195 15.8916 8.01035 15.7624 8.13955 15.7624C12.6615 13.4368 17.0543 11.2404 21.5762 8.91486C22.9974 8.13967 24.5478 7.49368 25.969 6.71848C26.2274 6.58928 26.4858 6.58928 26.8734 6.71848C28.6822 7.62287 30.491 8.52727 32.429 9.56086C32.2998 9.43166 32.429 9.56086 32.5582 9.69006Z" fill="#7A7C7E"/>
</svg>
