<svg width="50" height="50" viewBox="0 0 50 50" fill="none" xmlns="http://www.w3.org/2000/svg">
<path d="M45.6072 26.3566C45.6072 29.3282 45.6072 32.2997 45.6072 35.4005C45.6072 35.7881 45.478 35.9173 45.2196 36.0465C41.2144 38.1137 37.0801 40.1809 33.0749 42.1189C31.1369 43.1524 29.1989 44.0568 27.2609 45.0904C26.7441 45.3488 26.7441 45.3488 26.7441 44.832C26.7441 38.7597 26.7441 32.8165 26.7441 26.7442C26.7441 26.3566 26.8733 26.2274 27.2609 26.0982C31.9121 23.7726 36.4341 21.447 41.0852 19.1214C42.5064 18.4754 43.7984 17.7003 45.2196 17.0543C45.7364 16.7959 45.7364 16.7959 45.7364 17.4419C45.6072 20.2842 45.6072 23.385 45.6072 26.3566Z" fill="#FF0000"/>
<path d="M19.3799 30.1033C19.3799 28.1654 19.3799 26.3566 19.3799 24.5478C19.3799 24.1602 19.3799 23.9018 19.3799 23.5142C19.3799 23.2558 19.5091 23.1266 19.7675 23.2558C21.7054 24.2894 23.6434 25.1938 25.5814 26.2274C25.7106 26.3566 25.8398 26.4858 25.8398 26.615C25.8398 26.7442 25.8398 26.8734 25.8398 27.0026C25.8398 32.9457 25.8398 38.7597 25.8398 44.7028C25.8398 44.832 25.8398 44.9612 25.8398 45.0904C25.8398 45.2196 25.7106 45.3488 25.5814 45.2196C25.4522 45.2196 25.323 45.0904 25.323 45.0904C19.3799 42.1189 13.4367 39.0181 7.49355 36.0465C7.10596 35.9173 7.10596 35.6589 7.10596 35.2713C7.10596 29.3282 7.10596 23.2558 7.10596 17.3126C7.10596 16.7959 7.10596 16.7959 7.62275 17.0543C9.68994 18.0878 11.6279 19.1214 13.6951 20.155C13.9535 20.2842 14.0827 20.5426 14.0827 20.801C14.0827 22.8682 14.0827 24.8062 14.0827 26.8734C14.0827 27.261 14.2119 27.3902 14.5995 27.3902C15.2455 27.3902 15.7623 27.3902 16.4083 27.3902C16.6667 27.3902 16.9251 27.5194 17.0543 27.6486C17.7003 28.4238 18.4755 29.199 19.3799 30.1033Z" fill="#FF0000"/>
<path d="M38.1137 12.4031C38.2429 12.4031 38.2429 12.5323 38.3721 12.5323C40.4393 13.5659 42.5065 14.5995 44.5737 15.633C44.7029 15.633 44.8321 15.7622 44.8321 15.8914C44.8321 16.0206 44.5737 16.0206 44.5737 16.1498C38.6305 19.1214 32.5582 22.2222 26.615 25.1938C26.3566 25.323 26.2274 25.323 25.969 25.1938C24.031 24.2894 22.2223 23.2558 20.2843 22.3514C20.1551 22.3514 20.0259 22.2222 20.0259 22.093C20.0259 21.9638 20.1551 21.9638 20.2843 21.8346C26.0982 18.7338 31.9122 15.633 37.7261 12.5323C37.8553 12.5323 37.9845 12.5323 38.1137 12.4031Z" fill="#FF0000"/>
<path d="M32.5582 9.68981C32.5582 9.81901 32.429 9.94821 32.2998 9.94821C30.7494 10.7234 29.199 11.6278 27.7778 12.403C23.5142 14.7286 19.2507 16.925 15.1163 19.2505C14.7287 19.5089 14.4703 19.5089 13.9535 19.2505C12.0155 18.2169 10.0775 17.3126 8.13955 16.279C8.01035 16.1498 7.75195 16.1498 7.75195 16.0206C7.75195 15.8914 8.01035 15.7622 8.13955 15.7622C12.6615 13.4366 17.0543 11.2402 21.5762 8.91462C22.9974 8.13943 24.5478 7.49343 25.969 6.71824C26.2274 6.58904 26.4858 6.58904 26.8734 6.71824C28.6822 7.62263 30.491 8.52702 32.429 9.56061C32.2998 9.43142 32.429 9.56061 32.5582 9.68981Z" fill="#FF0000"/>
</svg>
