<svg width="50" height="50" viewBox="0 0 50 50" fill="none" xmlns="http://www.w3.org/2000/svg">
<path d="M3.64575 10.4167C2.78117 10.4167 2.08325 11.1147 2.08325 11.9792C2.08325 12.8438 2.78117 13.5417 3.64575 13.5417H17.1874C18.052 13.5417 18.7499 14.2397 18.7499 15.1042C18.7499 15.9688 18.052 16.6667 17.1874 16.6667H3.64575C2.78117 16.6667 2.08325 17.3647 2.08325 18.2292C2.08325 19.0938 2.78117 19.7917 3.64575 19.7917H13.0208C13.8853 19.7917 14.5833 20.4897 14.5833 21.3542C14.5833 22.2188 13.8853 22.9167 13.0208 22.9167H3.64575C2.78117 22.9167 2.08325 23.6147 2.08325 24.4792C2.08325 25.3438 2.78117 26.0417 3.64575 26.0417H8.85408C9.71867 26.0417 10.4166 26.7397 10.4166 27.6042C10.4166 28.4688 9.71867 29.1667 8.85408 29.1667H3.64575C2.78117 29.1667 2.08325 29.8647 2.08325 30.7292V32.8126C2.08325 35.3959 4.18742 37.5001 6.77075 37.5001H7.51335C8.19671 39.8997 10.4066 41.6667 13.0208 41.6667C15.635 41.6667 17.8448 39.8997 18.5282 37.5001H28.1249V15.1042C28.1249 12.5209 26.0208 10.4167 23.4374 10.4167H3.64575ZM31.2499 14.5834V35.9376C31.2499 39.0938 33.8228 41.6667 36.9791 41.6667C39.5933 41.6667 41.8031 39.8997 42.4865 37.5001H43.2291C45.8228 37.5001 47.9166 35.4063 47.9166 32.8126V26.1882C47.9166 25.532 47.7805 24.8757 47.5097 24.2819L44.4376 17.3646C43.6876 15.6771 42.0111 14.5834 40.157 14.5834H31.2499ZM35.4166 17.7084H40.157C40.7747 17.7084 41.3332 18.0716 41.5832 18.6361L43.2962 22.4936C43.6025 23.1821 43.0992 23.9584 42.3461 23.9584H35.4166C34.8416 23.9584 34.3749 23.4917 34.3749 22.9167V18.7501C34.3749 18.1751 34.8416 17.7084 35.4166 17.7084ZM13.0208 33.3334C14.4583 33.3334 15.6249 34.5001 15.6249 35.9376C15.6249 37.3751 14.4583 38.5417 13.0208 38.5417C11.5833 38.5417 10.4166 37.3751 10.4166 35.9376C10.4166 34.5001 11.5833 33.3334 13.0208 33.3334ZM36.9791 33.3334C38.4166 33.3334 39.5833 34.5001 39.5833 35.9376C39.5833 37.3751 38.4166 38.5417 36.9791 38.5417C35.5416 38.5417 34.3749 37.3751 34.3749 35.9376C34.3749 34.5001 35.5416 33.3334 36.9791 33.3334Z" fill="#FF0000"/>
</svg>
