<svg width="50" height="50" viewBox="0 0 50 50" fill="none" xmlns="http://www.w3.org/2000/svg">
<path d="M3.64575 10.4165C2.78117 10.4165 2.08325 11.1144 2.08325 11.979C2.08325 12.8436 2.78117 13.5415 3.64575 13.5415H17.1874C18.052 13.5415 18.7499 14.2394 18.7499 15.104C18.7499 15.9686 18.052 16.6665 17.1874 16.6665H3.64575C2.78117 16.6665 2.08325 17.3644 2.08325 18.229C2.08325 19.0936 2.78117 19.7915 3.64575 19.7915H13.0208C13.8853 19.7915 14.5833 20.4894 14.5833 21.354C14.5833 22.2186 13.8853 22.9165 13.0208 22.9165H3.64575C2.78117 22.9165 2.08325 23.6144 2.08325 24.479C2.08325 25.3436 2.78117 26.0415 3.64575 26.0415H8.85408C9.71867 26.0415 10.4166 26.7394 10.4166 27.604C10.4166 28.4686 9.71867 29.1665 8.85408 29.1665H3.64575C2.78117 29.1665 2.08325 29.8644 2.08325 30.729V32.8123C2.08325 35.3957 4.18742 37.4998 6.77075 37.4998H7.51335C8.19671 39.8995 10.4066 41.6665 13.0208 41.6665C15.635 41.6665 17.8448 39.8995 18.5282 37.4998H28.1249V15.104C28.1249 12.5207 26.0208 10.4165 23.4374 10.4165H3.64575ZM31.2499 14.5832V35.9373C31.2499 39.0936 33.8228 41.6665 36.9791 41.6665C39.5933 41.6665 41.8031 39.8995 42.4865 37.4998H43.2291C45.8228 37.4998 47.9166 35.4061 47.9166 32.8123V26.188C47.9166 25.5317 47.7805 24.8754 47.5097 24.2817L44.4376 17.3643C43.6876 15.6768 42.0111 14.5832 40.157 14.5832H31.2499ZM35.4166 17.7082H40.157C40.7747 17.7082 41.3332 18.0713 41.5832 18.6359L43.2962 22.4933C43.6025 23.1819 43.0992 23.9582 42.3461 23.9582H35.4166C34.8416 23.9582 34.3749 23.4915 34.3749 22.9165V18.7498C34.3749 18.1748 34.8416 17.7082 35.4166 17.7082ZM13.0208 33.3332C14.4583 33.3332 15.6249 34.4998 15.6249 35.9373C15.6249 37.3748 14.4583 38.5415 13.0208 38.5415C11.5833 38.5415 10.4166 37.3748 10.4166 35.9373C10.4166 34.4998 11.5833 33.3332 13.0208 33.3332ZM36.9791 33.3332C38.4166 33.3332 39.5833 34.4998 39.5833 35.9373C39.5833 37.3748 38.4166 38.5415 36.9791 38.5415C35.5416 38.5415 34.3749 37.3748 34.3749 35.9373C34.3749 34.4998 35.5416 33.3332 36.9791 33.3332Z" fill="#7A7C7E"/>
</svg>
