<svg width="569" height="50" viewBox="0 0 569 50" fill="none" xmlns="http://www.w3.org/2000/svg">
<path d="M38 36.9996C38 27.6156 38 18.2209 38 8.83696C38.2138 8.03536 38.5237 7.27652 39.0688 6.63525C39.8063 5.76953 40.7575 5.27789 41.837 5C48.9337 5 56.0198 5 63.1166 5C63.17 5.02138 63.2128 5.03206 63.2662 5.05344C65.639 5.64127 67.0604 7.44753 67.0604 9.89506C67.0604 15.1749 67.0604 20.4547 67.0711 25.7346C67.0711 26.0659 66.9856 26.3117 66.7505 26.5468C63.5441 29.7318 60.3484 32.9275 57.1421 36.1232C56.4153 36.85 55.913 37.6943 55.7206 38.7097C55.6137 39.2761 55.4961 39.8319 55.4213 40.3984C55.3786 40.7938 55.1969 40.89 54.8228 40.89C50.7614 40.8793 46.6893 40.8793 42.6279 40.8793C41.6339 40.8793 40.7468 40.5694 39.9345 39.9922C38.8871 39.2441 38.3099 38.2073 38 36.9996ZM52.4821 18.7019C49.9384 18.7019 47.3947 18.6912 44.8403 18.7019C43.9104 18.7019 43.173 19.4394 43.1623 20.3372C43.1516 21.2243 43.8997 21.9938 44.8189 22.0045C49.9491 22.0152 55.0793 22.0045 60.2095 22.0045C60.5408 22.0045 60.8401 21.8976 61.1073 21.7159C61.7058 21.3098 61.973 20.5723 61.7699 19.8883C61.5669 19.1936 60.9363 18.7019 60.1881 18.7019C57.6337 18.7019 55.0579 18.7019 52.4821 18.7019ZM49.0941 28.8234C50.4942 28.8234 51.8943 28.8234 53.2944 28.8234C53.6685 28.8234 54.0105 28.7485 54.3098 28.5348C54.8869 28.1287 55.1541 27.4019 54.9617 26.7392C54.7373 25.9697 54.1174 25.5101 53.2517 25.5101C50.4942 25.4994 47.7367 25.5101 44.9792 25.5101C44.6051 25.5101 44.2417 25.5956 43.9211 25.8094C43.3226 26.2155 43.0661 26.9423 43.2585 27.637C43.4508 28.321 44.0494 28.8127 44.7868 28.8127C46.219 28.834 47.6512 28.8234 49.0941 28.8234ZM48.2497 11.883C47.1382 11.883 46.0373 11.883 44.9258 11.883C44.6586 11.883 44.3914 11.9044 44.1456 12.022C43.4829 12.3319 43.0661 13.0801 43.1943 13.7534C43.3547 14.6084 43.9639 15.1856 44.8616 15.1856C47.1168 15.207 49.3719 15.207 51.6164 15.1856C52.589 15.1749 53.3265 14.4054 53.3158 13.5076C53.3158 12.5777 52.5676 11.883 51.5523 11.8723C50.4621 11.883 49.3506 11.883 48.2497 11.883Z" fill="#FF0000"/>
<path d="M78.9982 29.9244C79.0089 30.6298 78.7738 31.2497 78.3249 31.8055C78.1859 31.9765 78.0256 32.1475 77.8653 32.3078C73.8466 36.3372 69.8173 40.3558 65.7986 44.3852C65.3604 44.8234 64.8795 45.0799 64.2809 45.1761C62.7846 45.4219 61.2883 45.6998 59.792 45.9563C58.6377 46.1594 57.911 45.4219 58.114 44.2462C58.3919 42.6751 58.6698 41.104 58.937 39.5222C59.0118 39.116 59.1721 38.774 59.4714 38.4748C63.6397 34.3172 67.808 30.1489 71.9762 25.9806C72.3076 25.6493 72.671 25.3607 73.0985 25.1469C74.0925 24.666 75.1506 24.8049 75.9522 25.5744C76.711 26.3012 77.4485 27.0494 78.1859 27.8082C78.7417 28.396 79.0196 29.1015 78.9982 29.9244Z" fill="#FF0000"/>
<path d="M212.25 42.3748C210 42.3748 207.75 42.3748 205.5 42.3748C205.5 42.1248 205.5 41.9998 205.5 41.7498C205.5 39.2498 205.5 36.7498 205.5 34.1248C205.5 32.4998 204.375 31.4998 202.75 31.3748C201.5 31.3748 200.25 31.3748 199 31.3748C197.25 31.3748 196.125 32.4998 196.125 34.2498C196.125 36.7498 196.125 39.2498 196.125 41.7498C196.125 41.8748 196.125 42.1248 196.125 42.2498C194.25 42.2498 192.375 42.2498 190.625 42.2498C190 41.8748 189.5 41.4998 189.5 40.6248C189.5 29.6248 189.5 18.6248 189.5 7.62483C189.5 5.99983 190.875 4.74983 192.5 4.87483C193.75 4.99983 195 5.24983 196.25 5.37483C200.625 6.24983 204.875 6.87483 209.25 7.49983C209.875 7.62483 210.375 7.62483 210.875 7.99983C211.875 8.62483 212.25 9.62483 212.25 10.7498C212.25 21.1248 212.25 31.4998 212.25 41.8748C212.25 41.9998 212.25 42.1248 212.25 42.3748ZM197 13.7498C197.375 13.7498 197.75 13.7498 198.125 13.7498H198.25C198.875 13.7498 199.25 13.2498 199.25 12.6248C199.25 11.9998 198.875 11.4998 198.25 11.4998C197.375 11.4998 196.5 11.4998 195.75 11.4998C195.125 11.4998 194.75 11.9998 194.75 12.6248C194.75 13.2498 195.125 13.7498 195.75 13.7498C196.125 13.7498 196.625 13.7498 197 13.7498ZM197 18.3748C197.375 18.3748 197.875 18.3748 198.25 18.3748C198.875 18.3748 199.25 17.8748 199.375 17.2498C199.375 16.6248 198.875 16.1248 198.375 16.1248C197.5 16.1248 196.75 16.1248 195.875 16.1248C195.25 16.1248 194.875 16.6248 194.875 17.2498C194.875 17.8748 195.25 18.2498 195.875 18.3748C196.125 18.3748 196.5 18.3748 197 18.3748ZM197 23.1248C197.375 23.1248 197.75 23.1248 198.25 23.1248C198.875 23.1248 199.375 22.6248 199.375 21.9998C199.375 21.3748 198.875 20.8748 198.375 20.8748C197.5 20.8748 196.75 20.8748 195.875 20.8748C195.25 20.8748 194.875 21.3748 194.875 21.9998C194.875 22.6248 195.25 22.9998 195.875 23.1248C196.125 23.1248 196.625 23.1248 197 23.1248ZM197 27.7498C197.375 27.7498 197.875 27.7498 198.25 27.7498C198.875 27.7498 199.25 27.2498 199.25 26.6248C199.25 25.9998 198.875 25.4998 198.25 25.4998C197.375 25.4998 196.5 25.4998 195.75 25.4998C195.125 25.4998 194.75 25.9998 194.75 26.6248C194.75 27.2498 195.125 27.7498 195.75 27.7498C196.125 27.7498 196.5 27.7498 197 27.7498ZM204.75 13.7498C205.125 13.7498 205.625 13.7498 206 13.7498C206.625 13.7498 207 13.2498 207 12.6248C207 11.9998 206.5 11.4998 206 11.4998C205.125 11.4998 204.375 11.4998 203.5 11.4998C202.875 11.4998 202.5 11.9998 202.5 12.6248C202.5 13.2498 203 13.7498 203.625 13.7498C204 13.7498 204.375 13.7498 204.75 13.7498ZM204.75 18.3748C205.125 18.3748 205.5 18.3748 205.875 18.3748H206C206.625 18.3748 207 17.8748 207 17.2498C207 16.6248 206.5 16.1248 206 16.1248C205.125 16.1248 204.375 16.1248 203.5 16.1248C202.875 16.1248 202.5 16.6248 202.5 17.2498C202.5 17.8748 203 18.3748 203.625 18.3748C204 18.3748 204.375 18.3748 204.75 18.3748ZM204.75 23.1248C205.125 23.1248 205.5 23.1248 206 23.1248C206.625 23.1248 207.125 22.6248 207.125 21.9998C207.125 21.3748 206.625 20.8748 206 20.8748C205.125 20.8748 204.375 20.8748 203.5 20.8748C202.875 20.8748 202.375 21.3748 202.375 21.9998C202.375 22.6248 202.875 23.1248 203.5 23.1248C204 23.1248 204.375 23.1248 204.75 23.1248ZM204.75 27.7498C205.125 27.7498 205.625 27.7498 206 27.7498C206.625 27.7498 207 27.2498 207.125 26.6248C207.125 25.9998 206.625 25.4998 206 25.4998C205.125 25.4998 204.375 25.4998 203.5 25.4998C202.875 25.4998 202.375 25.9998 202.375 26.6248C202.375 27.2498 202.875 27.7498 203.5 27.7498C204 27.7498 204.375 27.7498 204.75 27.7498Z" fill="#FF0000"/>
<path d="M213.75 42.3746C213.75 42.2496 213.75 41.9996 213.75 41.8746C213.75 34.6246 213.75 27.3746 213.75 20.1246C213.75 19.4996 213.75 19.3746 214.375 19.6246C217.75 20.3746 221.25 21.1246 224.625 21.7496C225.875 21.9996 226.625 22.7496 227 23.9996C227 29.4996 227 34.8746 227 40.3746C226.625 41.4996 226 42.1246 224.875 42.4996C221.125 42.3746 217.375 42.3746 213.75 42.3746ZM220 25.8746C219.625 25.8746 219.25 25.8746 219 25.8746C218.25 25.8746 217.75 26.3746 217.75 26.9996C217.75 27.6246 218.25 28.1246 219 28.1246C219.75 28.1246 220.375 28.1246 221.125 28.1246C221.875 28.1246 222.375 27.6246 222.375 26.9996C222.375 26.3746 221.875 25.8746 221.125 25.8746C220.75 25.8746 220.375 25.8746 220 25.8746ZM220 32.8746C220.375 32.8746 220.75 32.8746 221.125 32.8746C221.75 32.8746 222.375 32.3746 222.375 31.7496C222.375 31.1246 221.875 30.6246 221.125 30.6246C220.375 30.6246 219.625 30.6246 218.875 30.6246C218.125 30.6246 217.625 31.1246 217.625 31.7496C217.625 32.3746 218.125 32.8746 218.875 32.8746C219.25 32.8746 219.625 32.8746 220 32.8746ZM220 37.6246C220.375 37.6246 220.75 37.6246 221.125 37.6246C221.875 37.6246 222.375 37.1246 222.375 36.4996C222.375 35.8746 221.875 35.3746 221.125 35.3746C220.375 35.3746 219.625 35.3746 219 35.3746C218.25 35.3746 217.75 35.8746 217.75 36.4996C217.75 37.1246 218.25 37.6246 219 37.6246C219.25 37.6246 219.625 37.6246 220 37.6246Z" fill="#FF0000"/>
<path d="M359.02 4.24649C360.088 4.41082 361.156 4.57515 362.224 4.82164C364.936 5.56112 367.483 6.71142 369.701 8.43687C370.03 8.68337 370.194 8.68337 370.523 8.35471C370.77 8.02605 371.098 7.77956 371.427 7.4509C371.427 7.4509 371.509 7.28657 371.673 7.28657C371.756 7.36874 371.756 7.4509 371.756 7.53307C372.084 9.25852 372.413 11.0661 372.824 12.7916C372.988 13.6132 373.152 14.517 373.317 15.3387C373.399 15.6673 373.317 15.6673 372.988 15.6673C370.359 15.1743 367.729 14.5992 365.1 14.1062C364.772 14.024 364.772 13.9419 365.018 13.6954C365.429 13.2846 365.84 12.8737 366.333 12.4629C366.579 12.2164 366.579 12.1343 366.333 11.9699C364.772 10.8196 363.046 9.998 361.156 9.58717C355.98 8.43687 351.297 9.42285 347.271 12.8737C344.23 15.4208 342.423 18.7896 341.93 22.7335C341.026 29.6353 344.806 35.7976 350.475 38.5912C352.365 39.5772 354.419 40.0701 356.555 40.1523C361.403 40.3988 365.429 38.6733 368.798 35.2224C371.18 32.7575 372.577 29.7996 372.988 26.4309C373.07 25.9379 373.07 25.3627 373.07 24.8697C373.07 24.7054 373.152 24.5411 373.399 24.5411C374.96 24.5411 376.439 24.5411 378 24.5411C378 25.1162 378 25.6914 378 26.1844C377.918 26.9238 377.836 27.7455 377.671 28.485C376.685 33.1683 374.385 37.1122 370.77 40.1523C365.758 44.3427 359.924 45.8216 353.515 44.5892C349.242 43.7675 345.627 41.7134 342.587 38.5912C340.122 36.0441 338.479 33.004 337.575 29.5531C337.246 28.4028 337.164 27.3347 337 26.1844C337 25.0341 337 23.9659 337 22.8156C337.082 22.1583 337.164 21.5832 337.246 20.9259C338.068 16.489 340.122 12.7094 343.409 9.58717C345.956 7.12224 348.996 5.47896 352.447 4.57515C353.597 4.24649 354.665 4.16433 355.816 4C356.719 4.24649 357.87 4.24649 359.02 4.24649Z" fill="#FF0000"/>
<path d="M357.541 13.8594C356.963 13.8594 356.396 13.9075 355.843 13.9997L355.502 15.3899C354.973 17.5504 352.715 18.8346 350.551 18.2044L349.363 17.8573C348.649 18.7633 348.077 19.7932 347.682 20.9069L348.564 21.7414C350.176 23.2698 350.176 25.8116 348.564 27.34L347.682 28.1745C348.077 29.2883 348.648 30.3172 349.363 31.2242L350.551 30.8771C352.715 30.2469 354.973 31.531 355.502 33.6916L355.843 35.0818C356.396 35.174 356.963 35.2221 357.541 35.2221C358.12 35.2221 358.687 35.174 359.24 35.0818L359.581 33.6916C360.11 31.531 362.368 30.2469 364.532 30.8771L365.72 31.2242C366.434 30.3182 367.006 29.2883 367.401 28.1745L366.519 27.34C364.907 25.8126 364.907 23.2689 366.519 21.7414L367.401 20.9069C367.006 19.7932 366.435 18.7642 365.72 17.8573L364.532 18.2044C362.368 18.8346 360.11 17.5504 359.581 15.3899L359.24 13.9997C358.687 13.9075 358.12 13.8594 357.541 13.8594ZM357.541 21.6276C359.175 21.6276 360.499 22.9317 360.499 24.5407C360.499 26.1497 359.175 27.4538 357.541 27.4538C355.908 27.4538 354.583 26.1497 354.583 24.5407C354.583 22.9317 355.908 21.6276 357.541 21.6276Z" fill="#FF0000"/>
<circle cx="507.999" cy="24.9998" r="20.8333" fill="#7A7C7E"/>
<path d="M512.723 22.9165L506.821 28.8186L503.279 25.2769" stroke="white" stroke-width="4" stroke-linecap="round" stroke-linejoin="round"/>
<rect y="24" width="33" height="4" rx="2" fill="#FF0000"/>
<rect x="536" y="24" width="33" height="4" rx="2" fill="#C4C4C4"/>
<rect x="84" y="24" width="100" height="4" rx="2" fill="#FF0000"/>
<rect x="233" y="24" width="99" height="4" rx="2" fill="#FF0000"/>
<rect x="383" y="24" width="98" height="4" rx="2" fill="#C4C4C4"/>
</svg>
