<svg width="569" height="50" viewBox="0 0 569 50" fill="none" xmlns="http://www.w3.org/2000/svg">
<circle cx="57.9994" cy="24.9998" r="20.8333" fill="#7A7C7E"/>
<path d="M62.723 22.9165L56.821 28.8186L53.2793 25.2769" stroke="white" stroke-width="4" stroke-linecap="round" stroke-linejoin="round"/>
<path d="M212.25 42.3748C210 42.3748 207.75 42.3748 205.5 42.3748C205.5 42.1248 205.5 41.9998 205.5 41.7498C205.5 39.2498 205.5 36.7498 205.5 34.1248C205.5 32.4998 204.375 31.4998 202.75 31.3748C201.5 31.3748 200.25 31.3748 199 31.3748C197.25 31.3748 196.125 32.4998 196.125 34.2498C196.125 36.7498 196.125 39.2498 196.125 41.7498C196.125 41.8748 196.125 42.1248 196.125 42.2498C194.25 42.2498 192.375 42.2498 190.625 42.2498C190 41.8748 189.5 41.4998 189.5 40.6248C189.5 29.6248 189.5 18.6248 189.5 7.62483C189.5 5.99983 190.875 4.74983 192.5 4.87483C193.75 4.99983 195 5.24983 196.25 5.37483C200.625 6.24983 204.875 6.87483 209.25 7.49983C209.875 7.62483 210.375 7.62483 210.875 7.99983C211.875 8.62483 212.25 9.62483 212.25 10.7498C212.25 21.1248 212.25 31.4998 212.25 41.8748C212.25 41.9998 212.25 42.1248 212.25 42.3748ZM197 13.7498C197.375 13.7498 197.75 13.7498 198.125 13.7498H198.25C198.875 13.7498 199.25 13.2498 199.25 12.6248C199.25 11.9998 198.875 11.4998 198.25 11.4998C197.375 11.4998 196.5 11.4998 195.75 11.4998C195.125 11.4998 194.75 11.9998 194.75 12.6248C194.75 13.2498 195.125 13.7498 195.75 13.7498C196.125 13.7498 196.625 13.7498 197 13.7498ZM197 18.3748C197.375 18.3748 197.875 18.3748 198.25 18.3748C198.875 18.3748 199.25 17.8748 199.375 17.2498C199.375 16.6248 198.875 16.1248 198.375 16.1248C197.5 16.1248 196.75 16.1248 195.875 16.1248C195.25 16.1248 194.875 16.6248 194.875 17.2498C194.875 17.8748 195.25 18.2498 195.875 18.3748C196.125 18.3748 196.5 18.3748 197 18.3748ZM197 23.1248C197.375 23.1248 197.75 23.1248 198.25 23.1248C198.875 23.1248 199.375 22.6248 199.375 21.9998C199.375 21.3748 198.875 20.8748 198.375 20.8748C197.5 20.8748 196.75 20.8748 195.875 20.8748C195.25 20.8748 194.875 21.3748 194.875 21.9998C194.875 22.6248 195.25 22.9998 195.875 23.1248C196.125 23.1248 196.625 23.1248 197 23.1248ZM197 27.7498C197.375 27.7498 197.875 27.7498 198.25 27.7498C198.875 27.7498 199.25 27.2498 199.25 26.6248C199.25 25.9998 198.875 25.4998 198.25 25.4998C197.375 25.4998 196.5 25.4998 195.75 25.4998C195.125 25.4998 194.75 25.9998 194.75 26.6248C194.75 27.2498 195.125 27.7498 195.75 27.7498C196.125 27.7498 196.5 27.7498 197 27.7498ZM204.75 13.7498C205.125 13.7498 205.625 13.7498 206 13.7498C206.625 13.7498 207 13.2498 207 12.6248C207 11.9998 206.5 11.4998 206 11.4998C205.125 11.4998 204.375 11.4998 203.5 11.4998C202.875 11.4998 202.5 11.9998 202.5 12.6248C202.5 13.2498 203 13.7498 203.625 13.7498C204 13.7498 204.375 13.7498 204.75 13.7498ZM204.75 18.3748C205.125 18.3748 205.5 18.3748 205.875 18.3748H206C206.625 18.3748 207 17.8748 207 17.2498C207 16.6248 206.5 16.1248 206 16.1248C205.125 16.1248 204.375 16.1248 203.5 16.1248C202.875 16.1248 202.5 16.6248 202.5 17.2498C202.5 17.8748 203 18.3748 203.625 18.3748C204 18.3748 204.375 18.3748 204.75 18.3748ZM204.75 23.1248C205.125 23.1248 205.5 23.1248 206 23.1248C206.625 23.1248 207.125 22.6248 207.125 21.9998C207.125 21.3748 206.625 20.8748 206 20.8748C205.125 20.8748 204.375 20.8748 203.5 20.8748C202.875 20.8748 202.375 21.3748 202.375 21.9998C202.375 22.6248 202.875 23.1248 203.5 23.1248C204 23.1248 204.375 23.1248 204.75 23.1248ZM204.75 27.7498C205.125 27.7498 205.625 27.7498 206 27.7498C206.625 27.7498 207 27.2498 207.125 26.6248C207.125 25.9998 206.625 25.4998 206 25.4998C205.125 25.4998 204.375 25.4998 203.5 25.4998C202.875 25.4998 202.375 25.9998 202.375 26.6248C202.375 27.2498 202.875 27.7498 203.5 27.7498C204 27.7498 204.375 27.7498 204.75 27.7498Z" fill="#7A7C7E"/>
<path d="M213.75 42.3746C213.75 42.2496 213.75 41.9996 213.75 41.8746C213.75 34.6246 213.75 27.3746 213.75 20.1246C213.75 19.4996 213.75 19.3746 214.375 19.6246C217.75 20.3746 221.25 21.1246 224.625 21.7496C225.875 21.9996 226.625 22.7496 227 23.9996C227 29.4996 227 34.8746 227 40.3746C226.625 41.4996 226 42.1246 224.875 42.4996C221.125 42.3746 217.375 42.3746 213.75 42.3746ZM220 25.8746C219.625 25.8746 219.25 25.8746 219 25.8746C218.25 25.8746 217.75 26.3746 217.75 26.9996C217.75 27.6246 218.25 28.1246 219 28.1246C219.75 28.1246 220.375 28.1246 221.125 28.1246C221.875 28.1246 222.375 27.6246 222.375 26.9996C222.375 26.3746 221.875 25.8746 221.125 25.8746C220.75 25.8746 220.375 25.8746 220 25.8746ZM220 32.8746C220.375 32.8746 220.75 32.8746 221.125 32.8746C221.75 32.8746 222.375 32.3746 222.375 31.7496C222.375 31.1246 221.875 30.6246 221.125 30.6246C220.375 30.6246 219.625 30.6246 218.875 30.6246C218.125 30.6246 217.625 31.1246 217.625 31.7496C217.625 32.3746 218.125 32.8746 218.875 32.8746C219.25 32.8746 219.625 32.8746 220 32.8746ZM220 37.6246C220.375 37.6246 220.75 37.6246 221.125 37.6246C221.875 37.6246 222.375 37.1246 222.375 36.4996C222.375 35.8746 221.875 35.3746 221.125 35.3746C220.375 35.3746 219.625 35.3746 219 35.3746C218.25 35.3746 217.75 35.8746 217.75 36.4996C217.75 37.1246 218.25 37.6246 219 37.6246C219.25 37.6246 219.625 37.6246 220 37.6246Z" fill="#7A7C7E"/>
<path d="M359.02 4.24649C360.088 4.41082 361.156 4.57515 362.224 4.82164C364.936 5.56112 367.483 6.71142 369.701 8.43687C370.03 8.68337 370.194 8.68337 370.523 8.35471C370.77 8.02605 371.098 7.77956 371.427 7.4509C371.427 7.4509 371.509 7.28657 371.673 7.28657C371.756 7.36874 371.756 7.4509 371.756 7.53307C372.084 9.25852 372.413 11.0661 372.824 12.7916C372.988 13.6132 373.152 14.517 373.317 15.3387C373.399 15.6673 373.317 15.6673 372.988 15.6673C370.359 15.1743 367.729 14.5992 365.1 14.1062C364.772 14.024 364.772 13.9419 365.018 13.6954C365.429 13.2846 365.84 12.8737 366.333 12.4629C366.579 12.2164 366.579 12.1343 366.333 11.9699C364.772 10.8196 363.046 9.998 361.156 9.58717C355.98 8.43687 351.297 9.42285 347.271 12.8737C344.23 15.4208 342.423 18.7896 341.93 22.7335C341.026 29.6353 344.806 35.7976 350.475 38.5912C352.365 39.5772 354.419 40.0701 356.555 40.1523C361.403 40.3988 365.429 38.6733 368.798 35.2224C371.18 32.7575 372.577 29.7996 372.988 26.4309C373.07 25.9379 373.07 25.3627 373.07 24.8697C373.07 24.7054 373.152 24.5411 373.399 24.5411C374.96 24.5411 376.439 24.5411 378 24.5411C378 25.1162 378 25.6914 378 26.1844C377.918 26.9238 377.836 27.7455 377.671 28.485C376.685 33.1683 374.385 37.1122 370.77 40.1523C365.758 44.3427 359.924 45.8216 353.515 44.5892C349.242 43.7675 345.627 41.7134 342.587 38.5912C340.122 36.0441 338.479 33.004 337.575 29.5531C337.246 28.4028 337.164 27.3347 337 26.1844C337 25.0341 337 23.9659 337 22.8156C337.082 22.1583 337.164 21.5832 337.246 20.9259C338.068 16.489 340.122 12.7094 343.409 9.58717C345.956 7.12224 348.996 5.47896 352.447 4.57515C353.597 4.24649 354.665 4.16433 355.816 4C356.719 4.24649 357.87 4.24649 359.02 4.24649Z" fill="#7A7C7E"/>
<path d="M357.541 13.8594C356.963 13.8594 356.396 13.9075 355.843 13.9997L355.502 15.3899C354.973 17.5504 352.715 18.8346 350.551 18.2044L349.363 17.8573C348.649 18.7633 348.077 19.7932 347.682 20.9069L348.564 21.7414C350.176 23.2698 350.176 25.8116 348.564 27.34L347.682 28.1745C348.077 29.2883 348.648 30.3172 349.363 31.2242L350.551 30.8771C352.715 30.2469 354.973 31.531 355.502 33.6916L355.843 35.0818C356.396 35.174 356.963 35.2221 357.541 35.2221C358.12 35.2221 358.687 35.174 359.24 35.0818L359.581 33.6916C360.11 31.531 362.368 30.2469 364.532 30.8771L365.72 31.2242C366.434 30.3182 367.006 29.2883 367.401 28.1745L366.519 27.34C364.907 25.8126 364.907 23.2689 366.519 21.7414L367.401 20.9069C367.006 19.7932 366.435 18.7642 365.72 17.8573L364.532 18.2044C362.368 18.8346 360.11 17.5504 359.581 15.3899L359.24 13.9997C358.687 13.9075 358.12 13.8594 357.541 13.8594ZM357.541 21.6276C359.175 21.6276 360.499 22.9317 360.499 24.5407C360.499 26.1497 359.175 27.4538 357.541 27.4538C355.908 27.4538 354.583 26.1497 354.583 24.5407C354.583 22.9317 355.908 21.6276 357.541 21.6276Z" fill="#7A7C7E"/>
<path d="M529.695 24.5918C529.695 24.8545 529.695 25.0296 529.695 25.2923C529.433 26.168 528.82 26.8685 528.119 27.3939C527.419 28.0069 526.718 28.6198 526.018 29.2328C525.142 30.1084 524.879 31.0717 525.142 32.21C525.317 33.2608 525.58 34.3992 525.842 35.4499C526.193 37.3764 525.492 38.4272 523.478 38.6899C522.602 38.7774 521.727 38.865 520.764 38.9526C519.1 39.0401 517.874 39.7407 517.261 41.3168C516.998 41.9298 516.736 42.5428 516.473 43.2433C516.21 43.8563 515.947 44.4692 515.51 44.9946C514.897 45.6951 514.196 45.8703 513.32 45.6076C512.708 45.4324 512.182 45.0822 511.569 44.8195C510.781 44.3816 509.993 43.8563 509.117 43.4184C508.154 42.9806 507.278 42.9806 506.315 43.4184C505.702 43.6811 505.089 44.0314 504.564 44.3816C503.776 44.8195 503.075 45.3449 502.2 45.6076C501.324 45.8703 500.623 45.6076 500.011 44.907C499.66 44.4692 499.398 44.0314 499.222 43.506C498.785 42.6303 498.434 41.6671 498.084 40.7915C497.559 39.6531 496.595 39.0401 495.37 38.9526C494.319 38.865 493.268 38.7774 492.217 38.6023C490.203 38.3396 489.503 37.3764 489.853 35.3624C490.028 34.3992 490.203 33.5235 490.466 32.6478C490.816 31.1592 490.466 29.8457 489.24 28.795C488.802 28.4447 488.364 28.0944 488.014 27.7442C487.226 27.0436 486.35 26.3431 486 25.2923C486 25.0296 486 24.7669 486 24.4167C486.35 23.4534 487.051 22.7529 487.839 22.14C488.452 21.6146 488.977 21.0892 489.59 20.6513C490.553 19.7757 490.816 18.7249 490.553 17.499C490.291 16.4482 490.028 15.3974 489.853 14.3466C489.503 12.4202 490.116 11.5445 492.042 11.1067C492.13 11.1067 492.217 11.1067 492.217 11.1067C493.268 11.0191 494.406 10.844 495.457 10.7564C496.683 10.5813 497.559 10.0559 498.084 8.91755C498.347 8.30459 498.697 7.60406 498.96 6.9911C499.31 6.29058 499.573 5.50249 500.098 4.88953C500.711 4.189 501.412 3.9263 502.287 4.189C502.988 4.36413 503.601 4.71439 504.214 5.06466C504.914 5.50249 505.702 5.94031 506.403 6.29058C507.366 6.7284 508.242 6.7284 509.205 6.29058C509.905 5.94031 510.606 5.50249 511.219 5.15222C511.919 4.71439 512.532 4.36413 513.32 4.10143C514.196 3.83874 514.897 4.10143 515.51 4.71439C515.86 5.15222 516.123 5.59005 516.298 6.02788C516.648 6.90354 517.086 7.77919 517.436 8.56728C517.961 9.7932 518.925 10.4937 520.238 10.5813C521.289 10.6689 522.34 10.7564 523.391 10.9316C525.317 11.1943 526.105 12.1575 525.755 14.1715C525.58 15.1347 525.405 16.0104 525.142 16.9736C524.792 18.4622 525.054 19.7757 526.28 20.7389C526.893 21.1767 527.419 21.7021 528.032 22.2275C528.82 23.0156 529.433 23.6286 529.695 24.5918ZM505.877 32.3851C506.578 32.3851 507.191 32.1224 507.716 31.5971C509.555 29.7582 511.394 27.9193 513.233 26.0804C514.371 24.9421 515.597 23.7161 516.736 22.5778C517.611 21.6146 517.786 20.3887 516.998 19.3379C516.123 18.1995 514.371 18.0244 513.32 19.1627C510.956 21.527 508.504 23.8913 506.14 26.3431C505.877 26.6058 505.79 26.6058 505.527 26.3431C504.389 25.2048 503.25 24.0664 502.112 22.9281C501.149 21.9648 499.66 21.9648 498.697 22.9281C497.734 23.8913 497.646 25.3799 498.609 26.3431C500.448 28.182 502.2 29.9333 504.039 31.7722C504.739 32.1224 505.264 32.3851 505.877 32.3851Z" fill="#7A7C7E"/>
<rect y="24" width="33" height="4" rx="2" fill="#C4C4C4"/>
<rect x="536" y="24" width="33" height="4" rx="2" fill="#C4C4C4"/>
<rect x="84" y="24" width="100" height="4" rx="2" fill="#C4C4C4"/>
<rect x="233" y="24" width="99" height="4" rx="2" fill="#C4C4C4"/>
<rect x="383" y="24" width="98" height="4" rx="2" fill="#C4C4C4"/>
</svg>
